<mxfile host="Electron" agent="Mozilla/5.0 (Windows NT 10.0; Win64; x64) AppleWebKit/537.36 (KHTML, like Gecko) draw.io/28.1.2 Chrome/138.0.7204.243 Electron/37.4.0 Safari/537.36" version="28.1.2">
  <diagram name="Page-1" id="bpsRAS42XApEt0kRb3Or">
    <mxGraphModel dx="1158" dy="696" grid="1" gridSize="10" guides="1" tooltips="1" connect="1" arrows="1" fold="1" page="1" pageScale="1" pageWidth="850" pageHeight="1100" math="0" shadow="0">
      <root>
        <mxCell id="0" />
        <mxCell id="1" parent="0" />
        <mxCell id="vKDNCVvnNCXdLF1c3vbO-39" value="" style="rounded=0;whiteSpace=wrap;html=1;strokeColor=default;dashed=1;" vertex="1" parent="1">
          <mxGeometry x="50" y="450" width="980" height="620" as="geometry" />
        </mxCell>
        <mxCell id="vKDNCVvnNCXdLF1c3vbO-13" value="" style="group" vertex="1" connectable="0" parent="1">
          <mxGeometry x="60" y="800" width="310" height="220" as="geometry" />
        </mxCell>
        <mxCell id="vKDNCVvnNCXdLF1c3vbO-12" value="" style="rounded=0;whiteSpace=wrap;html=1;dashed=1;" vertex="1" parent="vKDNCVvnNCXdLF1c3vbO-13">
          <mxGeometry width="310" height="220" as="geometry" />
        </mxCell>
        <mxCell id="vKDNCVvnNCXdLF1c3vbO-2" value="" style="shape=image;verticalLabelPosition=bottom;labelBackgroundColor=default;verticalAlign=top;aspect=fixed;imageAspect=0;image=data:image/png,iVBORw0KGgoAAAANSUhEUgAAAQkAAADPCAIAAABpzLMuAAAgAElEQVR4AeydB3wU1fb4ZzYUsUKSTejqs0B2N213E4oUxYL92X3Pp7+nTyGEJPSm9HRAVKqCqIgNC3ZRsIKi2B89vdftdeq9d/6fc2ezWSBgAH3yl8nnfobJZNmZOXO/c86559xzGUX70SSgSaAjCTAdHdSOaRLQJKBobGidQJNAxxLQ2OhYLtpRTQIaG1of0CTQsQQ0NjqWi3ZUk4DGhtYHNAl0LAGNjY7loh3VJKCxofUBTQIdS0Bjo2O5aEc1CWhsaH1Ak0DHEtDY6Fgu2lFNAhobWh/QJNCxBDQ2OpaLdlSTgMaG1gc0CXQsAY2NjuWiHdUkoLGh9QFNAh1LQGOjY7loRzUJaGxofUCTQMcS0NjoWC7aUU0CGhtaH9Ak0LEENDY6lot2VJOAxobWBzQJdCwBjY2O5aId1SSgsaH1AU0CHUtAY6NjuWhHNQlobGh9QJNAxxLQ2OhYLtpRTQIaG1of0CTQsQQ0NjqWi3ZUk4DGhtYHNAl0LAGNjY7lcnJHScTPyX3DSfwvcvj/wQpBbe2IPx3+Qe2335CAxsZvCOiE/owxkWQsIYwxUKKofRP2FEwIVmBHbSf0tUd8OAQgUjBWRKwIiiIRBRMAQsEKwlgiSMKShGUZY9R+3nZS2veO+Grt1wgJaGxECOOUd7GiIIIRwRj6KvyEeyFpAwOf8lkU+l0YExEpQaL4sRLAioAVGSlIxkiUFUkkkoglSZKQgIhI4QQ+FeATt1/UqV/KX/kbNDZ+t6cLYCiKpCg8UYKY0C6LeUJk2impugBgQHtE/Jz06TFRREXhFCWgKF5F8WLikxS/jDlZFGVOQpyEBInIIiY8IgLCMiGqDtHw6KTMNTY6KaiOP0b7uvoeJogoXoxrgvgXB/q0XnqnGtq2BnmXTd7jkRsF7MWKSBSs0Fc3vPvhp+Pv7eioaozBf1cUWSF+TGwyqRbJfj/+wYV2tsif18nb64QfvXylEGyRgx7M80SWFdAbAlZEhGWMqE4jCK5C+/kNCWhs/IaAjv5zuI9SLUGCiuKWSKMPbSvlZnzkGL22flBRZb/5pX1ml/ebUzVgTvWFj1Zdsrhq7PqG+Z/aPqoIVHokr0BEpL7FEQZlczxCqAEFhpAMSgnzBIuENErk4yZx8TetN2+uMWxoGrjeP+AZfsDTXN9nvBett131lj3rS+e6A95vmgWngCWqMWSEJIQQRhjOrDYMaozSevRtakc0Nk64D9BuSnsqUdyyUuHDHxzist9sSiwsiZ11oFvOAXbifmbCQXZ8CZtRymSUMBNKdRPLzp5cpp9VYcov/9em2rf28I1exMtExLJMJIpHx5dBB52ob61gScGigm0C2tUsP/aNN/1VT+wKe/fiBl1RI1vkZAr8urwAU+hlC+3dl9h6Lrf3X+W4+S3vhj3CAYfsE7GIMcKy2nDIwqLOu8ZGx7LX1vs7hlyOcxiDSaNwmLRyeHuFkPW27fK88nNy9kVl7mMn7NNllLDjS9nx5WxGJZNRBW1CFTOhms2s1k2o1mWWnzOldFBe5b9fbnpnr6/RgzgZyYqMFZlaW4eZOgQ8eyISJBDEKdiHSZkPFX7nGbrJHrvCHrUkyOZzulw3U2BnCh1Mvo/J5Zh8P5PvYfJdbJ6LyXd2L3b2X+W67S3fs3v4UpcsIglhsK1QSJdobBznOWtsHE84Hf8N2CCk1CU9/Z3jmjW1vWaW6zIPMuMP6sYd1I0rjRpfqRtfpRtfoxtfw2TU0VbPjG9gJzSwGQ3shDo2s0qXXX7ejJJRK2ue+Mqxt1XySkQiMiYqHu0nBb+CYACDyA6EvrSJOZ87LlzZcnZ+c1SBmymU2Hy5S16QLfAxRQGmgGfzeaYwwBb6dQU+Nt/LFnh0hW62wNWtyJXwjHv65/79NoGTZUQkTGRVdWg2Vbu4j9rTbKqjRHKMA6rnTIgiyLjeI2VuqYtfsEeXdZDJKGPGlzHjythHyqPGVUSNr9aNr2bH11I26pmMBmZ8IzO+CbbjGplxdcwjNUxGNZtVopu0v8+8A/e/XPtZpdDql3gkEVBI7b4HURSRkCAhTgl93cSP3lzfY0lj10JP9zxPVK6PyeOZPI5d7Gdy/Ux+gMkPgurId7N5fl2ePyovEJXv1+X72QI/k+dl871nL3E/8K57V6PskxDCEibU8YCxZmjHuOkz+rDGRqceP1EIxPUkxAlob1Ng/Ft10fP36bIOUDAqmXFVzPhqdpyqLmp14+qY8XVMRg2TUcuMV9loZMbXQxtXx4yrZcZXM+NqmAnlTPah86bvu3ldxXsH/E1+mUcSBjzUH/CXeUycMvm4Do3a7O/2uFdX5O1a4I3K9bK5XiaPUgGQeNk8H5PnYfM8bK6LzfMCLbl+Ns/P5gaYPI7JCzJ5QTaPP6fIfe87/k8bsQchGcuygmUaQW/Hse3c2r+KotlUneoFEOKWZeTjpUqb9NBb9ec/uofNPMBklDLjK6Cjj6+hrVo3vl43rokFRVEPeEBrZMa1MOObqfaoZx6ppXhQQsbVAycZh3rk/HLVqvK3D3LNASLhkGtOINpNPDLeWiNf9TrXbVmAKfbrCv0MYOBl8jxMnluX7+5a6D5vuSdmpTd+tSd+tVe/0nvOUk8UuBxuJt/LAhUC1TAikyew+VyPYted7wU/bsFuBGCoTYsGdtgLNL3RoViOPIgx4SRc7RLnfu49b/Y+duJBZvwhZlwZ80gVM46ykVFDIaEwZNSyGVVMZjkzoZTJKGcyqqnXUdsGTBibujY1UtIjZ+/o1TVvHJCcApZhDAxoDMji1lpuzOv+7st8TDHHFHFMQRDAAL3h6FJo77/acf277tk/citLpZfr0eoyecb3wfs/CfxtvfOs5fYuRU5dgZcqDT6MB5Mf6LHUcesH/u9aUQCreGDNojryedPfNTY6FMuRByWitPDk8R/53gv2MZkHKBilzCPllI2Q0mDGV7AZ1WxGpS5zf9fMX7tN/K5r9q6u2bu6ZH2nm7gXRqvAO69lxte2qZR62AcTq4YZX94t58CoNfVfNiC/BIO2iJDP6nxjXrd3X+Zii/xMkcAUiNDR831MgfOc4sZr3259/IDnCw9XiyUXwi5EXIg4ECkNiBvLA/d+7Lp0Q8tZS72UCoHJA71B93km39Njacvkz4KVPiQQwENj48jnrbHRoURCB9vi1moKn1cim/f6LI/XgI8xoQTcjHHlzLhKcBvAcKoG4yrjUJfMny9euO9fr9av/cWxuZr7pDH4TrW/+HvP/W8295l7sOvkQ0xWOZNZyUyoDrkf4+uBlgnVTGYVM7Gy+5TyezbW/NIk+DAp8ch3vWc/78nWqGKXrjDAFAjQuQsCzGJP3FP2uTu9v7qEVoQdRPJC5JsOA2PYihg5kbAvEHymkh/9luusJR7qctD/DoSIKl36Ve7VvwotPBZDYfrjCePM/JumNzp+7oQQyJylLUjIfqd057raHpn7mQmH2AnlELUYX8kCEtVgU2VURmWWXDDjwG2vVL1+wN0SRH6ZBGUlSIgPE5eM63zyG3v8977Y2GdBRVROKZNVxmTWwajuhAYms4aZWAUtu5rNrjh/1oGJbzV/VSvN/cLZ56nmqGKHrsjDginFRRUGowoD+hXu3B8CtRzyIuzDOKgQgcDoLwTYQw1LBAcU1IT4Nxv54Zsd3Qu9uly/LjfI5gpMLgLlU+BiCxxjXvV8VicFZCJAcqT2c6QENDaOlIj6OyEEQSAZBjtrg2jZTnf0pP268YeYjHJ2QltQLxTaq+iSeejyhRWT3mz4ySXbZOwUiaAOANG0PkRgKNYr4f0tqGC7e1B+ZZfJJUxOJZNVp5vYyE6sBzCyqpnsWja7ks0qjZ9bcedLdsOTDd0K7OB85/uZvAALA7KeC5a75u0O1gqyT5YFTETa6HBsGAyF5qVjRGSB4GYZv1jNpb1s717g6ZLr1y3m2VwM+gdGex3nPeGasC1Q6UFBOZQ13LEsztSjGhsdPHkKBqR7y5gERPT+Ib91eVXUIwejMitAV4BvTQPeGRVMZrluYsngxRUbvvbWOhCPIA9XhBc5pB7CuK+qemjiOo9JuRO98is/YnlJ96klzKQKNqeezaoHMCgbTHYNk1Wjm1TTY3b9+fMbe0AP5iHaDWz4Ypa7x28PHPRJbgUJCNIGEVJgixVEoGG6pZlSCBHIRhEVVC+KT5f4kl5o6Z7vigI8JDZXNatcumLngNXuZ/cINl5jo4NuoLHRgVCoQYURQiIiFQ4x5217j6mlzPhDXTIhqEcDF2BHMRPKmIkH+88vmfV+a6MXSep0OzWPLzTRSJ20Ab4LUpBE4A3t5PEbv7pGrag8a0YZM6mCyaFgZNUw2bVMdh2T3cBmNzCTGnU5jexjHmYRzyz0s4s95xa7/v6W71ub7CUooMgIA3dt4IUCeEQN44HGo+CAQ495gqo5afled581dV2LWpjcAKvqjUInU2DvXmS/+U3PjgYZ0StVZaEmCIe3HQjozDiksXH4c4axU+hzGGMJEb+Mt+zzJuSWshllbEaVLqOWBe+ZxvUmVLATSs6dcSDzncZyl+yHKUTQR9W88yOiadShx5KCRCyJWHYIeNPPgZTltV2nUTyy2/RGVh2T3chkNYa201qZx9zMPEf3xfarX3Z9VCO6MQ4SJAET7T+H30B4dgjoLJkQiZAgVr73ig980Xz28hoIj+SH9AaT72ALHP1XtC75kfMipOYDU213vO8/4nR/4V81NiIeLryJsQKdCssEcYhUeeQJb9adnbNPl1GjG1+ng+FXGp3IqGEmVHSdeOi69fU7aoNeRII0VgBv346mZLSxIYtEEogsKIqNx0t2uP9WUBkFvkcVk13DgmUFegPYgNbETG5mZ7d2Xdh6ySrHi+WcTcZBBYvQeSOu+ajdMDSYEIlOl5WxYkPk7YbgoPUNbIELgiQFNCWx0MPkO7sV2m7e4vrFy/M0TA4uUtuP+lVHneFMOaCx0f6koStAkhHM9hYx8SL8cY1gWlISNbFEl1FL2agDvQGqo1o3rix2WvkTu32tQZGTZYlmCh6rM4VSzRVgQ1RkEbLNSUMAz/zIHje/hJ1UykxSLStVbzQBGFlgWTEzmqILWjM/9+/lpYACeeYw3QO1X3OHe2E8BIXIWMFIETCpE1DGNtf5yx1MgZem6/qZfC+T72IKnP1WtbxYI3iQpI7ntqER0h4dnuJMOKixEfGUad4dzHLAmMO4gSeztrkumHOIyapiM+t0MOpaG0qtHVfVI7PiludbDrhlHgkC5jERFfDAO1QbMMGbJi/JsoLAsiJIddl/ahb/+WrdubNLmUkwhstMrGWy6wGM7CZQINn17LSahBVNKw8G6wjiwdhTE2ePMNkibqF9F7wPiOsRoiDAI4jxl7WC6TkbCwntASafA0gKAY8ey+wPfemo5YIiTa+i6hMAORbq7Sf5S+9pbEQ8XjrQgzHYLX5MdjWKV6+r6Tq1hJlYw2TWQ5vYwExoYDJAb1y0oGzdry6fLElYEJGAFMiDOn5noiO6EEmA88Dbn7gE9EZJYMQ6h25qfZsvXg940MZm1+gmV8TNK83Z1npQRFK4t3ZktkXcRvsuTFEEFwgaIoqNJxO2u7rktQIYeRIMgkGWrieq0JX4cusXzT4OBr1Cnr2aoNsZCtvP99fa09iIeJ6qC05wUEFORFbubLhw8UF2UgUzsZ7JbGAmNgIbmfVMRn3XiWUPvuM/4OZFWnNHwpJMZBTSG8fsTmoRg9CrnyoADuEyTlqwK3Du/GYmp46OU6lgUKWRVd0lu6LbpIMXLyp58YDfI8J8VnWAKuKij7cbBkPdETHZWs31fMIBiev5NJGkIAB4FHjOX2Vf8qvDDcm5GhshkWpsRPQtcMUxryCvgmoE/K8X9p47cz+TU8NMaGxnY2ITM6EmbuaeV0oCTlEES4nIMrAhod/WG6EqOOpgq5ppe5CTH90d6LFQZaNdaYBBlVUflVXTNaeyx5TSO15s+rVFEmWEqKkTcdGd3YWZUlhpCcpXvubpWuSlqkOmqiPAFAS6LfXc/qG9WsAinUFyTL47e7a/wuc0NiKeYogN7FXwd62idel/u0wpAbs/sxk0xsRGJrOJyWyIyjx00/qyEg/Pw0AQRKABDwLVoY5jU0X0NviUGpxw8Pj1asG8ydNlQQuTU89MOpyNifW6iYBHt0lVvWZV5n0dbA1AOTbqdkRcdqd3ZUXxi2TZ7sD5j7shfxGyD9X8RU5XELhwffNXDgzue2Sso9Nf/tf7oMZG+JliAsEyJCjIjdCL/3X2m/crO7mSyWphJrbSQdUWJquVyaroOXtP/heNTUFJJBhqC9KaHW3FO1Q6YBv+3qN2VEseyUTeY+f+vd1z3jJ3l8UOZlYLM60JCAFno4EO5tazWXW6rFpddnWXyRUpK6rfL/H5ZXDogcNQJEOlrG173Bl8iCh+iXxSJSU/64oqVuc8qcm5ElPAx6y0F/4a8GIsUQ/lqMs+4w5obIQfOSFQzUkWFLkxIM76qOHcWfuYyfVstl03yc5MamEm2ZlsBzu1fHDR3rcOej0SkhUY8aVDO6FtOxm/wYZEiNzKCcu+dw9Y7e6a79PleZmFHmauk5nSGOF11FEHvZbNrmFzys+ate+fr9aUuASOyBLoKJos0l5QJ1RZJ3w/R+8QhXCI7LFJd27xnl0UgImBeUFIIclFTK547pOu2z5wNkow6ts2HKZWwzr6m86IIxob4ccM0Q1JkYOK/IuNv21jTbdppczkJl2OI2qKk51iYyY7mBxnlxnlNzxf+VOLwNE0EFAXoDxCrdNsyB5R3lIWtG6wd8l1s4uC7OIgu5hjF/nZmdTxyKkBPweySNRWA8lXUw7ELTiwarfLKSIIpxxFRShbJXxDHe2IGDf45IU7gz2XeWE2ObAhsJCcK+iWugY97zjoF8NsUEKOowA7OsFf6JjGRvvDJASJiuxT5A8rOPNTVVHTKnVT7FGTnF2mOHVT7aA3JjnOmVub82FjQxCJMAiLIIDe1sD1iPhp/94j94iI0F6bmLHVe+4SR5cCf5d8qWu+HJUnM4t53VwHO6WGmVSjBssh+xDwqGFyKpjJJVFT9t30XN3PLaIUKsEGduAR7cizHfY7kTD2COj1Q/yAlZ4omBXIUTYkJo9ni92xa+yft/BSWxhFY+Mw4Z3BvxBMEK9ITiyv+jnQe3EtO6NJN9Wlm+qLmu6Jmu5gpjiZqa3Ri+vW/ujyICJCgRwEZWbbWifZIIrSEsAv7xf6rfRG5bvOWsJ3LybdinCXQpnND3bJd/ZcUNd1WhUzuQrSELNrQwokh6qOyQfPe/Rg9nstTk6mHoYa1sOQj0vbccrA0ScL+TBBGX/XKCQ/6+xS4GLzOCZXZMEj59kib6+V9k3lfj9CtOKJallpeuMMZiJ06zSLilPkZlme86Wvx1wbM7OVnenWTQ/opnvZ6S52ujNqZsPgJ6o/qQwEMIHxHLXKk8oGkjvDBlEUTia76vGol/zdCjxdCz3dlghdl+AuxbJuCddlqSf1ldb5PwTTn66PmlnCTK5kcmrYnDomp5ZGP2qYSeXslIMXF5ZuPSR6eFrTihaSkxUiKeAsUR/9mOlWoGEULGBc4ZbHvmbvVmRnQW+IQEgexxT6zn3SmfuT2ybDmgWqyxFZE+hM6yOaTdX2xNvYqJWkh7d6us61s7Md7CwvMzPIzvRFzfREzXT0eLRh7PN1ex2Io/XSZUi9OjG9IWOlxqvM+lw8p9DHLvJ1KQxEFfFRS4SopXzUUn/PVf6FP/oO8qRglzd6YQk7pZKZVEvZqGsjpIqZXNZl+v5ZH7ltAajYI7XVCqHZKL/BBuUIrrg5iO99t6l7kY3N48GmygvQyYBc16WuBz6z1wh0jCGEh6Y32nrImfsvZSOoyAeC4i1vubuobMyOYGOW89x59RPft9UFMUdTXCPZAHccTP/2n6MliRXi5Mn7ZWjgigC70BeV748qCOoKObaYY4s8XZY6R7xq3+vFPoXsd6Gxz1d3n17J5NSy0OqYHIpHdh0YWpPL4ufu2fCDy8XDeGtbKR0YSDi+3qBZirA8iF/EGZ80nFXcBGyAQRWADKsCji10XbmleV+wfahK0xtHP8cz7wiwgQME/eARr3jBHjXfpZvj1M3x6WZzutmBqDnernNc5y1syNvpaRaVk2CDKJhDeK8d3fl2sMtiL7PIx+YHWOiOAbbYqyu2X/Ssc+WegEME8GwS2fBf90ULK3U51Sw0ICQCj6pz5uy/7umKnxtEHoq9hRIZJUWSQ3V1j/X4IMEK05Hc+V/bzlnSxOYFKB5qWUROV+wybmr8zC1JYH2p1XI1vXEsYZ4xxyFWjbGfyF/a+ITVrVEL/Lp5Pt1cv24uD21eQDffdX5+/dr9gk0mPNhUMJUPBnJpg52Icp1UbGCyq9npiGanVwT4gt3unsvszGIfraoG0Te2yMcU2c95wv7QJ559Li4A6e5QH7rczeW844p/rCYqp1KXU6XLro7KrovKrtdBWLCOzak4e0bpom3OBj+SoMS6LCkibRIdge3gsakajc5AhJzclb/4ei9r0UE1RD8YVLlBJp9nC92D17V8WBuUMF1RB8wqjY0OhHlmHYLoBkE+gt6t5/s/0apbGGQX+NkFAXa+wM4XmAVBdqHrgqL6TVWynyg8fVXDoFCYDXjLHtGNQmxICtR7bhbld6qDCWvs7MJWZpGXyQ1Ad8wLMAXuqOLWhOcd71VxLlmWMNgzMpFdvPh1tTT8yZpuk0p02eVROVXARlZjVFYjTJoFH730koLydw8GfQhLiigSQVJgObPjswG3qSgBgl8+5L9oeXNUrp2ywQMeeQJb6L7smZZ3ygQR6mNpeuPMQuCYdwtRcYLdWN5UzvUqamEWBmCi9gKOmS8w80VmAccudPcqani3CQeJIgATEFuIUBpHjw6pbMCiGW6MvneJ92zxd1vgZOY7mVxfGxt+psAVt8I+8TNffVAUYAYr9EhMkCDLNg6t/9bTb15p1KSSNjaaorKaQXXAkG5512mH/vFyw16bxBEsKRIdqjoeG2ouCFKUIMEf1AYuf7JZl2tn80Nlp2EYt8A1YE3zxr1cUIL0GS2+cczuckb9QWXDjuUVe4Nn5zbrFgRYYCPILhDZBSKzkNctcsUuafjCRaizAcGQdjY6UBqKOk0D0wVlqjn06LdSryIfO9+rW+SnYATo1t+12H3VZtdHNUE/Ub0FtUdiGcsBJB9s4e5/qbbblENROZVUbzRFZbXosptgSHdSJTOpLG5+6bIdrmYOJhJSywrUTofZXHCQLjmFFSWo4B2tQdPqFsqGv62eNLDRZ2Xz2p8DPgHJIZfjCGV4BnUKbQw39LAJlB2Q7Ugu/gkyxrss9OugcboFom6BpFvIRy1yxy5r3OWFpS5hhKpNaYDqALv86B/IKUQKdstoa52c9AKvy/Wzi2lt81yw72k6k7vfamfe976agMATePG3ecCQ3sshwc5zL//kSsgvi5pU3sZGsy6rhclpgNj5pMqoKaWWJ2o/KRP8UP4Hhq1UNo7GQ2UD0uNhBU38oytgeaYlKs9Ga7CrNhXPFrj1K5qf+D7gFaDQOr0YjY2jn+wZdoQQImJkR+jxX4JnLWrRLfBF+BsiCzaVK7a44VuvIoBnAulMdNAWomlHswFmPaztjTiEdjSLN73DdSuG+muwMEA+R9fKCHQpCvQotN/+tn1HE+9GEg/OdHv6ICayRDifxFU5+flbbd2nHdTlVERlN+iym3VZrUxOEzMphMfZM8v/87qtwkWEUDS743HkEC00wZ1TyA8uPvWZFl1uK5tPa+aC88OzBR79iuZlu1U21FvT2DjDSDj6dlU2HFhevS94Tl4rO8/HzPcz8wPMPJ6ZJzDzg8wCZ2xhw7c+qLEZZqNNaXTQgTAmflGu9svzvg3oV3pgYCo/wBTyTAFH52rzXYoDf1tnX7/f08CLnCLzkAKsTpAKpUhhRRKw6OblnZVBy7KKrpMPRWVXR2U1AhvZzcykRnZSI4TMJ1X1XVj5/I+cC/yVY67RHGYDgd4gu+xc8toW3WIbm++DBZ/AFwe90WdV88ofAz5RomvJauNUR/eUM+8I2FQYubD07CHugkIbM89/NBsxRY3f+oio5mqoNlVHSkMVHlGwjZM3l/KpmzxRRU4WwOCYIp4poC0/eMHKwISvvHu94GkIisQrkgB5HxgWN6PODFQIITggoQav+PQ3Dv1jh6JyynXZjWxWC7CR08zkNNJW23Vq5bAVdd/XyzwtpNiuOOhe+GGqx2WFgL9hE0xrmtlFNgizwPxYDsapCjz9VjU/84vqi6v6sAPsw1/4197R/I3Q8wVfHCMPRhvL+J5L7MwCP7OAYxYEmfk8tAUcs9ATU9z4tQ+rbKgFmtuSjtq/JGzoCwjvrJdv3uI963EnU+SFEuiFHFMYpC3AFAaML3Jv1AWdmBdp8RHqSSNa4SqsNyA8ImHEyVKJjbtvU33XKaVsdhWbTZGY1AhFekB1gF9+zqyymR85GgJEkmVEf9RSOmFOFFpXgcY3SJCg7S0oYY2NXeSENHXQG3SFtEJX/9Utz+8JwjgVnTd+1MD0XxuHw+5OY6NdHBJGbiS/Xsn3WulgFgeYRUFoCzlmocAsEtjF/uinnG80ST7wBKByAoYxUXi5hmpt0rFXWDdcwRijg04y5Qsx5kk7U+RmCv2UDT8DK2n4mELveU94Jn8ZrAxAuSpa/hzC1UeEJtTvRwRJWPJL8lv7AwNyS5mcUmZyNTOpls6hbYBptNBq2SllfReWvfxrwMUjQZZUPg6vNIVhEIFeMI/lTYe4Cx+3MYv8bL4IqgxMPn9UkduwzvFRVSAAFUzp1MJ28Zxxexob7Y9cJtiP5c+ahMEbPWxBAOoMQAo3x+TyzGKBzQ2cv9z52K8ePyxqLMNrnk5rguo2dLgT0cJTPIZ08aaAvHw/Hvi0O6rYRYuWQ71yGiEAACAASURBVL2CEBhFnqglnqs3+75rkWk1RCgU2n4REXvAGJhVdKYuwbV+NOdj27kzDzJTSiGDfVIdEALbOsBjcnXUjPJRq+u218gOGXFIkqHadYgOqj0QIpJMk+u9opD3na9noY1ZTA2qQh6GBwp8XZe4h7/k+qGV4zAszAlDXhHXc6btamy0P3Ew7on8i1u4/h13lyIJloMBQ5xn8kU2X2Lygl2K3Fe/4yv1Ix5yNGBiKswXhwa6AilEBJcaNQloY4lgfYXrtsTFFPjoK5laU0UBUBpF3v5rfKt+Fewi5LXL0P867oFQcYF+uUxkkch+jH9o4q98urLL9IPMlEpmch1tVG9MrmOmNLJTq7rPLLvr1eZvbJJblkRZQijSvoJ6KAIRsSJVeLj732/pntvM5gZ1oDfo0FmB76yl7pve8lR5eTG03E3HF9Yusr/0nsZG++NFBAUJKg9ID3/m77pUZIpEWEYsX2DyJdgp4HSF3oue8Wwo44MYYhHUTwCLiM4rgiKCooJdGL1dK169xXPWMicUDoSVWoP0rQxgsEWes5Z5HtoarPRiOuTaKTYwdUh4ItlE6ZkfnAPzD+omV6lgsFMamSkNzJQG3dRmdmoTM636/AXlWdtse9xyUATVgWBJWCioLhNZwCKPRAGLW6vdSc/WReW1srCAgUiHlTm2wH/+E54Ht3pbOUFUACFNb7R3jjN7D3IHeQXVC1Luj8EeywJMkcQUirSCE11rrwDe/T2WBW7/wLPXyXNE5AiMsUrQoCBngOBWTD5qwTe/7z53hYMtpmVnYWoEzXKFEmnurktahm1ybK+W/OqMb/Axjk7ECj+H9rqEmColLxZKPdLUj2znP1rCTK1iptSzU5rZqS3M1BZmWjNtjeyMmj7F1Y9+5dzjkL0SChKZh/mMoOt4LHFY3ucWHvqk8dyiVnaxl83lmVyY9MfkB9kCr35ZQ9EPQY8siwCGfCyFFr6+v/aOpjfCzxdMI16B0PjmSn7AMw5dMc8Whd6pYHVA45nCYO81joxPPT/Z+CZOFLAgED5IZBdSakSyvly8+j3u7CdcTGGgrR4znRoB1rw3qqj14rWNa37yu6C2phpaV4s/d8p0gSx3RfRg6SebfOsLNd1nlDBTa9mpLew0OzPNxkxvZaa1MtNamOlN7Ozqvkurcz51fNnE1wmSG0s+LHmxZEfyHreQtdPde5Vdt9jHLAY/ilkswvSm/EC3Itfly0u3NwJLMizg/FslqcOS+4vuaGyEHyx4Drwiu7H8vVP8+/uO7ktdrLpsMRTlp0GJQoEp4NlCzwVPOW59z7diL7ejOfh1a+CzFuG5CnnWj+Kgjc6uyzwQ/M5VkfDTqsxQsVxX6Oz5REPWNmedh9ZBUNmgaxqEr+C3dmAgi1NEF5LfPOBLWFrRZUaVbloTO93OTLdBm2YDPKa3MjMb2UerY5dU/uNt28qf/R/Vctvq+a2N0voS7v8+dsUsq4ta7GAXBZjFIm0Ck8uxBb7ox523v1RdxcE6IeiMVxqKomhshDskOL6CgrxEruKlZT/beq+s0hX7Q6t6g8bgwcSCHY4p9EctcZ+/svWidS1/W9864Bln7Frvuat8uiVeFQyw4/PpUn2w9bEFru5Lmq/b3Lq7UYTRHwAD8kNoPYQOc7HCVxW5A+oFKTKniNV+qWinq8/iqi7T63XTW9gZNnZGGyHT7cysVmZ2Ezu3usf8Bn1hS8Jqh+lpx6C1rvhlzWfl1rMLmrvkBnS5nKo0AI9cLqrQdckax/LvvX5MpJCncbwaW5GX9Vfd19gIP1mIVMjU5XBj+YsG51Ub93Vf1gqqo5AaVMCGQFto0Ikt8LKw4KqTKXBDsf4iPyz7otYlyKOphJCO4dHleboX2k3rG1/azwdgzSVa8g3Y6CCmEb6aY+1AWVsFe7G8z4XHvWU//9Eq3YxGdkarboY9pEBmqmw0M4+2Mo/RNq+VXWBj5tuZx+zMXAcz38Uu9NHQjcgsEplFArM4cFahY/Sm1u9dWISJtRJdd5aWlT/GGNqxLu+vdFxjo/1pqmVqZYIljBoEMW93w8C19bolAaaYwgC+ON0BQmCfLQrqCgNtLagr4NgCgc3n2HyBzedh4clcd1Suo2teq2Ft87o9vE1Q8xMxzSiEwIU6W6P9Cjq3p+LhksnORnTfq7YL5lRFzWgCvTHDwcy0MbNpm2Nj5tiZuS5mnps2D2zne2nzMPNpthhk4PPsAl63yB3/VPOCH/w2BOvYEGBDVhf0PDqNsnPX+Ff4lMZG+1MMp1cQArNev3ajuz7xnP24ky0KAh6gQIKgGQrFkH1VKLCFvK5A0BWoW5HuC7oCASaCF/i7F3u6FDj+tsZevNvbIsKsbgSZKbQWIqzzJKmFP9qvoNN7RFFEBdlEtK1Kvn1j07mzypkZDcxMBzPLxsyyM7PtzBwH86iDeczJzHUz87zMvDYeIIGStgV+3QJ/1EJ/10X+swvdN37IfeUBZ4ayIVI8JHqFZ65HrrHR3h8j2UCYODHa0oxufN937nIPW6RWA1FVxxFsHIGHyBaKbJHIFvt1xa4L1zkf2+U95BVUMOhixzA3A9N380mzAclRCuGJ3CTg98ul2zY2nzOnkpnZQNmwHcbGPA8zN8xGEBKKoQWYBV7dInfXxe7ueR7jet/rTdiGkaQICBoEN1TtQUuTtIvojNrT2Gh/3JFsYAxJe62SvKVBuOk91znLHCHVASNXAlUdIlMosqA6BLZAhFbIs6BSVIsr0HWp76L13vnfBaqCgp+IEB8MawwiQ1VEBbanYrTALCWMGjn8XoV0y8bGHnPKmdnNoDfmUDw60BsBoAKaj1nkYvLs3Qodg552Lf3Bb5exQEQZi4hICK5WZUM6lctrl+z/n3saGx0/N4yxLMuiLDsl+dMm+d6PuF6rAlATRB19gmxzAQLnoSbRILoASVN0VKrHMlvai55n9ggVPtmLRKiOQ9MTUShJUR2mon7HSTm7akCEFjEhPMGtPPqyXsr82Bf/REvUvCbm0RZmjo191N5mU6kGlZed72YWuJgFbmahm8m1n1XcMuYN5+byQH1QkMKriNCFREIlVCAxsVOxl46F+P/5UY2NYzxAGMCEhCYZYZ9M9rlJ0S/yVW9w0Ss83QttXQocbIEbVgZra2xBQFfo7VpgP39prfXFhqm7/F/V49YgEWCdJYm+jyF1949gAylYIsgno1KX9Nze4L1vuy9ebeue28LOa6W+uAf8b3DEHczCJja3vmt+w9kFjYOetS/4zr+jha8XpSAsPQUZjVAUHkIuFFqtlsIxuoZ2OPS+hEEhQoKE1HL4wzpp3nfC3VtsqU/b+q9u1j/VGPtkU7jFr2y4+T3nY7vsb1b4DnhxgIbQYGYskhCWwmBQZ+NU9Qb1N0LzqtRkR5oFLNs48afmwIt7vJlbHSnrWuKWNkYX1vXKr+2VXxOdV6XPLx/wVPUNrzQv+MK3pUwo8Up2SaZpxUCXCobGRrjra3ojLIojd8LZRHTtYhhw5RBp5slel/Rpg/BGlX9jmee5Eu8G2p4r8Txf6vuyVa7ikFsmAlanZRCEEWVDVlPN1a36Yg69nk/WaKE1Q+A/E5qUpZ5QIojHyCOhmoD8RZO48SD/7F5u/Z7g+j3BDf8NvLHX/2l58L+NYoMb+XhwL4BaHB46UwfQNL0R6gkaG0ci0fb7YVHh8Gw+TIdvgkjxycQjE7eouEXYuqCB9cUhwiMYCpXaskKoxoAgeIctTGDbeTv7r6rX6FZdW1OdYgV5JTBbkJAAwh4ReUTklZBXwj4R86rfA2sj0JURQvMLQ7VJ2paxVb8Bvo06G5q/0dknon3ueBJQR7roxD+Y8QQpIdDxoB3vv/0Zf4sclAuT/2dcyOl7Tk1vnL7PRruyP1cCGht/rvy1s5++EtDYOH2fjXZlf64ENDb+XPlrZz99JaCxcfo+G+3K/lwJaGz8ufLXzn76SkBj4/R9NtqV/bkS0Nj4c+Wvnf30lYDGxun7bLQr+3MloLHx58pfO/vpKwGNjdP32WhX9udKQGPjz5W/dvbTVwIaG6fvs9Gu7M+VgMbGnyt/7eynrwQ0Nk7fZ6Nd2Z8rAY2NP1f+2tlPXwmcdmyEp3qqU6JPtzlBdAni0/dxalcW7jAEVpxT5wzD/OSgRHwicfHEI5BAW8XfY4lL/ZI/mY22GwjdhjpFjtCiSHQbvtNj3cX/9DjGtLjzYbNl/6cXoJ3sNyWgzjEmCsBQ58UflKOFO6X73pNu2Cxe/aow/EVh1Evida+Jd2wRp38mbdqHKlzYL0KR4qN//kw2VAYwlM5TFyQObdvqA8CE5dPnByoqQNEQWELv9Lkq7UqOkABRFBdPPizHOdvFQc8IPZfz3Yp5Vl0iArZt66gU8FFF/HnL+IvXCP9+X9pSghzByKnLwAqwAcsHyzLHcYEgFwgGD28cL4jo9+4NCCGO4/3BoC8Q8AYDnojm44KiLMFs5v9VST2MsSRJHM/T21eFcMQWZMLxvEyXJz5pNjDGgigGgoGwhP3B4GEtEOQ4OMspTuAmhCCEeF4Ihh5o+HbUhwtPOchxoiSd9L2oPRITIoqiPxD0+v2Rzefze32hI0GOkxHq6L18RK8+1V8JUYKS8lUNvudt6fzHBV14KXd1WYgQGCoe4S3ssIXcecuEm14XPqtGnNw+tZ9R5VhTU7v59TfWrN+wYv3zT6lt3can1j2/Yv0Lr7/7gcPp7ljrnPjtqFP4nS7XC5teWfXshpUbnlu14bmVdGflhudWPvfc2ueeP1RRDq/nNsvqxE9yYv8DIVTf0PD6li2rn9t4zLbhhedeesXp9siyfNL9SZKlz778YtXTa1ese/apZzY8ue6w9tS6DcvXrnv2xU0//vIrLwingAfI2OVyfbT146ef27jq2RdWbXhh5YYXVj6rto0rnt301PoXVq9/7vOvdjgdDrXC0ImJjH4aExzguK93f79y/Yalq9c+vvrpiLbm8dW0rVn73Msvl5SXCRJ93/1hiCCi2Dny6JfSuct4FtaECKsIVVG0q4uIP9H1hkKaBAg5d5mwaKfsFUKdnYEXjCh99fWuG275e9KQKwYPu+ryoVeH22VDrrz2jn8eLK+SkHQS4jv6v6hs1DY0XnvLHZeZh1xmGXqZddglliGXpw27xDzkMutQY/rwL3d9K0mSysbR3/D7HiGKwkvy9i++HHHd9ZcPHXH50NFHt8uGjr5s6Mj0q8f+uGfPydpUoK+DAj9r3mODzKmDhgy/bMioo9ulacOTrxi1oKjY4fEghFRZhbeduXHV8JNled/BA2Nvu2NQ+hWXpo28JG3UJWmjLrKMuMg6YmDaiIHWERdaR11qHjpx8rSa+npwocCPav/pzIkURZERLq+umT5vgWH4CMPIUYYRow0jrqLb0QkjaBs5OmHk6PTrb5hXWOzyBULrqP8BeCCs2INkzMuSrjCsEMJ4RB4JHwwDcyRCUUXc+K2iT4SijoyMUFCQt+/YNWrsLRcmWvsmDo1PHB5qScPik4YPu+nuPSWVgih2UmTH/5j6EGoam0Zcf3MfY2ofk7lforWPKbVfoqW3MbVvovniZMunO78WJDHslx//C0/lr2rNwnq7Y+nqtRclW3obzfrEtDgTNL3RGm6xRmus0TLAckXR48tlBO+/kzgpVhQ/z02cMb1fQkLsoMTowSnRg1MPbym9LjP1Tki6+6FxFbX1J80GIcTt8Wx87bUByckXXGboOSilV4Il1pgWa0zTt7VYY1p8Quq/J+RU1dUjugh5OxmduzsQHcYffPLpNbfd1duUpDcm6g3JekOK3mBWW4zRHG009zKaY4yp1931z7L6BpGuVtW5rz8BAROi1HrxsI20Sre6JmNoG1YLYQAiOREifI8wKrCjK+QmbZd8ImEkhAMi+mTH7qHX3to3wRJnSI81DGlr6TGG9CHX37GnpFwQf0+9Ud3YNPT6G+NMKXGJqfFJZr0pJbwdmGzetmMHJwhqcaeT6YadFiwoDYS+/vmXW/71QO+ExF6XJ15weZLaeg5KPqLFGi1/f+A//oDv5GwqpCg+ns+eNetCE+1DlLdYoyWy6RNS9INNSaPHvPb224IIZlXkT2duS/18eUXl/ePH9UownD/I1GtwaozBqjem603psaZ02KEt3mD9v8xJlcDGEWqjUyInCvFxfO7SJwalD+ttSopJMMUmJMYOTokdnBo72BIz2NwrwdzTYL7AaI42WdKuu3nL1u0iFFCkA6uduZNOf8bFK+O3SnRtrTAMh/X1SCOKLVD9cg6WjW5HKPLz8CXdirnXD8qMjHBAQh8DG3/vk5AWZ0iPMabHAiFqS0u/4Y49peWC9PvoDfXh1TQ0DrvhphhTSkxiamyiOcaUGpuY2suYFJuY2j/J/MlXXwV5jrLR7hh1WlYn8EGiKF5efPGttwcPvaJvkiXGYI4xWmIMqdEGM+wf3mKNlsGjrj1UXqV2pRM4Df0ognPxWTPnXmg06w2pkUio+zFGCxwflNjbkDJx5mMOh/OIPtuZM6ri/WrH10lXjOhpMF2QkBSdYI41pIXZiDWl0ZYeb7T8X9bkyroGWFrtBG0qsNwI2XOw9K4HHhqYmBpvTKZKI1mfkKpPsOgTLDEGa7TB2sto7WlKi05Ku2zYqPlFy0SEf3c2EFZe2if3WBrWDKrVpEISQiXuKf6WN8Rlu+V3StEXtfjjSrx8N7r9LVH/JM+GbLBINkLfcNFqgUEI+yX8yc4f0q/9e3yCVW8E2enVZkyLNViH3HDH3rIKCcmdeTad+QwhpK6hYdSNN8eYUqONqXRrjjZaehnNvQzmvomp277ayQmCGrjpzBee9GdkojS6XDlz512cmjYgdWhsYlpsYpo+CbYxJmu46U2WeJOlt9HSP2VI8dp1QV7s1Kv18MsCvSHw2TPmDjRa4gwWgNBoiTHBNpITfUKy/vLE0bfds/dQqSwf5nIc/n2H/RY284hCZIyWPP7EJZb0GGNKNDVs6ImssSZrbGJ7izNZ7584paK+AdTGCbJBnQ30wbbPRo69uX+SOS4xRW9MiTWaw5DHGNNijGnRprReprSYRGu/5LS7HhxXVl0vwBKHCrWWQ1G5w27jxH9p8pO05wXqfId9CbpqKfWwez3BZ34s1/twQIQlRVSHR8ZQkTUoKXVecvfbUo8lIZBY+l/aDC0uqohjEMachLbt/D792lvjDFa9CYSop43erXnIDbftK6+U0O+2tpXKxlW33BaTaAk/vGj1TZNg6W2ybNv5DS+K/4OlHzhEfjpUcvWdd19kTo9PGRKdaFVbTKI1xmSJNtG+a4K+G2cy9zFZ402W2x8eX9fcGu6LnX+amBCfwGfNfGwAhSEExtFsGFJjLzNdYh3+zmc7Ahx3ojYVxtjj9V578639U629TWY9/X4gkLZINvQny4a66IcvGFy+9pmEoaPiky1xSamxxsM0ocpG29aqT0hNumLMWx9tC8oYUTZ+r6SHjXvROcvoW7/dCw+pi9gn+Q/L0bHieoqiYAKRkNlfSGcVh9VOeId+J2VD3r5z95Brb41LsKhUtLEB3WLIDbfvK6+kN9X5nnC8T4bYuPk26H+hFxuoYNDCCZb4RMt2YCOkN07iDX28c0f8jSiKwx9Yv/kN4xWjB5qHxCWlhdmIPpINc5zB3NtkiU1IMY+9ZetXO1VHOeLLfnsXfHGBnzjzsf4Utvb+erjeiDVa9IOTeyekzsgrbrQ7IsePfvscioIQ2vXdt5earXGJKfEmeJqxVAEeoTRiE+H1dxJ6A1xwhUgKrm5ouPc/4/okW/VJlphEc8zh7lMbFaA9YozW6MuTLkodumj5ynq7E5aghSU+YODuFB8uLyv/+VDUhUZsw342sNFjKffqAcTJxz8DXECdl1A/PmyMRdhXEJCS5G07vwU2DP9jNmAoIxqsi3Y24hItn+3YxUv8H21TYUUpr2/ImDnnIsuQvilgUIXZUPVGRPc1642p8UZzvNF88ZBRS9c+C/GHE3SFiKIEeH7izLn9TGnhb46hnETaVLBvSNUPShp5610/HjgEUbO2n86wIUnSEytX9oEXeXI86I12IypSaZwiG36R3/LxVvM1Y/VJ1pgka7QpLdqYDlS3ERLJRrTR2uuyxL4m6z2PZO2tqBJh/dlTZwM6vZ1T0l4QqKsd+b4HNizPCa3BEBjH50NCZPMB1A1UR+SXUEIoG9L2nbvSr71ZT22qsOpQn9kfqDdCNtWRbHy6YxcvCn9oYgZEPAn+4rvvR916+wDzsPikdD3VGzGJVn1SWt/UoYYrrx+YNlJPFUis0awHB9ocZ7T0SR7yj6wp9U1NJzFaFeCFiTPn9jWltxtUR7GhN1j0BnPsoOS/Wa944c13I82q47MBaQSEOFyuBzImxCSm6E3mkN6I8DEi8QjpjboT8zcghUIhLR7X1PnzLkkbBvJJTIs2pceYgI34xLRLh49JGDVWnzikHQ8DsKEfnGy95ub3v/iaR+rSUKeqN4ii1PvIwFUd9ekC/qkfZL7NQT4+G4qi7G3FPZerjEUojQKOUdn4dOc3x2cD/e7+xs1hf+NwNpKs1KYCf/ePUx0SwgJGaze9ZBw5pndyelxSeix1NmIT0+KT0pOuvmnxmg23/DtjgGVYrMkCjVo+epM1zpRmvu6WbTu+luQ22R+/z0b81Q9647E+0JPMVHXA9gilEW+wgGU7OLVvonXcjLlNrXbwbajqiPimDnYxIQKSt376efrYsb0Sk0HLHYMKlRCVjcoTZAPD2s1kb3nlVbfc1j8pNOQVC7Rb9UbLgOT0CXMW5a56dkDq8BijNYSHwRozKCV2UMol6aNyFhU6/AEZw1rSp25T1XqVa14V014QIlv683Bkn/0E0lSqPbjPinC4IwIPjLEoiZ/u/Pq0YSMtzMapi6+DTkQPSZg4fNykxxb+LX1EXGKavs2gghEqg/m6fz38zaHKuUufSr7y2hhjaEhX7cRxprR+KUMKVz/tDwSO9eXHOh7gucxZj/YxDTmOTaU3wCiW3mCJN1qH33znz/sOdjK9CivEE+Byix8fYLFGU2cj3mSJVBRH7J8cG0ghQYxf+/Djy9JHxBst6nBwjCk92mCNuTzZMGT0pjc+2PXLIctVN+hNITZijVZ9gjk2wRxvtBpGjz1YVSshGIBDp+xvyFjhZcLJSkSDX4OyckIDR9Ue3PsYbCBREoCN6246jk31P9QbITbUwb5j9bOTPq7qIgmT7/978Pp/PNA3dWhcYlpsmyMeY7LqE9NyFhWXuwLvfLbjyr/foTel9kpIjU5IVcMd1HKw3vFwZqsNMpFO5DJwgOczZz3a2zQE3qkh1XGk3gizEWe0XjZ8zNMvvgoQgt44no0JLjJCByur73ngP7GJSXpTam+TJS7pmM5G2N84Ub2BiOLmpUemz+mXNCQOQiUQTwS9YbDGXp50/e33ffP9r9V1zROnzu2bFDKrYg1WMBQTzPoE8wDLFa9/tF2QBJngU2fjRIR/vM/uaSW9lndkm2GMJEnY/r9lo76h4apj2lTpn3y9ixdDNtXx7ukU/hYQ5Rc2v2MceU08VRqxYDdboxMt0SbzZVeMWf3a242cVGt3PDx52kWWodEJKTEJoVBgrMESn2gdNPLqA2UVJ2hW4QDPTZj1aLxqix/Ohgqe3miNo3pD3fZNGvKP8Tm1DeDb/AYbhIiS/OmOb1KvuDLakBhHnY2QoqBDVUcojZNmQ8b4x4PlQ6+/rQ+kn6SHnYpog2VgUnrW9Mdq6pt8PuHDrZ8nDB0dS6Mc4KNTTag3WHonD51VuNwfDIpIPmk2jvtCgj/SDxz3UxE9BxGypQTRRCy+LVjeZlZRmyqkN2IN7cENGOKAILFZ9cV/X71RX19/5S23t8U3DvM39InWj7/ezdFcw87eX8StdmYXRu5aWqfPzx+YOpxaSmqYzxJL3Ylr/vHQvkabUxA9HL/pzbcSR14ZZzLHQCRbbRDh6mce9sSzz7u83hO5wjAbQ2lU0aJuo8GfscYnpvW8LCnOaI1rCy6Bb2O0pl136ydf7JCRfHwVRQjx+P2Pr1hzYaK51+DkGENK29WmxBpTYgwpMSbzEXichE2FFRKQpOdef/eStJFxtN+rbEQbrTEJZuOwMS+88rqMkYyV0tKKG+/+F3hWNI8LsrkMkNAVZxoy9r6HSquqeEk8aTY684gjPxOBCiyMGAEP2BCVLjRso+pshMep2qKHpyEbWykbJ9LtIkXx2/sIk1/2l1xz2719kmB0Jdz0JmsfU9qs4hVuUFuEk+Uf9+wd8/fb+ySa27paCI/eyUOuvuf+Q2UVGIYoOjlkEMlGKBgXY7REGy1xSemDR4+9dNiYOIM1NjyMbgQ2Lkkb9dS6538zZR1hXNfccsd9/9fLkARaro2N3slpSdfeONA6HDycw13zk2BDJri21T5lQUFvuDbo92pUKtpgiTWYR9x0+7e/7JVhAJA0NtkmzZg7IHlIiAoKhoqHYdTY5WvW+YJBGXc42e63H9/JfqKDDuXgyOTtclcYwG0bp4JoCcQ6YFT3NGRD1Rtqj+vghk5WNuH/F+ClTW+9f1naSFU3qmzojZbeBuulaaO3fPYNTC9SFJGQ2qamBydm90+y6E1AhR4iBpD9FZ+YdvkVY17Y/FaQ4yITLsKn6GjnWGyYeycPueofD06YV3CRdSQk/7apjjhT2kDzFdlzFrba7B19YfuxoCB99e0Pg68Y1dOQGMY4xphqvPqGKUXLh9x61++iNyTIy/zv1Xf9qzckL4bBsPYyWPokpz84aXqD3S0TIimKL8C/8OLmQekjYwwWyGI2UL1Bt/Gm9Lsfzqypq5MxCkc22+/kj9xrmy4LfUrGSpmTjH1NPAtyRiIDfyHtcc0rwunIxradYFP9QWxgQupbXfc9nB13eMJffIJlYNLQETfeeai6QURYIrAMsS8YWPv8xr9Z0mMTKRhGYAM6n8kybhZ98AAAIABJREFUwDoiY858J51oEU5JOu6T7ZiNXgZz75Sht2dMeX/XL1ff+2AkG3qTtX/qsCv/fu8nn31JYK5Xxz+YkFanK7f48d6pafqEsDUFGY23Z+Rs2fntDQ+O65M65NRtKl4UVz+/6dK0UfFGa6yJZkypQVuj9W9DRxWtWufnZYko8FpB+Mcf94264XaqCcGaCuPRa1DKkOtv++a73TDr8ETCmh3f/HGPYkL8IrEFQ601SJr8pNyF3ziIrn9N7LOC715MtUR+2JoKQTLoaaHajU87NuISrdt2fseJ7Wx00mQ5rpRCf4TQFcZf7f7ZkD5aT+O46iSNOKM1PsFyiWXkxJnzfZwoyJBjJiDMy+jbH3++5s679cBGSG9QNuBlP+qufx2sqpZgJqC6YPLxldwRbEDKVozRAmykDr07a9reBueMoid7J6Xraa6Hqj36JA8dNHRM/tIngxx3+A22nwsRXFZde8M/H4hPTos3mmMpvXqTuW9yWv4zz/1cWXPbI5n9LUMhlhJhVp2oTUUIaWq1PZA1pbfRGg8JqapNlRZttOoT0xOvGvvZrh+DIqZsEJEQm80zLnv6wOShkCFvSIszpMHWmNZzsPki68j1L77s5wIY0nnbfw6/wd/hNxEpi3ZKiesFtZnWC5c/zfdeAdPEIZWwPbmwfZCqSxF/w2bxgANLSDkd2fhk53fhcarfV3sQOp6zbNX6v6UMhXH3NutFb7T2NliNw6/Z/P4nAiacFGJDxLjJZps6d34fMKtAaVC9YY41muOT0g1XXr/p7feDHEfTq+AxH/d5dsxGtMHcN2XIvZlTK2zetz//5m8QjA9l7sQarfGJ6QNThz+QMam+ofHwL28/FyeIb3+0LWHMdfGJljgIJqbqjam9jeahN96+ddfuylbbbQ9n9EmFRJVTYUNGaNfPv5rHXA/RSXXcVjWrjNb+livuy8hpcnh5DNlWsqJIROF46en1G1NGj4XAAGUjjm5jDJZeg1Izps2prqs7Yv7W4Tf4O/wmICVjqxTBQCQP4X3wvNkC/qwl/OBnhNyvZVuQqNPbzyw2EMYOj+++h7P6Jaa1g0EJ6Zc09O8PjNtfVilgEqBsiBgsq6AobnjplcuGjgix0WZWxSVaL0wfNWVRQWNLqzpR9mTZSO2XnP6PCZNr7b5DNY1X3fYPOlQFeMCMDqO1T2L6iJvu/Oa77zvMUiEKsbvdU+cv6pc+LN5kjjOZY03ARh+jZdy0uftr6mtstlsfeqRPSvopshHk+ec2bxmYPCQeBjMhSaTNF7dcPnT0yg2bPEFRhkxEtREZk692fjf2jvvijVa9waqCEUed8gsuS7ZefdOOXbuk0CTykOr4HWg4/Cs6xwZ3zjIozJP3jVzugtlX9AdePacnG9+q+VRhpdH+kjz85k/0NxmhL7/7wTrq+rhIpUHZuNAyIv+pZ1qcbk7GAYi2EpinRhQJ40+//GrkTbeG9YbqcuhN5rjEtGvufWDH7u8RlOaBpMDjXs+x9AawcV/m5Aab1+kLzlm8rK8pXeWWjqFb4ozWS9NHrV7/vM/vV78/fCIwERH+ed+hK++4p3dKWm/KRowJMiMvTEwvXvFsg8dfbbff+uAjfVJPiQ1CiM3uzJy9ID7BHGZDHaSKNVhGXv/3r7//BcQFSgP0hkzrYNTVNj88cVo/U3pcBBt6o7XXYEtcgnnja6/7Av52i+o3pHdc0R7jj51jg++5nP/PR+K7Zeigg9g5OjmRfuHpyMa2nd/yEq/O3wjjcYzbP4HDhBB/IDA3r/jS1CsibXqIJCSmXTbsqjc/+tTDCRxNQ+CRQvUGRBbKqiofnjQ5rt2mCsU6ohNSB4+6dsMrmyVJ6kRmx7HYMPdPTr9/wuQmmzfAyZ98sWtw+igIlkFOKyQpQaQ8wfx/EyZVVFVBAmvED8Y4wPEbN781aMQYSKACRwX8jbiEFNOwK9/+6EuvKNXb7bf/Z/wp2lSiJH3903/Trrs1LsEcB0NP4F5TvWHpb7JMmDyrur4RkIBMxJDqgOwSTli59vlLLCNoKBNcDtXriDGC4zF17qLa+vpOj/JF3Hand/lO2VQh44ot5M5/nLc8L3xSiX0ivBZPXzbC01/Ut/Hx38mdERfGaF9J2R33PzIgeZiaTR02q3onpY++9Z5dv+z3iSiICI+JiLFMZKQgpCCXz7P2hRf6wZwHsFjUQVIIqBlSBliGzylc1mp3dMIdj2AjInAWY7AMSBlyf2ZOs93NS7i2wXbXv8f3gXmXEN+AXkW3puHXfPz5l2J7RQuQB0LY7vLMK1jSn1aiiKdzsPTGlPjBSbf+899lNS08Io12+50PPdIv5eT9DaIoHp9/xfMvX2wdqaZ+QH4UTBi2xhgslyQPWbPuRY+fkwi4GSobdJIGFCL56dcDV9/+j3i4hRAbKh56Y/rVt/3jx1/3yDCM8UfZVDxSJnwsRRXxUYW8rhCKtdGdyLTC8ABu2P3goor4W98Qmvyn6TgV6I3fnQ1Jlt/but065iaYrQEvPwtMbFQNqtRhUx5d2ORw8xgLMEJPJAUhAmBgBYmyuHP3buPwK2lMDWLkKhgxhtS4JOu19z6wY9d3nRjGPRYb1gEp6Q9MzG5xuEVEfH6x4Im1AxKHxMNwUHu7yDrysbzHOV6dtQ9gEEIECe/+ec8dDz6iT0iKM6bEGVJpLn3yxcmWJ9asC3CCSJQmu/2uhx7pdwq+OCakur7hjocy+iUNaWcjwQwhv8GpV95429e7fxZg1LudDZUQpChOl3fyrPn9kobGGdLDeOip13GJZeSKp5/1+UNm1SlnHnbwepSwsvIHeexrwtjXRNqEUS8JxnXCOUsFHaWlLbLB0dhfOx5MIX/x2tMvvkHHcP8QNjiOf2LNsxdbRsYnpUP+khoRh9ezxTLq2lfe3OLjBRFjUYE0OFVjYMqGTOTqhoYb776HDuOC3mhjA1THxWlXLFvzNM8LqnnQwSMKHToWG5YBKWkPTMxqcbhERHgBv/fxF4nDrwF10cZGnNHaJ2nIDf8aZ3P7w2Y5lHwV5HUvvGS68ppehuSYUEpLamyCadRNN337y68SggKJzSE2YMj45MapJFn+/JvdiaOuhZAfTRlU82pjDJZ+RkvW9Edrm2xhU+qIHX+Qe3rDSxebR0QOVakeebwp/fZ//aeiui48knts0Z38XxB4jIc3mCxOdtbijK3ShavVQm8qFZFRDijldobYVFADs7yy+q4HM/slDok1WqINMJcaVIfJ2sdoufme+37ceyBIJ3XIAAaMRSKABAMkBLU6ndkzZl6cNjyWJlaF2Yg2JMcaUv8zeYbD6abjSMcx/X6DjWaHXUQyL+LSirp/jsvpA/VyoEaWCgmk5Q4b8/n3e0Q6zxPcMEKabM6Jsx6LMab0MqREUxsvxpASl5CYOWOm0+3BBMbZmm0OqjdOkg2ikEAw+NSzGwemDImnqeax1KCiW6tx2JVrnn0xwEsRSES6HIoo4c+/3JU66rqw0mizqdJijdbUUdd//vVumqBDaJWFk2fg6P+pGmpHHQ89IAT57Uq1l/zf++LZodB4hN5QQx+nW87IH6Q3OI774KPtg4dcGWeCGRrRtChGvNEcZzT3T0q7d9zEA9UNrV6f3ed1qM3vc/nCzdtkt7/29rspY67TG1NjoIWqhEC1ngTzqFvuLquokqFM0UmwYR2Qmg56w+kQkSxIyOMT1m16/dK0UXSqtwWy2WnSZ9+kIQ/NmO8MwHRcoigCId/vPXDV7fdccLmxV0JydCiRPmVAYup727cLooAJkjBl48FxfVLSIamx07G/8FAYwqiiuub+iVMhrGGA3FO1QFEvA+Rcjrr5zo2vv2N3e91+32HNF3CHmr+konr8tNl9E9P1NPwXTt2NMVoHpgxbvvY5X0AtGXHYMMNRffoPOYCI4hXJ07+gs5ZEOiFtkJwJbBBFsdmd+Y+v7A/54e3JhXEwBTylb6J12I23T1mYNzuvYHZe/py8gkfz8h/Ny4tssxctfigre/CwEfEQzE5tS6SFYlY9ByVdNnT0B9s/DwQD4S7V0ZM8lt4ANv6vnQ1JlMiun/YMufbWWJO1p9GstmijuXdy+th/Prynol6t8ByU5Jff+/DStOG9BiX2olUSYxIgvmEec21FfR3CMGgkYqXZ5ribsnFyNpUky9u+2Gm99hY6QmWNpq8VKFhId0yjrr133MQZi/JnLy6ctTg/3GbnFsxaDG12buHUeYvG3nN/bxrl0EcOQtDRqvFTH22yOdXweEdC+8OPEZh3Tq57TYzwPc4kNjAhFdW19z2S0zdlmJpZqBKiN6TGG1PjDan9ktIGJFr7J6YOTEy9MMl8YVLqhUnWC5Ot6nZgkuUiU8qABFOfwSb94ORoqPuk6g0wVHolJOuN5gcysmtr6zoMz7U93s6yIctKbbPjzn9nxCel9zSmhvAwpPZNGWK+9ua3tn3J0WJhLS539mPz+xiTYwYnRiekqHqjT3La+OmzvMEAoaagQJRmm/3uB08+9ucPcis2bLowdXh8gjWWKg21NEwvAyTDxxtS+prM/ROP2QYkWS5OTb/IMqx/yjDINDGolUfUXCwYCB51051vvPshyC3sSLXJ63/2r4yV/XZy7rL2zJFQKP1M0BscL3z02Y6Uq26EmglttTCg6hSwYY43mHvDNiUuIbl3QkpvQ0rvhOR4AzATbn0SkvoMSuw9yKRPSKJsUDuHFn2KNqT0HJSYOvq6D7Zu+x3YkCUZEX/g/7V33dFRnNfeL/E/yXlOorarFRI4JgbtbG+SKEYgJCSanwEb02wZiHF7ceKCDw4gGzBNBSTRbMeYg3kuxNjGLSYYXmIwjg0SRaJKAtEEQgVJW6bP7Hv3+2Zmd7UrITDZnM0ZnXtGM7Oz8317v/nN/cq9v8ssKa74deZ9AWyAg6N9YMbw5es2tfpInyBU19UPHXe/Rm9MQB0qmF3Q238zdMTr296lWUb0A3EvYKP1R2Gj7lzj3BcWaPUOLYH6oordMFjj9ZbEdBMSYyK8NUyRxKwhLCnAs5yhAYdcOYhcMiDOe+zDX1q83EMyvZrcfzZMwBkx/fWwbpUgBGJiUWyTTGpohNFSAiHzU91WLgWIbQqK+4uHwbED+KlQVB1e+7tdc7iiKDZdbXl+0fJkswsbDWUL1CEyPDSETUMATpDY5B3pTDJh1ekBM0mEFSLIgQIZmQ4Yt9jiBptTza5XV5UyyAkC1zysPcFuPPXSy1pjFupzOxHbAGg4eLzBcjwviDTLf/3Nd86CiQlmh9ytssUR1lRrxvQnf1d1pr7NR76z84uBzqykdFMiMhoQXmd0usb91zdV1SyElQAwaNHf/CPsBsfzn321O6tgkibdrkGRj0qfKh7C6K3xhDmeMCExxwO/qCyEOYGw4MMEwoxcChwJBhQ7CRwLirg0hPPBwiePn24Q/kV2Ay8ud9LisHdoRKord6gQzwjCxn6IF0/Ug3+lQicMa5+EM3PclNvIa4hnDy6GxMRiliobIAR61c6/fiPN4eLHCw9vexnkhj2FISdYlvv+0NHsCVMT0PAxAAzoAcP4so+CB6OYrlMhzAUuKcKWCL0L24RHZne5fej9B78ypBJwIGFDjheXBtnxhD3VhuZw29tYgWcRaSwviBcvNxf+93M6R1acUYIHKMdou8eRtf6d9+qbrxX+/oVUsz1Jb05It8XrrRqTS2fJfHLBwqbWVg5mqARa8DOC2NzSOvVW+1Sdbveyssq7bcOA+iSADYlxL46wxhGWvki8wRJvQFfqLUrYPXjEIEsytGDSrj37UchMmM4inwDdUry/yS2e74wgLT7w5or81R7OdtHifdvk8CbFP1eyG/++2PB4fFve3WEYlqeMwpVulYINHNDcR5BI6EKTNogd2Zqkh3U3a96E/z3wPaxyRJ6u6hM2OB6cQAXB3+XxbtyybVD2mDiT41eE7VcGW5zBnkhYUgzW519d/tnfD7jGjNPozdhoJBDg3KW/b/TW7dsZAUI9OJFnYHX/VrChAPv85SuTH3sSGQ3EFUIoPJQQrhgPfTkQ1KmDbU8iX2ZNQJH38sIrmhQhnIMyRpZveruzq/eZjO4PdZNHHPw6/YtS8pdB8otS+pel5Jj3IYFG9y/0etxOita3Iow3erMb8bFvN9qud85fvDLNOiSw3idPVUmLa0ZXstGl7VXwBckGF4T1gHssblfEQai3JuoBHnc7hz23ZAVF99R17hs2UJIKmH1n2ENHakY8ODM+eLaKsOoMNufogvEzCtMsjkQIDZc4UDRGx/0zZ9WePIFzMyDTAeFZt2w3BEH49tARc3Z+Uro9SQ/YQKNwG2Jqhf5kkt6m1Vu1egva2rRw2LOkW7XpVq3ehlWnOFPGE84UU+aURx4/eaZB8a3q9TGWPmz2ioPCRwiIm7D/OqqNjGC4e7qt6IcMHolrbxIbiYQja+zkGO1T4f7bidP1E6fPxrwQSocK984HDc3JefCRMdNnY8mbPkeRMdPm5E+bUzBtdsHDj40NkjFTC42jxmoAHnbE6WZLNFgTCWsiAe60BbNmn2po7GFE3jds8BDhxwt+luNb2tp/+9LCJIsLDzniYJxjSyIs/Yy2VORQmKS3JYCA0UgxO5957rnOzusCxHsCdyCGx61hA7IvuN2vFJenmrM06cAulShhA1ZLUxzDMu9/aMz0wnHTC8dPe1SWR8ZPU0Q5WThheuH4h+Fw9AMPD7QPwWyLEjbADx882E1Zo3bt3UeSVA8LdiFPNQ5t9bIi4kDAD3TwFgYMZd8HeA1DvhzpwMuJ8/cyYdyhsC4eYjeSjFlJBkkSDRlJeseQsZNq6hoY1OCYCgZnG+tpy6O8ryj7K1BoId7sAK08fEsUL1xuGjle4jWEQa1M9J0ApJpONBangc5P5inAq12RfleEa5A1hdcGJ4gdXqrijS0DM0YEo0LZn/7s/E/3/VBdd+5w/bkj9Y1ILhypBzlWd6Gm7vzxusYTdedO1p09UXf2ZF3Dibqzx8+c3bRtuymnAJLpmGAdEE1bIfoCwmodM2HHrq85LiJ1WDg24O3bbbzByXaDE0QfRb3/+S5DTj6sfIPYgO4EZs9gCgF156SnVmt03uvKenf7dh5Szwki6JgXRHAibm5pudk5XCBEFYQjNScKphYG1vvQaDDeYIsjbIac/C2f7jp0pr6m4Vxt/dna+ga0PdvztqG2/ty3VccmP/pbHbgzQ1QZ0FcDl40zgXAOMGWuWrux/XoXbmKlUxexxeVrICXNnRDUin09grlCwO18T6MAefEi/0ndXtHvZwT/zjpensANcRvpFRtERlK6fWjBA8caGkkUI88A5WNfhUXuysg3CdwzMSHHDbBhdOisrt37vqMgJhboypQfEbH/GAQeIFfB16MAPEAWI4gnzzUW/u55jZwaQkEFdHkJ+6q3tl3ucJM8x/AMw1MsR7Mcw3IceJxzfKhwHA+fsBxXW3926uNP9bM4NSacPMSqwOOerBHLN/ypy+OJNOty09igGf7ImYaJj87RgmeKFfk4SjkuJMYn5N2kIZzJRmdWbt75ixdF+V0kY0O4BWz4/X6WY9/att00Ij94TQOQjMjkJxbOrW+66uNh3Z0TBCSQ9yOiwASDKLAC7yHpt979sJ+5G88TmA6d3jlp5uwTp6VuVeTnuftZ8ZsLvAY6Qgo8AtbjJyuoxDX0R6f5TuDj98vE3t2x0kGJbxzm4srInwDAQoERPk8VYjeIDI3e4cwdv/3L3T/Unqo6cfrQ8VOHTiA5fgr2e5ETpw/Wnqw6drypuYVkOQ41mpRQvBe7YXT8f9Dzpvc+PHC4+sChQwerqw8dPVp97Fh1bc3h2tqjNbVHao4fluTE4ZqTWKprTmKpqj1+qqGx00MCi70oMDy/+5v9eQ9OD82TBDOJEHqRnb99z7edLEcLDMdTnECCOxW0NeQx6vlP7KLootLyux2ZSeYQbMQR1n62rImPPdlwAQiYuzdlhHmqG9gNlhMutXfMX7ZKR5hh2I3ySGF4K2xoaMd+t2vYHxb+0UuR6P2A3z9Aq3lrdsPv93d2eZ5d8MqvHcMTcRodJY+H2aUhLMsq1nV4vd0SpAS/p8L2geGTEcRTF66YsvOAZBWZDtgiu4G6VSM/3PkVi7JUh6mu2wnpPellxIc/wTkGlIlXBR7kT1dQd5VSw7Yy209yTW7RzcCsHXI9FD2scNkjfl4vZG6h75LyygZTjch3661PhbCRanJZ7st1jcrPzCnIQFu8kzEqP6Jk5hRgyRqVPzxnzIY3/nStvYPmJY7HG9kNp9aamX7faHvOGOeoPGdObkZOXsbovMzRYzJzx8B2dEFmbkFGboErd5wrdyyScc7c8c7c8Y7c8Rl542c+/Yeqk3W0IHA87ybJDZu3WO4bDczk8vgbDTwgkcqDTz93sqmZhvRcQByDPKxxAEJEExVoHk4QPtn9t3uHDNeYgY8HZvphpRxEY7T/Jit79/4fIqUOvVm74ed40c2wm7fvMA7L1qZb8Cwq/iHKlBoGiT137EdffgF5OiXzidTsB7+RW7AboiieO38xb/LMNCsEukg9XkylZckgho/ac+A7zOkoDQ9kNmt8GL4Fv0gUEtju9T047xkd8EWgYH0T2BDkLea8xzpk1pxnPF4SB8oG1B1hT2ogQfQfuCT0q1TSDCg2JGAEfrqSvKuEGriRGbqVyXuPHrcdnNWHbmV+vYG+q5S6c6VM0xYwPjIwAnYDOD8nJOpdSYZMTUAytIQrmXDokDdyqtGVanDCFu8YnHAYLvIFaQZH/8HG11aXXG1tB8c35N8KW2w3JkxSZjwC4w008EgyOjRGm9ZgTTZYsOgMFiTWZGAJAKIAWMk2ODQQzQOiNTi0BnuK0ZkzZcbfqo6SvMDyfMP5S8++9PIAKzjehghhS7UPXVy+sdVHsmBhOAFCNvDISOrERWgR+RQniicaL9pz8rUWO+KtsiYYsMBgoJ85o6i0oqPLHdZplrFhygpa/ApZ+2OhWwL6kUQQaUE8WHt81tPP9oNROHDy4h+CVi0lLk2tOWP8rNm1Z+qQK2vglQ2Po4SNuTcVL85x/P988PHgzJH9UBgJjkAE52W9LcnsnDT3qfoLF0LcZqHM3v9Ad6Ifgu9XrN+UasvQGmwacIIGQXwr9n4mV8aIgjMNjfTN5FYnWf+GKv6XpcpbX+kXKTvKsx5+Rvkows7Pi+WxOPDh5gE2NIYMbTchXFqQsPPdLgs7TCacqYOMS1esam5tYwSwG8iTGRrs/OWmkROCOD8ht1DwiNyOnE8xmyCQekQUaWUamXvkAAKplUZOnrH30FEfL1Asu3ffgZETJgGdeBA2kgi7Vm+154z781/2umnEPAlMMDcgnJVxIbVxJ0nNeOLpAY4sjcmWZIBsd5Dwzggjcp3ZNX7WnCvXWkO7VTC+9dDkE/MXaI1ZwDqueN0RKLbpGfDDhfVsOW8LpA5DCxRtHm/5n7bcY3XBkrzMqYXtBjYad7uGv7Km4tr1jvBODsRvwFh8bvLNcClcv975+LPz0yxDUgyuZCLgJJ9IONIcQxaWrO3y+YTePI6DtRWyz/L8rm/2DcocriWsKHWOHTKhomSoGoNN7xzxyee7GBbP+4R8sZeDLkZc9i33i9KArYgwclCW826wI1me/yym5n3JymNxwAasi4diw9UdJ2EA6OWCZMKZNti4ZMWq5rb2cGxky3y4IfNUwQiJvB9IURkKJwCA1ujKnjJj76FjXl5o6/Js2Lz13szsYGAAhPS2lHTrhIceOXy8nmYDAZlhr/lemsPPC+J7H39mHpGrRdjQIGxogHnWojE6DNl5VbWnKJpEUwlwH6BBFzgPRT7x4gKtIRNYCPqCDUSVQPL8X/d9l5U3VocWlWW7IaUi0Bgcrryxfz9URXEyRYZccZipuyW7UX3s+IgJU3UGl87gQmxUcvih0WUeVbBt5+c0jB/DB1RywT3/F0Wx4eLFqXN+m2K0aI3WJJwlGGEjwWC7x5L1ctHyjs6uYP6Rnm+mfAIEbeUHWTnvazBIIhgEyY8wMkggc2zCWmr+Hq6TFu/geZjDxTzqYdi4aVsRDJXesQFc0UZIaBbkm4Q9lIIMSDg8JC8m+cqgQ8hZYXRmT5n5ddUxNy80XLg85/kFOqBkDbEbWsJ2t8GxYNHy1jYPx90id5jo9zc2NU2dM6+f2Q7BqLIkGq2JQJqWsWjVmta2QBICgAbPuUly3gsLkojMOD04j8n+VD3aDZz0lYXkAeenzX1igMkK87bIisp2w55qdsya93jTtWZpTi9oyQtjA9mNSH64Bsesp/8QnmNAEMR3PtxpGJ6fYnClGJyADaNLZ3QlG1zJ5syJj807eOo0erHfYFSmPLnddjpJ8u0/70jPGqqDXAjWRBOYjkSTPc5k0wy25E54aP+BH2iaVmiNcF+t202CD3E9aF48eJXvv47+eTHOjBzmOBgZDBg8YC5+soL6WTE1YD39dSNPwyS8CHF/FE3v3ncgc8zE+MEOjSEDS/BTfmv70KcCu7G6uS1Cn2rU/ZOSzU7wJkALZ2i2Hs/Zy5FDsO6huPRJYEhCxGR4i7wDgYsJBE38Jxsc2VOmf11V08Hy3x6pteff3w0YiUB667ANHfWPH475PBx45ElJkaAJgjXeyz7+RqfbU7ruzd+4hmgMFgUbSTAitySmW4aOfeBIzUmgPEQzR7wosgLf5fPNe36+jrAlwcDaoiGsGgIe9/5WKX6jW58KulUiDJxaO90Lli4f7MzSETYUcwJjrWQQuz5j6Oq15e2dbtwpDP4NInCoiVdaWqYUzkmxRODgmfnU7xsuANMHXpDGO9fbOxcsWXmvc3jyIIsu3ZasLHUTtv72IYvWbrzOMGzvGQ9CdddtAMeL/n0HD+Y8MKm/2ZJstGhMdi1kYbYnme1xgwz3WrLWVm7qcrtxZW64Uo5/rzze8beT4voqfsB68mfF5J2GubufAAAHAElEQVQrUVxrb5AAYPzHcvLOldTPiumUSnpDNXct4Lki3iGIoo9m9n73w7DxD+hM2IyCDwU2qbe2Ra8cVz+DI01vXLpytdKnQkMOGG80Nl3Jm/xQKlAqWXVmW4rZlmIKSD+j7RYkxWRLtThGT52xp/rYpS73snWvDxySDZkoTE5FNEZHmjnjoUfntbR18ZyUq1QZRYa26Q2OGJbbu/97S/ZoncmabLLpZEkwWVNtGZbs3Pc//tTtI3GELev3k36xkySffP6F/npj6mBDWroRy4B0wyCzZQ7Ei7dGwobI8jxJs3u+/ceoCZPSTPY0qzPV6kq1ZKSaXalm19CCids/+wJ1qADcIdgQRYbjm5pbHp77RH97ltbi0lgyFdGaXYW/e/HspSaBD2CD5/nqw0fzH5icbs9K1VvSCHs/g11nAh9HnclhGZX/l+8OkqLAhRZ0A02Ffsz7/Y1Xrzz14ouDHI40k01ntussdtiabYnpxoFm1/yXi66gdIpKu/T9tYV/fxcj7jjFz/4Cell3rgR6TyAZWQHbIAE+kTtX0tpyesZO5pMz/HXIvhryd4coihTL1Z2/VLbpzcUrSxcVVywqqQQpRlu8f1PbYvTd4oqi4rVLi8s++eLLts5OiuPQkAOWpni//9K1lvWbtywuLi0qKV2ypqJoTfmissofJxULyyqK1q7b8MGO2kuXW73eLR9+vLi0oqisctGa9QvLN2D549r1r1a8/vFXf/P4WJgMgoiawF+IYm50ALkYr7YUv7F5cfm6IpDKovKKovKKRZUVr5RXLFu3bu++/STDYDozFqXJ8zLsBx99snR1yWslZctKyl5DsqykdFlJ6YbNW8LH4jjRMC8KDCe0dnk2vv3Oq6vXLFq9pqi4fGFJ5cullYvK1r+149NzV1sirsMDSY8gdrjdm9/7YHnlxlcrN/2x8k0sL1e+ubDijTfe//haR2fg90PPTzhSU1O8pnzVmsrXStYuK61YWlq5pKzi1bLKpWWV67e+e7G9g0GzsfJq2o3UFPY57/d3keTnX+1aVlJStLp0cXHpIknKFpSsLVq1dtt7H7a2wkxGcMXCbhP5BHq60eAOMjX7aV6svsq/e5xbso97Zhcz5wt22k5mzpfMvL+wS/axW2v4w82Cl4Ur5U5DCDzuQHzrMKvjo2g3Sfpuj1A+ksK3YhjonWKrhyby4FcJgkDSlJsk3aTPTZFeuPjHC+kjKYphWJ5nRNHLMG4KivBQpJeiJCEpL0nhKItg1eP9yPru+SzLC20eqtVLtnnJ616y3eu7DkJ2oB0PwyIuM5idA8dY1MMhWdZLUmR3ISmK5tFyIcZDty0nCIwguCm6y0d2kmQH6evyUV0+sstHeWmGRVz9PVWT53mSYTwU5VaUgHZ8NEUzDAeZ9+APTxiIoujz+Txen48iPSSIm6TcJOVB206KolkOR+jdykgcVRGciYA9iMVFoGeAhGYiSR8FzwBJ4RQPPf2gvpyXHnGUOxfcyxjBT/MgJO+nOIHm/AwP5COAiqD7hR75ARv4ke1mkYO+8s/axSUGV+52laTcOfzm8hsixGIoz0ffK4AeKJHxi4xESgJ0lzy8rmAlh0MdDzxtjZc7YXofDW4iFCw/nfDWQB29blse6N9FlvdzIGgHHcIZaGBUl16rHt64ETsqiEQUPAPwH3hl4eltaYs+QS/ZiF/vtQqBD5XvBjcTaqnw5gp8qy97+OFG2+BbdXvmQ/CAb6tUKbgUCRvBp9T9vmsAD7WVreQUgz03pAdMAWNf7xr8xEivLdTbAedB8GcBCd6/6QJ6rUjoskzIpcGPW8gH/6YHKjZio2EVoIXv3N4fEPENenuLiJW7qdiIlZZS6xltDajYiLbG1fJiRQMqNmKlpdR6RlsDKjairXG1vFjRgIqNWGkptZ7R1oCKjWhrXC0vVjSgYiNWWkqtZ7Q1oGIj2hpXy4sVDajYiJWWUusZbQ2o2Ii2xtXyYkUDKjZipaXUekZbAyo2oq1xtbxY0YCKjVhpKbWe0daAio1oa1wtL1Y0oGIjVlpKrWe0NaBiI9oaV8uLFQ2o2IiVllLrGW0NqNiItsbV8mJFAyo2YqWl1HpGWwMqNqKtcbW8WNGAio1YaSm1ntHWgIqNaGtcLS9WNKBiI1ZaSq1ntDWgYiPaGlfLixUNqNiIlZZS6xltDajYiLbG1fJiRQMqNmKlpdR6RlsDKjairXG1vFjRgIqNWGkptZ7R1oCKjWhrXC0vVjSgYiNWWkqtZ7Q1oGIj2hpXy4sVDajYiJWWUusZbQ2o2Ii2xtXyYkUDKjZipaXUekZbAyo2oq1xtbxY0YCKjVhpKbWe0daAio1oa1wtL1Y0oGIjVlpKrWe0NaBiI9oaV8uLFQ2o2IiVllLrGW0N/B/nI6wdBpCfMwAAAABJRU5ErkJggg==;strokeWidth=3;" vertex="1" parent="vKDNCVvnNCXdLF1c3vbO-13">
          <mxGeometry x="190" y="110" width="98" height="76.55" as="geometry" />
        </mxCell>
        <mxCell id="vKDNCVvnNCXdLF1c3vbO-3" value="&lt;b&gt;Custom Indian Legal Corpus&lt;/b&gt;" style="shape=cylinder3;whiteSpace=wrap;html=1;boundedLbl=1;backgroundOutline=1;size=15;fillColor=#dae8fc;strokeColor=#6c8ebf;" vertex="1" parent="vKDNCVvnNCXdLF1c3vbO-13">
          <mxGeometry x="30" y="103.09999999999991" width="80" height="83.45" as="geometry" />
        </mxCell>
        <mxCell id="vKDNCVvnNCXdLF1c3vbO-4" value="&lt;b&gt;Continued Pre-training (CPT)&lt;/b&gt;" style="rounded=1;whiteSpace=wrap;html=1;fillColor=#ffe6cc;strokeColor=#d79b00;" vertex="1" parent="vKDNCVvnNCXdLF1c3vbO-13">
          <mxGeometry x="80" y="20" width="140" height="40" as="geometry" />
        </mxCell>
        <mxCell id="vKDNCVvnNCXdLF1c3vbO-5" value="" style="endArrow=classic;html=1;rounded=0;entryX=0.5;entryY=1;entryDx=0;entryDy=0;" edge="1" parent="vKDNCVvnNCXdLF1c3vbO-13" source="vKDNCVvnNCXdLF1c3vbO-2" target="vKDNCVvnNCXdLF1c3vbO-4">
          <mxGeometry width="50" height="50" relative="1" as="geometry">
            <mxPoint x="290" y="110" as="sourcePoint" />
            <mxPoint x="340" y="60" as="targetPoint" />
          </mxGeometry>
        </mxCell>
        <mxCell id="vKDNCVvnNCXdLF1c3vbO-7" value="" style="endArrow=classic;html=1;rounded=0;exitX=0.855;exitY=0;exitDx=0;exitDy=4.35;exitPerimeter=0;" edge="1" parent="vKDNCVvnNCXdLF1c3vbO-13" source="vKDNCVvnNCXdLF1c3vbO-3">
          <mxGeometry width="50" height="50" relative="1" as="geometry">
            <mxPoint x="290" y="110" as="sourcePoint" />
            <mxPoint x="150" y="60" as="targetPoint" />
          </mxGeometry>
        </mxCell>
        <mxCell id="vKDNCVvnNCXdLF1c3vbO-8" value="&lt;b&gt;Llama 3 Base Model&lt;/b&gt;" style="text;html=1;align=center;verticalAlign=middle;whiteSpace=wrap;rounded=0;" vertex="1" parent="vKDNCVvnNCXdLF1c3vbO-13">
          <mxGeometry x="169" y="186.54999999999995" width="140" height="30" as="geometry" />
        </mxCell>
        <mxCell id="vKDNCVvnNCXdLF1c3vbO-9" value="&lt;b&gt;Training Data&amp;nbsp;&lt;/b&gt;" style="text;html=1;align=center;verticalAlign=middle;whiteSpace=wrap;rounded=0;" vertex="1" parent="vKDNCVvnNCXdLF1c3vbO-13">
          <mxGeometry x="25" y="186.54999999999995" width="90" height="30" as="geometry" />
        </mxCell>
        <mxCell id="vKDNCVvnNCXdLF1c3vbO-14" value="&lt;b&gt;Injecting Legal Knowledge through Continued Pre-Training&lt;/b&gt;" style="text;html=1;align=center;verticalAlign=middle;whiteSpace=wrap;rounded=0;fontColor=#FF00FF;" vertex="1" parent="1">
          <mxGeometry x="100" y="1030" width="230" height="30" as="geometry" />
        </mxCell>
        <mxCell id="vKDNCVvnNCXdLF1c3vbO-23" value="" style="group" vertex="1" connectable="0" parent="1">
          <mxGeometry x="300" y="540" width="230" height="220" as="geometry" />
        </mxCell>
        <mxCell id="vKDNCVvnNCXdLF1c3vbO-15" value="" style="rounded=0;whiteSpace=wrap;html=1;dashed=1;" vertex="1" parent="vKDNCVvnNCXdLF1c3vbO-23">
          <mxGeometry width="230" height="220" as="geometry" />
        </mxCell>
        <mxCell id="vKDNCVvnNCXdLF1c3vbO-16" value="&lt;b&gt;Predex Supervised Data&lt;/b&gt;" style="shape=cylinder3;whiteSpace=wrap;html=1;boundedLbl=1;backgroundOutline=1;size=15;fillColor=#ffe6cc;strokeColor=#d79b00;" vertex="1" parent="vKDNCVvnNCXdLF1c3vbO-23">
          <mxGeometry x="70" y="30" width="90" height="80" as="geometry" />
        </mxCell>
        <mxCell id="vKDNCVvnNCXdLF1c3vbO-17" value="&lt;b&gt;Predex Train Data&lt;/b&gt;" style="text;html=1;align=center;verticalAlign=middle;whiteSpace=wrap;rounded=0;" vertex="1" parent="vKDNCVvnNCXdLF1c3vbO-23">
          <mxGeometry x="62.5" width="105" height="30" as="geometry" />
        </mxCell>
        <mxCell id="vKDNCVvnNCXdLF1c3vbO-18" value="&lt;b&gt;Supervised Fine Tuning (SFT)&lt;/b&gt;" style="rounded=1;whiteSpace=wrap;html=1;fillColor=#f8cecc;strokeColor=#b85450;" vertex="1" parent="vKDNCVvnNCXdLF1c3vbO-23">
          <mxGeometry x="42.5" y="150" width="145" height="50" as="geometry" />
        </mxCell>
        <mxCell id="vKDNCVvnNCXdLF1c3vbO-19" value="" style="endArrow=classic;html=1;rounded=0;exitX=0.5;exitY=1;exitDx=0;exitDy=0;exitPerimeter=0;entryX=0.5;entryY=0;entryDx=0;entryDy=0;" edge="1" parent="vKDNCVvnNCXdLF1c3vbO-23" source="vKDNCVvnNCXdLF1c3vbO-16" target="vKDNCVvnNCXdLF1c3vbO-18">
          <mxGeometry width="50" height="50" relative="1" as="geometry">
            <mxPoint x="50" y="330" as="sourcePoint" />
            <mxPoint x="100" y="280" as="targetPoint" />
          </mxGeometry>
        </mxCell>
        <mxCell id="vKDNCVvnNCXdLF1c3vbO-20" value="" style="endArrow=classic;html=1;rounded=0;exitX=0.5;exitY=0;exitDx=0;exitDy=0;entryX=0;entryY=0.5;entryDx=0;entryDy=0;" edge="1" parent="1" source="vKDNCVvnNCXdLF1c3vbO-4" target="vKDNCVvnNCXdLF1c3vbO-18">
          <mxGeometry width="50" height="50" relative="1" as="geometry">
            <mxPoint x="400" y="850" as="sourcePoint" />
            <mxPoint x="450" y="800" as="targetPoint" />
            <Array as="points">
              <mxPoint x="210" y="715" />
            </Array>
          </mxGeometry>
        </mxCell>
        <mxCell id="vKDNCVvnNCXdLF1c3vbO-24" value="&lt;b&gt;&lt;font style=&quot;color: rgb(0, 0, 153);&quot;&gt;Learning Reasoning Skills through Supervised Fine Tuning&lt;/font&gt;&lt;/b&gt;" style="text;html=1;align=center;verticalAlign=middle;whiteSpace=wrap;rounded=0;" vertex="1" parent="1">
          <mxGeometry x="278.75" y="500" width="272.5" height="30" as="geometry" />
        </mxCell>
        <mxCell id="vKDNCVvnNCXdLF1c3vbO-25" value="&lt;b&gt;JudgEx Model&lt;/b&gt;" style="rounded=1;whiteSpace=wrap;html=1;fillColor=#d5e8d4;strokeColor=#82b366;" vertex="1" parent="1">
          <mxGeometry x="720" y="690" width="120" height="50" as="geometry" />
        </mxCell>
        <mxCell id="vKDNCVvnNCXdLF1c3vbO-26" value="" style="endArrow=classic;html=1;rounded=0;exitX=1;exitY=0.5;exitDx=0;exitDy=0;entryX=0;entryY=0.5;entryDx=0;entryDy=0;" edge="1" parent="1" source="vKDNCVvnNCXdLF1c3vbO-18" target="vKDNCVvnNCXdLF1c3vbO-25">
          <mxGeometry width="50" height="50" relative="1" as="geometry">
            <mxPoint x="530" y="820" as="sourcePoint" />
            <mxPoint x="580" y="770" as="targetPoint" />
          </mxGeometry>
        </mxCell>
        <mxCell id="vKDNCVvnNCXdLF1c3vbO-29" value="&lt;b&gt;Predicted Statutes and Charges&lt;/b&gt;" style="rounded=1;whiteSpace=wrap;html=1;fillColor=#dae8fc;strokeColor=#6c8ebf;" vertex="1" parent="1">
          <mxGeometry x="720" y="510" width="120" height="60" as="geometry" />
        </mxCell>
        <mxCell id="vKDNCVvnNCXdLF1c3vbO-30" value="" style="endArrow=classic;html=1;rounded=0;exitX=0.5;exitY=1;exitDx=0;exitDy=0;entryX=0.5;entryY=0;entryDx=0;entryDy=0;" edge="1" parent="1" source="vKDNCVvnNCXdLF1c3vbO-29" target="vKDNCVvnNCXdLF1c3vbO-25">
          <mxGeometry width="50" height="50" relative="1" as="geometry">
            <mxPoint x="820" y="720" as="sourcePoint" />
            <mxPoint x="870" y="670" as="targetPoint" />
          </mxGeometry>
        </mxCell>
        <mxCell id="vKDNCVvnNCXdLF1c3vbO-31" value="" style="endArrow=classic;html=1;rounded=0;exitX=0.5;exitY=1;exitDx=0;exitDy=0;entryX=1;entryY=0.5;entryDx=0;entryDy=0;" edge="1" parent="1" source="vKDNCVvnNCXdLF1c3vbO-27" target="vKDNCVvnNCXdLF1c3vbO-25">
          <mxGeometry width="50" height="50" relative="1" as="geometry">
            <mxPoint x="820" y="720" as="sourcePoint" />
            <mxPoint x="870" y="670" as="targetPoint" />
            <Array as="points">
              <mxPoint x="945" y="715" />
            </Array>
          </mxGeometry>
        </mxCell>
        <mxCell id="vKDNCVvnNCXdLF1c3vbO-32" value="" style="group" vertex="1" connectable="0" parent="1">
          <mxGeometry x="860" y="470" width="170" height="127.27999999999997" as="geometry" />
        </mxCell>
        <mxCell id="vKDNCVvnNCXdLF1c3vbO-27" value="" style="shape=image;verticalLabelPosition=bottom;labelBackgroundColor=default;verticalAlign=top;aspect=fixed;imageAspect=0;image=data:image/png,iVBORw0KGgoAAAANSUhEUgAAASIAAADZCAIAAAAL/qqPAAAgAElEQVR4Aex9d1wU17v3+9f1/m557/21ewV7iolpamLUmMRUDZbYY4kaW6SjoogIYkXFhopKr9J77x22994oC9t36Z1ll9f3c2Zh3Z1dcGkL6vqZTzJ7OHPmzJnnO89znvp/hhQ8y2FZAcsKTOsK/J9pHd0yuGUFLCswpOBZYGZh5pYVmPYVsMBs2pfY8jm3rIAFZhaYWVZg2lfAArNpX2LLt9yyAhaYWWBmWYFpXwELzKZ9iS3fcssKWGBmgRlYga7cK7kuXyQcXZoT8ry9njkaMLpxvsUXv0o4ujTr6TM5mzZaN0s7bAUsMLPADKyAKGh13O6/BNnMCfG8IWeRYVSi/dmZeyLj6D+CbObE3rwjZlC17ZaTsVfAAjMLzMAKtCX8mbD370E2c2LuPG3h0Ucjms6sIxlHQDcLzEZbIqPtFphZYAZWQMXHtFOLWsgFbTzyoJRrlFaGFDwLzEZbmbHbLTCzwGwcK2CB2dhwGu2vFpiNg8hGW8QZbmclYa/9lmL7WfLJT/WOSzcVTfSOrCNZziuTT36KKED1i0ceFn0l/+ya5JOf5kcldTWygAoEc6PA/avkk5/mhcfqqEBQskSn6jNfpoGRN1UGxwmj9xsVGntIj3FPfsxw0UxgQ87Ne3UV2AHhyO0UvF5qMjvIIe/019AMf8q+dpOLQva/NW7rk4VZ6fVdKbbL38gD5W83w/gxhQqr3dL+fD9y238H2cyBH3+ek/BprbE/R+349yCbOQUp1b2iEbqvcErYD7ZY8Y8iNaDqyNiXsB8MEn8/qKWWAT04qiFgU+bhf4Zv+UswGPw/w/e8E7//f8K2Ak2Jzt4Mo8j4vfjUwshd/xG8WTOH/wzZPj/m8F5ScV439Ai9NTdrvFY+3/PP0M3/Bk3yP0K2zYvxdOWikK/BCpvyFl7VZ7IwS3P8Av52Dd/369lS5L111hNBFcvDOmTTnCCbX4jZaTJcdn3c9rBtAFRxvn4iPEIp47SZCLOUnQn7/ksXZt1FzjnH/wcMfnA7ITtSgo9k3f8lfs8wnrUw6ym/UHpqftiWOdEXfscXPBfjs5synTPsFgbZ/DXK63w9ATOkKOH52SRt+7egfT9URz8V47MVFTG8x/sLvE9xyitn/QqPfJheBaSxH8QCMwMmMPJReB1gFlu5698Aqzl/r6uRPaTgDTYlI+3/O3TznNAbgb0CIA1OFGaountfxu38S5DNu4XRMS18llrBHOBVch+uit8DVmwEZhj+s5+T9/wlyGZVZWpsq5ilVvBUwkLm/W/jd8wJ2r4Bk5vVrcih+6yPs5kT9Pv2muS8TgFvSMpS1iE6mci+plENdGNT7Wv3VwvMXmuY5eFO/FvwpjlBe/5spDLVcl4n8lzib/8ZbDMn1j+xTwSAN1GYZRDOfBgF+OT3uMriHvnwR709bX/6YcDQRmCWQ730ZSyQFf/+/MhHKY5fpIHjs/h9/wgDjd8gMlM7FTRR9I6MA3OCtv5P9KGPs91/xyc+b+VRXjuoTGbCFpi91jBjdCduCdnylyCbufF/fp7muCr5qHXwpn8NsvmwqgythPTyE4QZ71m53ZJwwIIOsXDVAyMiE1zTWBeGPPtxxAj/N9g+aGDGU9alM4N3J/7+T2D+3vrXqAPvJ7ntQ+ZktAqmRiSbDADMc60FZq81zHiiRwtCNs8JOrIsbtO/QoqKD2PPHsFlZHY0sdUQNiYIM0ksyvH9SJs5Qb9uJaPK+0aDGSew2nUZQOP+jcj4Z0J0qlTvKOiopwyCa1l9dVXNFdHskJN5rovDd80J2vq3yEPbMdkZXSMjm4fcZ+ouFpi9zjBj++fvB2rAbL8gGSJZikqRonIVNESvkKvBmK7QmBKc1iMAYuSQgicN/SJmF1D6vdQ0wlUgyVinpVGATa2oycvrGrYEYBoer0+EfLKGhUZJEsF9ZTRA48qq1JQOrSbTKHikLGU9qp0aSw3+Lun3OUE2SwtDAuVvB0OzwOx1hhnVOwVIjHOiDi7PcFmT4bIWHDf2l/icb6LSVTKAqMGCw9G7/m+QzZzQA3/WYkiDMqQ01j7zyN8ADxwLZuR6v5Vxu+YE2fxX9Fm3Bgp2UIFRpO/JPf7XUOjCkb0ZpTHwh+Tf5gTZ/N8oFwdySY3GZtBbX8KJdq+KipAwqUMNqYynp5ExoYJaKhA+G4o4QRsT980JslmSH/hUxn8r5EYLzF5nmIkQ1AufhoDNmM5TbP9r2HbrBNvVmDKiUsob4iehnP4HUkjMjf/zywyXz5MO/E/IH0tjtvx7yFgw4/Wz/apsF4F916/zE+y+yDj1RfKhv4YdXvJ823+HvVSB8Aa4Aehry6K2zwn61Trm6Mo057WZp9amOS6P3W8df/0Kn0Qe4kVivL6K3f9+gsPq9FNrMx1XxB/4Z+iWOVGnDlPLKwekFpgZZf36jZOxm0U7HKXkZUroNRLkg7KznwARfzYdr4NCPxVx5p9A03j2fFNFnLgmQVzzmHh/eShkQY66Gwnp9OldxACk96qwX4E9Lcjm/Qz/63TEzdKDc8N1YVZin3AQuN7rmKdJnWX3cNe/jt4F7GlBNktSfd055bdrnD6I0oHZkILSxYhmhR/KcrYO2z78BqP3rci/7c6rKekTsockBHmBT7X7+uc7wfiA9/72Sd4NV3ZFvlaInaktk9nuO5PcLPaGn4Df8eLFixethdira8GGezYdsx9mnVk7YnYBvWJ5EXJQpvH3pfeiXJN3AJ1+kKOnnE+HNmn0LnquuCZBVBUnqspo5pH6ZYQ2dLK4Kk5Kx2schQcbK2ToJBFowSolnGH6E5N6GPlSZCJ0YbqChVNKiZ2EDElVnJSK6hePdFMw++urWoipYkQc1DNOisppY+GUkuGt4KAA30ktkCKSNX+VoLJamZgB8fBfzUbrM3gjM8DsvdzQQB6uUkytZDxZDwnlw3CK9X0qEHRbYDbh199095/QFutvWQkJbVIOhChEre9nURp/qDsRXZCFesLjWy6cqhUwA8w+LS9Ad/YDNMnSdqYfesmyLDCb5FvsSdkYshlszMIOf5p2dn02ONbE74IM1of3sQjYERb3Vux/JrmY03q5BWYvYQ8TWWe/0DhUXyhMv1Dh9lHcpjmQ0Qw8S+zh70oDbvERZf1SrVBngdkMr8D0wizl3j1mNaq1uUM1BLiZUk6W00uExBL6k++T9s/R52Y7M65fwJZnNRBLhMQURsKp3D/fNVCKLIg/fQQVH1uPAIMIiWl1BTdrrq2JhbzsNCCJOLKhJjpKSCzhxNnmHJ8be/Z4dUFaHeicyc32LnFdDtmCRoWWLtJeA5gpeENCXAcpTVIeJSiPaoIOCTKvvZailo8amjmtn23L4EZXYHphlh1X2tIOAAb711FxJufk33VgVitDYyS14l7lMB6VHYLWihuFLu/q0P3y3NtP6ml1PR19QyrNeIND/YpuQUVt/M6sI8PIiT7nSCdJX7x40UEv4uUFNNbVd/Up1aC7StUr7cCHobxX6Iw5Ft5eD5jpK36NvmNL44yvwMzArCXvaOax/3gJs8EBdb9qCELDS0D2sjgh2xOBhXROkM2C9Nv362tbVMMAe9nrxYvBwbYSuv/PwAfcZk70hdN0WgtAVXfHQFcbbMgXAwJRzun0vWOhSwtCC8xmnDrfmAlML8wiT3yTddGJSuD0KgEw2pE+yPvb8y/vyLRdGLlNR2iE/igvvYW4vb08MVwmbYZgpGyvulxg/z+A7k/sx1VSlRDGBhoQ3PDTpZe3lwXcqOPwoIF72pF3Sx2tdWEGjdDdTo7G39teGna7vl4Atah66NFI9wVaLI1xYoHZG0PlM/4g0wsziIhN0DS+aJeVXilxWhixdU7o798hCqo1mslewr2SMwAS8bfv1vP7AE7kCEbQvoTf/hFiMyd014IM/0eNkElALSsmP/guQoebvXjR3U4OQ1xYFr1tTshvy4ui4pt7wAADtWn4a0vHQJf2TxaYzTh1vjETmB0w60KT73wfs1Ujy31YlJCrgcQIzObnhMdLoT3eQGMJKeRkpvtmzZHzOLCO1QbQ04lmPNsSbfMvWqHxRR+rPu5w4rZ/gWCzMOP+Y4FmBAvMLNs5s6/A7ICZnheIIczWlqUVt0MSo7q3pVPIUtRSho9GYW/XoHGYdeE5YTuf21hgNsO67DeGI03mQV4LmH1WnJDTAhm4AaKM/pMWke6vD9UVGi0wM/s3ezKE+GZf+1rAbGnB8zQF5JWlbMijR9kV3dgLPzzXJx76Xz0ViAVmFpjNmhUwK8z6cVfKHOaF2SyKsvkbCKYw7tNoKDT+NeneI76g98WLF+p2UkP88dxD/zscGL/HOvb83qqEAELogcw/9BT6LyYNsxTbz8hRF3HBZ8x54EPOctLv1eY+MfMhqHjeTMhpIeWb8+hglA8I3oqkIGaA2T/ykstauyBRr6uumZzfUF3IDT2QdvhvJsNsTujB37DlZICzFwNKOVNByOVXp9ZVp9Zh8oQcemdndzPiWokD2Ia9VIFMGmaRu/+ZdHxZ1F4rcx7R+6wTjn6QdOJjMx+pDp9nnf462/Ubcx45bt8Xem0qvrxtyo/K27+zkm93sqtmiSxqBpjNiboVIBZ26m6pupGeufZzTYdZkI11vMdFFoMPqTt0R9Kcd8uLzuf9McUwC9v+39F7rbT6fcvJa7QCob/+Z/LJTxiJN94imAXt/6I4JFFa26nWoKSbL47Znfb7f8Z6+QhqIUu0nqbxb1lh8dJWgJ8RhT6k6N/+TpLrUVRKmrhOMahVh/R293BJDdnXyz0+jt4GCY0uJ+iYRnCxHjf7r2Sfy3Vi0Gy63cwCs9cIV4ZTDdny7+U39w4IRi0iZU4EmoObgUiN/V9knN9XfPOPUt8/Sq//mnl8XsTWOWH7VmR77oVaNiQdmhsyEtMZdeKbnGugZ5H7l7F7NaG7GpPaXyMPfp5+fneRDzSO7x+lN/bnu/2cfGRRBIQxkPFi9/tp53aCMX22pp9cEjoyZvihTzO8wVXFl35MPvQ3w7di2JL85yeEUDdsgIs5D8wzp7Ibuwu9t5r5yD77bfLJTxJPLDPnEXf4nbDtxtKSj7w1w5cyrpYi76299Thzwmm0e5kJZuNanVnSOd9jY08t2sxHNw/VSilsJuaa+ZCiU4WVMYKKaHMejSXhtblPuJl+U3hU3z8SvuOvGhKywEzDnWb1fy3OVqN9m2dzOy/rUdQeYNoJspljgdmsBpj2Jc1merLMzegKWGD2GkBLV161cDOjdDzLGy0ws8DM4l447StggZkFZtNOZLOc1ZhherowK/Ta3FOLNsNNX3kLi6ZxVPBbhMZXUs8s7FCfHxh7aIlG+M+/sKGdUTYbJmmBmQVmbxSP5ReHJhz7QAOz3PM/tlIKLTAblcR1VREzdW7hZrOBQMc7hzcTZnV5z+gJN97Io6kscrzv2NJ/xlfgzYTZjC+rZQKWFdBdAQvM3qg9gO6rVUkYfbWIXk7loPCtiJ7SffbZdm6B2ZsIMzl3gI+TlTzjBp3gBh4TpFztphUMWTL+zlzYsgVmbyDMBgVkWfET0uVvkQ4LkY6LcOeX10U49bBKZ9s3/u2ZD78kPPHER8OaRrfvW0j5s+HZJ6vQnw3PMFNzUIlprYgY6s1famytak7OrTk5F2FrjfdYJcl/OFNTstxXUPE81eFzDcyyznwtw6TNhjWxwGyCPFYtZXYQM9iP9yMdFmowpvkv+vQH/PgLatlbVCNvNtCxdg6i6rgMlzUamGW4rBXXJGr/NIMnFphNBGZqGbubWVIb4YR2eU8XYzUn52LdPhVm3lLLLUWPJrKwk0eCBWYzs+6Tf3PwEeTc/jpkU4o39tynMIyhnN9h+e/vouTBL5k5lcDbNhMLzN4QmCmbiNJ8P4LnahjGkA4Lqbc2tdREq6Wst424Z8/zWmD2JsBsUERtqY6k+PysVXtowIawn0/0/lqS7zconBU5XmYP3Zt5JhaYvfYwU0mY7fhU5sM9CIcFeqzM1hp3fkVTsnd/A8bMVGW5HWwFLDB7vWEG1B70Il6ILcr5XX2MWWHOfFgX4dTLqVTLORYdI4zuzfxTjEjMcv1Go2lMd/5SWBlj5gkYvZ1F02ga+OXcPl51Y4IHxvUjPYydnItyeZf95GAXNU8lYXTT8luRsf31syKU0Oj7fuMbZZj0vAs/a2CWar+SXxw6Gx7ZAjOTYKZsxItz7hAuroJhDOm4iOa7pRUVBzBGL6oLd6D5bhGm3+jnIabj7aqlrEERRdlEGOBj++sx/fXo/jrUAB+rFJDVMosJAbxKOS4z/6KNBmYptp/VFwRNx4sY75gWmL0aZoNCiqIihHL9R0O1B+nKt9KiJ4NCSh+vpjHhItZ1GdCFeK5pSrgIXK4m6dwo5yobCb2cqm5aQQchvQ0Vr6gIlRQ8FGXdEqReaUzyaky82Jh4UZB6RZx3v7kqoh2X2k0v7K9Hv82CqwVmrybo8X4kzNBfJaa3YRIY93ci7OfrsjLgV3Xhc0Ha1QE+boCPE+fcxV/4QtMBYTcPd35FXYRzJzlHLRuncl/OVQpIPczSDnxac1WEKNOnPuoU2/8A/e42qs8G0pX1BM81+Atf4NyWY899gj37Mfbsx7jznxE8V5Ovfkfz3cJ5ergxyVNRHtpByOjjVb+FpgULzF4/mKmlrC5KDjfoOMr5HV2M1dhaYVyX1Uef6uNVQ7wulHztB90OCFtrjOsyzrMjbZgklZhuyudALWH1MEtbkXGi7Du1obb0O7+Sr36Hv7ASfXopwm6e7uBjnCPsF2DPfUK6/C393vaGmLPy0qAOQnpfbc3bw98sMHvNYKaWc3rZFQ0x54yqPTgBR7pphSoJox2bwniwC8brICRYoZzfZTzY1VwZPqYxjTsoonZRcuXFz2pDbSk3NuAvfA5HNeSXPAa6jP4Jc+YD4qV19Lvb+LHnFOXBAG88xBu/hbPA7DWD2UADVpR5E++xqubksAO+hpqRjovp97a3YZPVEmY3rYAXdALlpM/rdFABuYbYSIueDDTijfA0OVfZRJQVP2X7HyB4rUW56JsKdMYxCiQTGzFnPiR6r2Pc28GPPS8vC+7ApwF58g11brbA7HWC2aCALC8JIF/9HmFrrUvNCPsF5Gs/ysuCVGJaH7eKH3cec+ZD3Q6G5wj7BaSr34mybvfXIeFIk3P7a5H1UafQp5caXjjFLbbAvkf0Wku/u63+uaus+GkbNqmXXa6S0IcUXPjEXlsnzGZibtHlXzWaxqQTH/Oy/WfDo1k0jUbArxLRWhHP6Xd+hYmCCFtrwsXVosxbyiYi4HVZt3DuK00BA8JuHsFzdVOSVy+7Qv+tc1UiajsmiRt4DHsWbpEzZeSJ9LG1Rp9eir+4inp7U124oyT/QSsytpteNCggTVY1OgvA2UotKvP5TQOzhKNLWal39BfcyOs2QwcLzODrrpKAQDLOs8MopyV6RGxrhT33cUOsW38dclBIlpcGki5/q9dhTBkPARyyltdHnwZZDPRtXBr/koaYs/gLn5s+4FT0tEK7vIs7v5xy/Sdu4HFRhk9zVUQnOWegAfv6ipRttJLyW/s0MIs/8h4z+ZYZUPTKW1hgpgcztYzdwyypjz6NcV0Go2P0qfe5wSd6mCVAxY9OoN/9FWGnJ0/C+hv5CeknuUHHOvBpKilT992o5Zw+bpUw/Trx0jojF44J4Cnpj3Jcgj37Mcn7a9bj/Y2JnvKSgHZcah+vWiVh6M5z9p9bYKZH0LPzhfXXoQRp1/AewxYwLQUjnZYw/Ha341NVEmYXJZcTcATpuEj713Gc2AIGwnz4WwsiRiWm6S0ClL1HWviYfO2HcQN46nCIdFgAREqPVfQ72+qjT0vz/dpQ8T3MUpC0a5LWdrOIlBaYzXaYgUCyQn8gCo7k9tDgB2gLfTYoKkIHRbRedkX9c9dJaiyQjouotzbJy4KUApIe0hQ8YIWrDKP5bkE6Lh4HeqcOZtqbIuzmoVzexZ37lHLjZ17wSSEkUnZR8wYa8bNZpLTAbFbDTBNIRru9GWGrZwtG2M0jXvpKnH0HUntgBOnXcW6faWlxwicI+/nkq99L8h4MNGBhSFNJGG2YRPbj39Gn3p/w+FN5oa0V0nERsMJ5r2M/+b0p6ZK8NLCDmNFfhwIi5SxjcRaYzV6YASszLpXt/ztcFLS1wp1f3pjg0V+HGhSQZMVPid5fTxUFQ+rHNYK0a33cahixqmXsLkpubZiDYR6Eqbr7xMZB2C9AOb+L9/iCcX9Hw/Oz0oKH7dikXm7VoIgKWNwsgJwFZrMUZpCir7Auwglz5gMY8WHOfFgbZt/LKtPkiqP5bjHd7wk2lNGfGvVjQ8zZbkYRPEuPnNvLrmhMuIi/uAomxBodysyNCLt5SIdFuHOf0m7b1IU7irN9W2qe9zBLlQKSWsqcQbx1MMqr7hzSaBpjDy2mxV2FCQsz8vOt1zSCQLKapmRvnPsKGKWCQDL/A52kTJWE0UnKZD85NC37JVsrzOkPeCF/dpCy4J6+cm5/A1aU7Uu6/M3Uwhv2pJP6aWuFsJ+POfMh+foP3KDjwvTrzVXh3fRCZSMeEinNHZ7TxalBPjqpgVn0vnnEcPcZwRXspm87zJSNeEn+A+Klr2Ckpgkka6mOUolpPcySukiX6dwpWYGUWI/2taETIJ8MPbY/KKLISwOpN3+BJYSETXg2/ETYWqNd3iNd/pbz9DDYwpUFdVFyBxqwKjHNbL6U3Twkyt/OAjM9GoKB3sw/B4WU5sowqs8GmNciwn4+6cq3knw/ZROxrxbRlGwkV9yUkzXSYSHNd4uiMnxQAE/ao5axWxGxjPs7p8SleMpnbmRAWyuU0xKi11rWo/38uAuy4icdxEzIrE8Zd2TQOM0AFpjNIoANKXiQc30y6+FeGJfQBJKB/Dn1aMDr8vwInmuNUNL06NDJ136QFvoP8HHwL46c24FP4wQceaULpXmmavpdkPYLgMrkwe6G566S/AftuORebpWyiaiSTMsWzgKzWQQzoMqj5teG2sFFQVsr7NmP6yKdezkVEK8Lp978xZz7IoStNdHrK1GmT18tAq5IkHO7GUX1Uaex56fAomA6TqaqJ4h2dVtOv7utNsJJlHWrFRnbwyob4GMhLeWUbeEsMJs1MJNze7lVIKeAgQUMfep9zrM/Osk5gNfhU1mP9sFV/NPAxOB0DFkR+PHuPcxStRyei7+/FtGUeoXguRoWOgAfxAzznPAtIKcz6s2NvOATTSnebZgkQzkZzsxNFh0tMJstMBvg40TZdwiea2CkCQLJ7m5rQTwfFNG66YW14fboU/AU+bBLpusnFLRSG+bQSckB+nF9IlMKSJL8B+Qr3yHt9dNFTpjuZ+hChN080uVvgY3eaDCe/lPDFmG0nxaYzQqYDQrJirIg8vUfYQjRuGVICx4rm4iA1yV6Ys9+DOtj5p8o5yVs/9/bsEbSHKilLEVFKM13s24YAfrUUpz7CoLXGuKldQTPNbjzK9Cnls5Cm5tmGZEOC0lXvm1KutTNKIZbMiYEMA3weuux2AAXjaYxas//4oLPjAZIc7a/XQp94MeENpY/x24e4eJqQeq1/nrMQANGnO1L8PzSzKAyejuE3Xz63V+bqyONltttwySyHu1Dn16KdnmP6P11bbiDKNtXVvJMUR4iK34myvatDXMgX/1uFoIN5fwO9fYmSb5ff/0U52keEFBIkR4amIVv/yvy0Ulzwmm0e71NMJNze9jldRFOcLU4CCT7tOH52T5u1aCArCgPBinyxxvkMn1yl6015fpPsuJnSmOSVRc5pzbUjht0Ql4e3MergWlN+ng1zVWRtaH2OPcVs2YvB8zxrId7FRVhyibiaHQ54XYLzGZYaATWJ1Q89eZGfb5hhT79ATfweBc1H+J1icwHu2Aqfv3+oCqnuQ9bK8h92be/DmVIf72cyh5WGQxgut16OZWNSZfwHl/MYHyNZsWg1HrLeaF27bhUlUg/DmgSgqLuw1pgNvMwa8Mk0W5v1gUJCCS7v7MVFa+WsQf4WGHa9RnfkulOT+fcCu++sinRq5dTOYHUHQN8bGPSJeCIrB/jozP+tH87kA4LiJe+akzwAJux8aavNBmEFpjNMMyGoDz4DbHntNFiSIcFlBs/y0oCBkXUISjWq6XmOesh2O2Yk/5MvxfW9SNQQp5RNIGIr/46FDfwKFxgNhdnRjktofpsEOfcAXmHptOR3wKzmYaZgqeWsjqImbxQW+Klr/Aeq6i3bMQ5d5SNBK3UoRLT23Ep3KDjUG5GvbxxpoNhWnuinJdwnh7uIGbA0hxoHwHKB17ZX4cyVN+11ESTvL82p7VdsxToU+8zHuxUlAcpm14utXbCU3tigdnMw2wIII3Zyy5TlIdICh62ouIM3ZpAGgJqXn30adz5FTO+mTGKWKB+vLe9FRWvYcK6ZNpfhxTn3K0Nc2hK9GzHpUBpWF8mh1M2ErmBx8xqcIe8ariBx9rQCYaz1Z35VJ0PCCmkyIsaTWPY9v9GPvxzqkaezDhvk6ZRR74fuxCZWsbuZZc3JXsTvb6C5ZAzSvcz0ki58bO8PERX/TjQiAfxae4rkQ4LMac/oPlubq6Jglm3hWnXzSYSI+zmEzxWNcScg9RLcCP7ZKh2jGsHJUxq7BUNzEK3/kfV3cNjdDbbn95SmL16feXc/nq0OPce+doPs07xOLKhIl76Sl4WqNmnqUQ0cd4DoL/RUXKw/Q8A5aTOXkheGghyS+rneJ2OzwTScRH56veizFt9vBqzRcFoXisrxVcDsyCbOWU39rz6Xet8f6epswVmY4myyiaivDQQ5mwxHUQ5sTFRToubkr1VEoZaymqpjiJ6rdXFWM3JuUSvtR34dF19SUtNNNFr7XRvz1Au79Lv/iovDTDDZswQGBaYjUXThus1G1pAKh7Ec6bfb2iXGfJvHOFdMCgi7Ocz/XZ30QrUMk4nORtEErotRIgAACAASURBVBjwKMq1HzvJ2bowa66KIFycXrdjzJllnKeHW9FGto7meaEWmM1emKllLKWABFJZyOFBGZC3fvpIrNcsUT9aka/90EFIB1YKbhX7yUGEvV5CrpqTc9Eu7/Hj3GCeFtJ8P5hgCUPvZH4i7ECp+/qoU13UPNie0DwA09zFArNZCjOVhNlNL5Tk+0kLHoNK7QbVUkChM1p+XaQzyB6ns/mZDFFO5lrchc8VlWFDUDnPhpizug7EmmGRjos4Tw71sMp0vxoqCaPhues0mc6AK7D3OkHa1V5ulZk3YzAMW2A2C2EGyou141Nrw+xx55cTLn7ZEOsG8kxJ4JoxtYzTy6loTLyI91g13XubsRGIcV0myrqlkjIGRVRJ7l0oD7kej0XYzafe3tRB0NuVDSl4XdR8mu9mxDSEzwBX4Js2sqInkIHkpQkBBgDz/LTAbHbBTC3jDDRgFeUhjPu7hhmCrRXm7Me8kJMdhHR48m0FbwioH1GiLF+S9zczFeuFcn6nPvq0shGvlrLARsvjS1gikxpbK6LXV4ryEJh5WikgNSZ6wqPFR9n4jY1zvb/aAqdQ1uP9LYiYQSFwppnxg5V6J3jzXzTKxtLru2eWtWpW4+3VNKolzB5WqTD9BunKehh3Qru8x3q0D8R3CuHZb4YUXGUTQVbyjOqzwax2XggPSIeFrMf7gVujnNtJzgJRcwYSLPbcJ6JsX9g3QiVhyMuDSd5TnIhOk2eyLsIRijeH8/+Zwhs30y98x980MCu+sm3AIIWR+Sf2dsIMCIodhPS6CKfR0vqCBHK3beQlAcD+q2N30rwhoH6siWbc245ynpb6mnrsYoThIOzmUXw2dpKzhxS8Xk4l8+FvhuYvtMt7DTHn4F8HOaedmEED5dqmMtoaYb+A4Lm2KeXyjG/GYLCpzfGP2vO/GpgVXtrSWw9Pnw7rb4afbx3M1HLOAB/XXBnOfPjb2MoAkEbu8rfA27Vez8KreSvD+cCfHEKf/sCQpRjFyaQaba0JnmtaaqKHFLyBBmxdpLMhL0U6LuIGHOnjwXL1cHs5FZxnfxj2n8x8UE5LKD4bpAWPlI0GSbhmWm60wGyGBXe1lNXLqRRl+5KvfW/ICoyQna0V0XOttOCRSkw3/OZB6scCTaZ7Q5uVkdFG+NL4/wRS+Uty76mkzEEhRZjuY5iHHDg63tnSRcnTVS1qMAlUkc6jVsce92TAZmwpqB1VE200pttwoczcYoHZDMKMqxLTOsk59c9dTaxkW3NyLqgm4bVWlH1HXwzjqsT0gQaMJvNZL6eCH38BCpqEW67GTcGj4BB96v2GODdNumx5eQjesBKvrRXp0rpWRAzMFDEopIiz7+DcpizMDEoC91ltqH0nOXu0EAEzg8rwdhaYzQzMgKDYiG+piWI/PjAOZw4oeQE/1q2/Hq37LlUSRgchrTHhYnNF2CAwZ3P7GzCizJvES+umw88Y6bSY8+wPyJrHasenka6uN0Qv1u0TSd4DGMZUUmZzVQTp8rcwBY/h5Sa2IOznEzzXNCZ5gc2YgRFfd4lm9twCsxmAGRAUuVXi3HuUGz+Nh+CAaMQNOg7i/3U2G6B8DK2AG3gU6bCQfHW9tPDRAB+nlnOVApK00J987cep9TNG2i+g+W7uouYOyTndjCLG/Z2GkEC5vNeY4DEIr/3J6STn0O9umyrkIx0XU67/KMm7rxsToLsyU3Au5xpqmyYwrAVm5oaZSkzvouQ2xLqNt3o6ymkx88Gudnyq7mcbVIjmVPJjz2kUjFCBstXC9BuQEzp7UERtrgyn+W4x9MkwxIYpLVAaw29akbFDCm5/LbI2zN4Qw0DtEXRigI/Vz1zA7eNVcwKOIh2mQrVoa4VyeY/5YGdzVcS0bsZUErqSj1PycSoRTXfZx4u02twn0XutNZrGAq9N3bVGEqiMd8xJ9n9jNY1qOUfZRGxFxHCeHBxvhBXCfj7l+o+KsmCVWKfAuZw70IAVZd4CWx3tJkqTFSvmXA+jZEgO9mxtmCTWo/2QaKrnmfHyEu21Y5/YWuHdP5fk+6llbKWAKEi5gjFInYCwm0e/u62HVQpjAspGPD/u/JSUiULYWQ/b64lZIOu9DmOf8nNlE1FRHiJI9lZUhE0mlwG/KCT+j/c0MMt1/6mNXjrlUx3vgG8mzNRSVh+vWpLvR/XZOF5jEcLOmuC5Wph5UynQS282KCTLy4KIl9YZAgZ79hNh+g3N1kgtBTXgeSG2GNdlCAPbseG1xlugrMP8BA+lgKgS02TFT3Dnl8N72lqRvL9uxyTBMKYS0yUGgWfwa8dG+MhfwWbs4qrGBA9oZwj3qB4vqb2y/6CAzI87jz71PsFrjSTvwYQ5J78kLOHYh8Mwc/uhlVL4yltPd4c3EGYqCaOLmg9p/1aNm7xsrXBunzbEnOuvg6s92tAJNN/NhiYyqErTenlpgFYDoQm+5se54c4vH89u8GVuKZTzO7zgE308hErCbEUnkLyNYdvtE1nx0yGZHvWrZawWRAzp0rrJGxg0cZni3Lu6uVKmjxwHRdQ2VDzLbw/KCdS25wYe6wM5vCayy7DAbCKrNo61lnMHhZQ2TCI38BjmzLJxY+wkUHvwgk70MIp1b6qWsbooueynhxB282FjIuys8Re/FGXfVon0DWuQ+lGYfoPotWa8Sgikw0L63W1d9EKoAnUe/e422E01QS5NKZdBOUxdQpRzu2j5tDtbJ4Zt3bugnN9l3N/RXBk2YZaiNzHdSRqey7nKJmJzRRjj7jYNxmpOWrEe7e+mFoxjEJ1hLTCbRpipZez+erSs+CnNd8vEtiVIx8WM+zvbscm6+2/gmM8qr486hXIysPCCjdknDbHn+huMZ6geFJKlhY9ATQmTVRGaVP7t6EQo3V0VL/hPw0AypOPi2lB7WCDZkILXX4fiBB4dL6p10QXOIeszN+h4OyEdDmMdUp4YAAyvUss4/fVoSb4f5fqP2pkj7OezHu/vouQa9jelxQKz6YIZCBhjFENJcuCB+nAyGtl4wNoRdvPJ176XlwboOXzIuf11KEHqNWM5Uq3Qp97nBh7rYVeM8e5VIhpQP96yMQn5ttZ4j1WyoicaB+WmJC9DKx/CfgHzwW4oKareYg4KyY3xHpP0qNKUIOPHuveyy7Uy8BhPN8k/qWWsXk6FIPUqqM4zso9FOiwgX1kvzr4z0DBBX0QLzPQoY5IvSXu5SkTrwKfWhthiXSdYwwVha024uFqY4QNjEcomkrTIn+BlpFqnhvV1krK00xjtBOQMxyQy/Xa/wuMJVP36qDHJa1BEGRRSpYWPsec+gX8LbK3J137oJKTD7qWSMKQFj7Cuy+BBMaN8U2DDan4iHRYSvb8WZ/sq+TiYWgV2uyn5qZYyu2kF9c9ddavMIR0XUXw2gnqlxgoGmHhfC8ymGGYa9w5FRSjj/o5XEPEYBDeilAdKZB25SCWmtyJjqbeM5NiANP4/aRx5dS9Ry4D1zFDWUktZneQcTuDxMcK9UC7vckNs+xvQ4L6IWOIlQ2xb4d1XKMqCYQFUahmnDZNA9PpKyxCMomjsRpTTEtqdrYqKUPNkU4Q8aTJ4QSd0a/winRbT721TVEVMcg6NpRGJJz7SaBpzzn3XQszTfUczcv4aaxo1fsAgYOzyt1qxfmxiMvZXK/SppdzAY910PbWvWsbqJGWxHu83tAdAGv81kjw/mB1Jo2CUFfq3YZKMIE3G7mGW1UefAcHOIwKSdj5Ix0WM+ztBeU4pq4OURbu9Rfsn7Qn61FJhuo9Kqq/2UPB6WKU03y2TUS1qapS249IMpz0dRKkS0VpRcaxHe1+GEdlaoZzfYT3a14ZJnPwchFWx6U6rNDDLcFkjrkmYjqcY15ivK8xUEkYnOacuwtlQstLSpSkngL7vbW9DJ+irPdjdjGLgdeEIlMt6h60V1u0zfsJFZRNJb6Hl3L5aRGOCB87tM/qdrZqSn3odFDy1nNNfjxKkXYXyGb/0Mwa88doPGo+TXnY5J+CoYbZjlPM7dVGnDPV+A3yc0f56c4Y9gs5PyPr8UUPMOZA1xCADCmz+U/AT8kqTlwfTfDdrt5EIW2vMmQ95wSc6SdmwiO+J3VFUE5/hssYCs8mJjpDWvhURA2pKTC6pG8JuHvnqd7Lip3pfUDmnj1cDqnW6fmRArJDGP+RkH7dajwLk3AE+Xpx7T+MggrRfQLn+g7wkwBAVQ3LuYBNJUvCQ4LVWw4HBttDjS0VZEJQ/B98YfwHpuAR2X6TjIrb/7/CbKniDImpjwkUj3wIdIMGG0v0JxWWuEWXf7m/AmmMzBikVxTl3yVe/00ofGqVLQ9QZUCZmityRLTCbHMAUPI3WXpJ3n3J9sk66GtlPlO0LC3JRNuIleQ8MK1PXnJyLdFrMfLgbOPLqbOE0pWQUFeGky99oiRhhN4/otRaqg2Ek+FolpjdXhlOu/4B0WIQ5+7Eg9SoUSEaW5PuBypr6IEHYz6fe2thBhKs91FKmrOiJMRWoPvvVH007ONJxMfXWL4qKUBVUDQf2RFP+E0jUnMrGRE+QsGgknyTk8r+6Kdm7j1et75M5KTqxwGxSywd0U4zihlg33IWVk62maQsCJZsSPQf4eF2SUolpLdWRFJ8NWlLQ0iUgd58Nreh43f5DCh6UxTEN+M7r77igPBkrGhMvahyL4VdJmW3oRNbD32rDHZVNBAC86kiCh4Hbiq0V4eKXzRWhMIlOLee045KB2uPkRDwnUc7vsp8cBKmvDOrHw+Y5JT/VUlY3raAuwgkDynkPTxhhv4B85Ttxzt3RrI4TvrUFZhOGGfDKbcelcJ4eHkNZp4XEq06sMGc+qA2z72WX675LtYzdQcxg+u0x9KJA2FkTL62TFj4xUHtwepglvJCThpoSMAfINbE21N5oFXO1jN1Xi+ivQ6qlzA5iJsVng8G0rdBnPhBn+6qkLN15glwg7EpQD1Ef2AaXG2Nrttbo00vro8/0ssxhGdN8hjoI6bAXh3RYSL25UVYSALOgwB5zYj8tMJsIzICvfSNeXvKMesvGMBLEJNrSF5xQTktYj/Z2EDJ036JaxummF/KCT2i35i9HtrXCua9oSrlsqPbor0M1JnqOHfmCdAI6tNGcKtQyTg+zlP3koCFmUC7vNsSc1TOXQ8LqYBORE3jMsP/LCes/r7YdYT8f7/G5KMMHZFM0yCOkuxpTdA4+jq3IGMa97bobSKTjIvq9HS01zwenpy6uBWbjhhmQ6bnVTSmXQeZ3u5faOS3pjPdEI/s1V0boWZ/knF5uJT/uvK4ZZ2RkK8yZD2vDHftqEfrEBzLJSfIfgDzEo5C1th3psIB2a1MHLgVO3CC4BtMQc9aoRxX72ZE+fVMeYA4iWlOiJ8pQBfrqOSykXP9JURY8SauU/iKM/kKBpyJJVhIAomntR3xBIcU9+/GBDkLalCgVjU5GjEjMPL1uWNPovFpUFWe0mzkbZ7VCX6O154XYTcgP2IjIBGQ/r7WSvPt6LAKidVH2bfxFg63RybkopyXsxwdgVjWg9hBRQQqAK99qsTT2CcZ1mSZnjs7bBTHXoqzbL81HI1BB2i+g+27pJOfodAYErdKoPc7pBLyNXDLm3YFVivl4fzvYjMHlT9gtpuQnZLrAiDJvgeozWoWHrTXG9UNeyMkuav5UKRWNzlaOyyrwtNHALNn2s7r8QKPdzNk4W2Em5w4KyC3VkSAXIhQZMSYZGUEUrD/C1hrptJjgtaYp+TLMkQdSP0RRrv8EuwSoFu0X0G5vbselwF4JMCITMhj3dhheYrzF1grvsUpTWUI7lEpMU1SE4dzggWTQt2BdS3WUtqfmRC3jtONTjQbFGL+pBoHQ/rAu0qWXWzmtxK2drUapyI93BzFyI7tHqIrFcmCgY5fBWbq+2lY7zoRPLDAbXcbQWWvwLWzAiHN8SZenJEuuFdJhIf7C55zAo82V4bAquJoga1nxU9Ll9S9lG4hANVY14NwEU8fJOb3s8toQW9OFWKTDQsa9HX3cKi3pgCAXah7IYwdjR8Dz62NJ7n04Lcq5QO1x51d4f9jl+j+BVer8CkHa9UGYMV1ntbVTmpITjVKxNsQWc/oD7VRBNoeLXwpTr/TDBW+T6GG8E7PA7NXLqpayepglDc9dJ+neMfyOba3QLiB0CnjrCSmwF6aSMHo5ld2M4v46pLwskOKzEeGwUHsh3mMV5EwM9/bor0OB3dF48g2jnJZwA4/317+MlwHFNXPuGmzJgOcXP+GCWsrWmyowf2O5wX9qCdeUE4T9Asq1H+RlgXrG92kDGKjrLWF04FNZj/bp+peC0J4r6yX5fjAhQu8Bp3RWFpi9AmaDYlo7NontfwDtMiVJs4djVboouUblJQ1g6L5bZcVPBvjYVnQ84wFUswJylq+PPg1zJh5S8JRNREm+nylqD10koJzf4Qb/qRvZMSiiirJ9YXGiKKclnMBjut00tDgoJDcle6PHAWwr4ETmtwdWqnP6KBt4t4ioLdVRtNubdbXBCIcF1JsbFeVGvnHTNxkLzMaCGbRXCaXe3IDQBkHaWoEN9Ih8r0u4ppyjnN/hBBzpohkLwoVylSkbCZI8P5L3NwSvr0RZtwcasF3UPM6zI9hzn3CeHuphlsBIQSWmt9REk64YyZQ49nyQjouYD/f28Wq0AwIbHSGDoOMSAdTcd7cZ6lpUEiYoGH1+xdi3ePlXW8ASgVWQUzU0Re5L2mkbP5FzBxrx0sJHsJyQIFbo3o42VLzZ2KlmehaYjQWzTmIm4/5O7bdQU22EeOkr3LlPUU5LEPYLEHbzTEcdRNm/tePT9BT3Ci6IVRFS+uvR/Q1oENklIDdXRlBv/oL3+KIx0bO/DtnDLJHk3e8g6lnVgEQkY3eSshkPdmlVZy8pW39HZNiOsLMmXfm2i6YXBDAopEhy7hK91iIdF4H6YLd+aUXBVc9qGbsdn06+8p3hmEZbgKbBbbkg5bLSSC2bsRbfOH5MkOXARroO2ZR6BaToe/lBBLI6++lB4A1sBo9k/XnK8TBNY8CEn26qLpxFmkZpoT/h4mot9eDdVwrSb7Rhk6RF/g2xbpynh+i+W0jeX2PPfYx0Wjw26hAgi+iWFkSMnv8EcA8ntuNSBKlXuMF/coP/FKRebcelDjQS2vFpzIe/4dxXAo2c0WhoObeXVV4bam/c2+NVMKs5ORd79mPgH6xPcyCjDiq+Ie48P+EC0EPqk4taDgoXmq7PhJL/fCsremIerT306eH0sCvqo05BpQxH9L1QxbPaMLseZjFckaP/gLDnnaqfzcTcIu+tGoV+0omPa7P9p2rkCY8zW2CmkrKaUi5DPm/Db4sT8Ad4TyMvRpM0ogOfKi14xI87zwk4Qr/zK0Cd60dIx0UvUXcSyJlksPUP1jOOKYAWQZz/gOj90sEXVNy7tFaU5TtQj+mmF9WG2NFub1WUh2hvOnICqgdCKQPe134FxnuCdFzM9j84oJ8nfGR8Y3wGlCzE8EJtTbwRwn4B497ONmyy2bgHlBEohxtwBO3yclmADOK2nB93HvIGNvZcIy90rGefXJ82WknFrf0amMX/8R4z6eb03cvEkWcLzPrr0HURTlp/RaTjIkHqlTEc3oCrfh2qHZcCoc6dE3iUfvdXovc6zJllpMvfSPL9YHpFoLoYxe8e+BCnXB7gYzUD6u6gNIsIqT0eGsmUaAIT0wUJ5swyacEjE2GgElGEqVdNUnvYWgFNZvCfPZwKs3EPtZTVhklk3N+B1LFqQrkevhRm+AyMkoPIRKKcZDcLzEb9vHXTizhPD2sVwQSPVfLiZ8PsyITU6iD/aS2iDZMkLXzcgngOw+egiCYvDRpDdUH0XicvDTSqMND47JOumro70sUV7Bwk677ybSsSXrfFkKpUYrq8LMgUtQfC1hp77uOmJC+lQN/wMDmGYDglnRagVFSUh1B8Nuhm7ELYWZOvrJcWPYYtvs6Fo779qe1jgdmoC91JymL67da67VJ9NoCdlYQ5JOcM1KP7apGgypGUBVjBOH1eVVJmC+I55aah//vIXuLkXPTppXURzv118GTrkNojC6g9psKdElRysl9AvfFzc1UEMHkbVQPKORqNK8n7axhKDX9CcQNfSQsf66t5Rl3kKaBmSKkoyr4DwlJ11gRhN496c2NzVaSZHCbH/IhYYDYqBXTgU+l3tmkVDIx7OzqAkhD4DfPj3Rn3d9aG2okyfJqrIrsZxUoBSS1lqmVsYA0bE3VAU4dNBoVRRjzrDIkVOFU5LGQ82NVJytQjRKD2KKsNtdOC3+i1423UuEQ0JXl1UfJU4CnAtwM6WKCwBq2gKdmLYMy7EnYjkED/zq9tmISxV0Dvicakzlf3lHP7eDX8BA9QSfilUhFUgWPcB9tCMyvuR5uwBWajwqwdm0T33aqFGfPhXuA4C5JnoOUlAbyQk5QbPxM8VhE8viBf+4H1eH9DjKsk734bNqm/FqmSMIxan0EddFIm89FemBcVjF41vov0u9tgur7+enRToif61HuG/SffAlw0fH6ui3QRZfvKSwPlZUHibN/66DPAE0WHS4x2I4TdfFAUilk2hUHHo1HtcLucCyLrQu1gdT+Qjos5T//opOSqZeZwSn7FJKHviAVmo8MMl0K/+6vWMM18+FsnKVubIF4lpveyK1tRcZK8+/w4N/bTQzTfLdQbGyjXfqDd3lwX4dSGjlfBC3yBTNecgCOm8CLgpRFwBGaPbsengawVdvNA+Vydj/dopD+xdoT9fMyZZZgzy5D2I35eY2tWgPX5/cYED2UTwRSam5I+ajlHk+dLu3mGHtYKffqDughnkK7HqAA8SeY50cstMBsVZp3ETOaD3UiHRRpiZT7Y1UHMGG3LMSii9nIq2rHJ0iJ/fpw7P87dIGcbt4dZWhtmb6LnIe78CmH6DVge/P46pCTvPi/UjnZnC/7CSqTDQh37+ERSA0wMh7pXaVR5QF0pMR/rUMs5rchY+p0teh8skOFrOTDoA29g7pSAeaoG6WRX1jw4qlHoxx5cRI3xnqqRJzzObFHod9MK2E9+14Yh03w3t2ESTZFD1HKOoV6kj1vVEONqLEbzpdpDS74o5yXspwcNvZyA+VXOUQrJPeyydnyKoixImH6DF2ZH9d2iKfUCuaRMI6PTzlBzgrCzpt22MfQUmfC7N+VClZQhK34K5aLSrUhoRfBcDfJvTyI3sCl3n1ifbh4S7W+vgVn0PmtC2PmJjTOFV80WmPVyqnghJ7UJ4chXv2uujIAl3jDxsYFDcNIlrG6xv9HFMIT9PKrPz83VkaaIPWo5Z1BI7mVXdBAzmisjRJm3asPtab5bcG6fIWythx3Bpke8RNjNYwf80c00a0U8pYAkSL8GVa+3fol5WyvS1e/lpYGDArKJb8TM3SwwG1VoVDYRG2LOafkPzn2FtPDx8HZLzlU2ErqZpf11KOBGBFSLo0opA40EYdZtvGGKqFGQhnNfKcy8qZpQUgq1jKMUkHo5lR2krJaaKFH2bQh1m3FnPwF7OYC3qZEtkU6LQck189p8++pQwzmS9Z+CesumFRmr72Ez6ms1M8A0t7PAbNT3oZZzBOnXgaYYwgPScZEw7Zrme6kS0yR5D6g+G4iXvqLf3VYX4SzJf9BJzhkUUmFvcVBIkRY9Jnp/baLGApjLIl1gFQNhY5r+E0iYAlIvt7qTktuKjBXn3K0Nd6Dd3gwFzk0Ub6Cs4XJJ7n0z26O6mSXcgCP6Cg+QqIvht6udkKaCxblOVFdh+tqOq6cFZqPCbEjBg7kO10U6a4Jt1TKQBrgNnSjJuVcb7ki7vYl6c6M49x7M20AlZSoqw8jXfxzbRKYVfjQu/IYlXUDcVM1zzrM/OIHHxNm+7dhkqID6WDM3SgQQ6sh9PEQXrbANkyTJu18X4QwkTIM6L9opwU4QttaU6z+2ImJN9M8yOo0JNHYQ0qFcVMPqqJEP30JuwJEuagE85HSWYWxIwbPAbCxibUPFU2/ZaG1czAe7O0iZulsmtYwzKKL08ap7GKUDDThdPaRaxmlFxlFvbzLMPg+j3eGfdtakq+sVZUGGFKxsIshKAuj3tuPcPsOc/gDr9hnR6yu679a6SGdJ/sNOUjZwaxrTJm6UsiFtCqW/DtXDLGnHpUjy/eojXeh3fgURosZM5wi7ecxH+2CxM0ZHnspGOae5KoJ87QetAVOzXGiX9xuiz/RyKnRfx1Ted0qxaoHZWDDrZZdzA49pVfCEi6tAUT9Y3ddR3kc7PpVxb4cWosahpbM9w7p9Jki9ajRPIAAzCEgDeGhDJ4gyb3EDj1Ou/4h1+wRz5kPc+eWkS+uYD3Y1xLrJS4O66UUqERUAfnzA40LaFEp/A6aXXd5OyJAWPm547sq4txN3fiXCbh7SeUldhDPkzj/qLnTKqVwlZYhz7xM84Yn6sOc+EaRcAYHk43vGsd71lE9ed0ALzMZaerWM3ZTsrY2FQdgv4MdfgGXI0V1N7XknOYf1aL+uG+vYMEO5vMsLteuFlZswAmDukHwkDLQO3c0obq6Obkr2Zvn/TvL+BuP6Mdb1I5z7StLl9azHBxoTvVqqIns5lYNiOqSn0au8rp2qsRPoLnLOoIg6wMf18Wo6iJlt2ORB87kCg5eiFJAakzw1KlPd1cN7fCHNewCqvL8mGBtS8PoacLjgMxqFfsSuv6Of2Btb9rFIccr7zxaFvubB5GVBJO9vtAoMxv0dIDfwmB4G3fRCwAOd4FVUdGlF9xzpsIBxbxuUE26cjAIECnDUEqZSQOqvQ3XTChRlQfy480y/PaRLX2HPfoI99yn+wueU6z9yAo8J02+0oRP6ahFKIRkoDMZ8BP2XClBnZprur0XUhjugT3+gXXnNigG52liqIv0Jm5VeTbn1gIBCivTQwCx8+1+RD/805app7TO7YNbNKGE/PaTFDMZ1mTjn3hja9l5WeV24I+Y0vIqKLq5g50SvtaC4r28ziAAAG2pJREFUs34Us1rGHuDjetkV/XWoQSHFcMNm8A6GGZ1KwgCoq0d1UnKlRf71UadA2JvnapzbZzi35QSPVbTbm2vDHaV5fp2k7IF6jFJAVs0a3z/NQ3XTC9mP9xsoFa2ptze3oZNms+Le4KUMA94AZidG62m29tkFsyE5R5B2TavWR9hZs/wPdFJyjX7d+3iIhtjz48ozhz37UVPiRZiKckjBG+DjQIrcS+uIl9axHx9oTPJqro7sZpYONGBBAI4+Jo29m2HUqSWMQQHY17Xj0yQ5d2vDgEKf4PEl7vxynNty4qV1zId7+PHuioqQbkZRfz1GKSSbMPh0sQuQXxWTRNep6Kf5JCHt5gOfUnIOPEGlEbl6uuZmbJFNvZcFZq9eqXZMEijxOpJ1HXPmQ1HWbUOr0UADVpB2VT/NixFHKl1WhnRazAk42sMy4tU+KKJ1EDMFaVc5AUcoN37CXwTAwF/4gnrLhhdqJ86524FP6+VUDTTiTXNMARoOtZSlEjOUAnIfr7oVlSBM9+EGnaDc3Ei4+CXOfSXefSX1xs/cwGOiDJ82dEIvu2KAj1VJ6JMhr3Fdq5LQFWXBpCvrYUpFlPMSXvCfZireOT24tcDs1TADFSjjPbRJ87FnP4ZykhJ1aUgpIIlz7xG91sL2Erqggp0jbK1pt2xAdbJRtvIjwKArm4jdjCJ5aSA/9jzr0V7y1fV4j1V4oOr4mum3hx97XlEW3EnJ6eVVQ2Fv+nlLjdIN0KNAqJMwBoWUHnZFS1VEU/Il9rM/KNd/IniuwbmvJF5ax3iwqz76jLzkWScl2zBVo+7jT/58UEgWZd3CX/gcFnSDOfNBQ+y510ipaHQpLDB7NcyGFLx2bDJgaHbz0C7vNUSf6eNU6mIDBPCXBoCsAcbMTTB0aX8SLn4JKlSYyC6AOzJLJWGoRLSBBkwHPk2Se68uwkmT5AcPwt5WUW/+wg06Lsy40YqM6aYX9dej4JE4RiGn4Gm0lyoJUyWmDwpIXbR8eUkAUKU83ke++h3h4pfka98bS/tj0tIZJTtY4wAfx491w7h+BPtI4dw+E6bfAAgf5UsEG2e2/RRVxZVc3ZHnsSH3/I+Jxz7UqECCbP41dOt/ROz8e8TOvyce/5AWd2VGpj3L9mYQaaolTGH6DYLXWl7wCeA4r/PW1VJWS3Uk1WeDqWZoyFYGPtIxZw19AtUytkpMe5VpTsOLNKgg93IrW2qiBanXuIHHqbdsiJfWETxWkS5/y3ywuz76tLTwcTsupYdVMsDHmegtMcxFJQyNQr8Vk9BaEw2rITqFlAG5aNuC1Eb6Ls4Ez9XSQiiNh85qT+F9zTCUgpBTfPnXkC3/HrLl34I3/WUEZnO0Jznnvmujw1PcmmFiQwrebITZkILXwy6XlwWDpNw6hYKAqwcqnnZ7M0zU0bIsoydIhwWgchI1XxeumspJrcjY+ujTjQmeivKwTlJ2Hw8xhlZz+H1AljQVQAVtoBHfRcuTlwbw4y+w/Q9Qb/xE9PqK6LWWdvMX9tNDjUleirLgDkIGMKYJ4On7R3u7mmwFsKmO1nm87V3UPNajA5BSUc/Hknz1e0VVOJQLbJxGjtE49ky0qyRMRqJPxI6/aXGle/J8/3xShPtMebHMUphB33iQ7eMlJcm5Hfg0xoOd2ghro6AybKRc/6m5KlIXrpoxlU1EaZE/7c5WoucaYPLy+IJ+Z0t9pIu04GEbJrGHWQKvzWmMdDTzBOKfkDJQj2nHpkryHtRHn2Y+2ku5/jPRay3pynr63V95ISdFGTebqyM7ydl9dUjzu95CX6g42u1NulUzwVrZWtPubG3DJJsq8RpbhJfvaKb/KsdnFXpt0kWX9jzH7fs22su0n2ae8yyFmeEqdFFy2U8OIk02Q2vwhr/wuTDzlvHIKDlXJWH01yLbMEni7Dt14Y6MB7vIV74Dyvfzy8nXfuAGHBOmX2+uiugi5w7UY0wQAoHLiIbRKZtAgExLzXNhhg8vzJZ+fwf56vck768pN35mPtxTH31GkvegFRHbTS9UTn9kpEpMlxU/IXl/g7TXDc0E1dvY/ge6yLmmqU+nbHNo+HKnqmVQwmAm3TRkaBAru6DrBDtVdzRxnNcDZj2MYl7wn7rZbQ25lmEL+tR7dZHOUPrb0WUhrRAopAw0YDspubKSZ/yEC+ynh6k3bQgXV+POryB5f818+Bs/7oKs6Ek7NqWPW2WS0VbOhXT6EKPj47ooefKywKYkT07gMdqdraQr35Kvfke7tYnlf7Ax4aKsyB+wUHa5oenCxBc5WjdlE1GYdl3jKqm7RCjnd2tD7XtYpaaEqI82+CxsVwCGtlnLxDQnmae/kmHgudPNOfnXAGa93CooS/tH44qSRNjPZ/rt6SQYSSgCeI7xiCmg7VBJmIMiqrKJ2MMub6mJFqX71IbZM+7vJF35Fu++kui1huYLkvyIs31baqK7GcXGWaWB+KQZWSWiAa+RWmQbNlma/7Ah1o3tf5B28xfS5W/J176n3d7MDTzRlOwtLwnoYVdOng766lENMWcxZ+BeVJizH/PjPfprETO1V5n8o402wqCEwcl4EHNggRZpkbv+gfK306umYPB2RhttqtpnO8z669GNiRd1y6vqfpLHOCdfWS8vDTRkO33canHO3YY4NyC2oWJ7WKWjMZCRfRdtUEAGeb/xqbJCKH0/YHS/ED3XEDzXUG/8zAk4CoBRGtRJyjFVQ6jD6EBgOKO4pTpSlOFTF+nM9PuNdOVbpt/udoPKFeN95T2sMm7QcShfup7Cg3DhC1HWrddXcf/KdWinl1b6HtDCLMNljQSR+MqrprXDrIYZEHgyfPAXvzQxUlOLOtz55YLUq4bbHpDCIOMm3n0FymkJ+tRSwsXVjHs76sIdhenXFRWhXdTcUbOyDcuWwxJgN62wuTJcmH6jLsKR8WA3+cp64qWvQALJh781PD8ryXvQhk3q49WYyCuG8SyC8FyPbsclt+PTRgO/idTQScxiPdxrqFQkXlonK34K3M1eW8X9K1dALWPX5vhrGFrkrn+gAStjvvKqae0we2E2KKJK8h8Svb8el4ms5uRclMt7vFBbkHRRn5JUUmZzdZRueDWo+26/AOm4GOXyLu78ctqtTdzAY42JF2XA/JXaX4+CjaB9E7qyZS+3qg2dCCpmJHhwAo5Qb9uAfdeV9fQ7W3ihdoK0q82V4d2MIpNhA3Z0kF509P3kq2SelprnoGqm42Ltd0dzQrkBlK6DoPTZxAfXLsJsPoEY2u9BNnMyT62dcVY2e+1mKilLXhYEwnhNSMGrS0xQyuttbehEmAYfZPkmpDH8dmu9JXWvAue2Vgj7+ZqKftizH1NAbuMD9dGu4uw7rYiYHnb5qFbslxIgub8B00nOUVSEitJ96iKcmX57KDd+Jl/7nuqzkfPkID/uvLTwUQchY/p8qdQytqzQn3xlvbYao/Yx6Xe3tWGToEjWNxxjmpqPtTn+ySc+QvvbzwY96mzkZmo5p6U6inrzF5hXq5ZixjghXlonLXxsyDpA0QlyTkPMOdrtzSB4cWz02lqBEGaHhSinJZgzH4JUP/e280JONiVfUpQGdVHzIYZgVMGt1elTlY34HlZZGyZRVuTflHSJG3Sc7ruVcv0nytXvGWA0W2H69ZbqqB52uZ558FWcagweMiikaNypYSWtkXbzOU8Pd5KzR/1STOKmY8xnZv/UTi/lpN8Tz/SuTLMIsxFm7Zgkxt1t2gzEY4AK9ifsuU8aEy9ChV2MfLDVEuZAPbqLmttSHSXJvdfw/Bzz4W8EzzWGwpX+sBrILUA6LUafel/jts95eqg+5qwk/2EHIX2M+G4dJQqpvw7ZQcpurooQ59ypjz7DfLSPdnsT5foP1Jsb2U8ONsSckxb6dxIzQJzyhIh+oAFb//wMxvUj2D4W5fJOXaRzD6N4lkS1YJ45x/3xrhmO2IOLo/dZxxxYYIZ7aW+RdeZro69v1sGsg5jBerRXG9mpT/FjhbpAefCPdlHzxlI8jFjJgE8wHweyfWASZSVPm5K9uQFHydd+0NYxHO2+IO2pRrZ0eRfr9hn52g9Mvz214faiTJ9WZGwfr3rUu4/cGvguNuJ7mKVtmCR5yTNBymVe8J/0e9upQLz8gXFvB1St91pzdWQPq0wlZRh9bbDGXk4FN+gEqKqh76mIPbusKekSUMbo+tNMCMawO074Z+Wdg1od4Jt3Enf4HaMrM7tg1kXN4wQcMdRBj0b0Ou1W1JsbW6qjxiMXvfQJVjYRe7lVHYSM5spwcdbtugjH4fyK+lSrczsI8EC2nD8sW7ouI3l/zbj7KzfwaGOil6I8tJtRPMZkoNAYpkoMzGh9tQjA6KqjJPl+DbFnWf4HqDd/IXit5Qaf6OVUGH1tuo2d5Gym3x54+PPJuXj3z8W5dyHFvemJSYxKwlPZaIHZVK6mLh2YeN7DLKkNswfFwscmbp0EVVq6Byndc+9NJk0NJOCB4BfIOxHVRctvRcWBhFOxINsH4eKqV6X0GZEtHRejTy8lXPyS6rOR9Whfw3NXWeHjTlKWcoxU2DqMDuzoAI9NlpcEtCCfv7IGZysyhnZrk14RCWh9SN5fy0uDZqHi3gKzmYRZL6+6IebsaEkLtXAyeoI9+1FD7Nlerl5YmonYNt5NQ/dSpla2bMelKsqDBalXOM/+IF1er81yZ3Q+oCqnRrZ0WIh2eQ/nvpJ89XvG/R28MHtR1p02TFJ/PWY0UwGkJeOopYDRgeg4fZuE3mzlXFnxE0ipqOepWHNyLsXn5xZE7Oz0uLfAbMZgNtCAaUq5jPdYNV4TGagA6LiI9Xh/ByF92rYfI7HPYhBY3cut7CRlAyesLF9QHebWL8NahzE4sK01pLdcgHJ+B+v2CdF7He32Fm7AUUHq1Zaa6F5u5ThTX4HXpJKyQPizxyqYfQJhZ824t6Mdn2bo/qIH0ZnbnllgNjMwUzaRRNl3iJe+eoWS3ZisWHNyLvnaD4ryEPNR1bCAxxwUkPtqEV30AqiuvH/D87OM+zvw7iuRjosQ9vNGlXvBdg4oUYCpwPUjgudqyo2fWQ/38uPc5WWB3fTCQSEVhAKMmXAO5HFI8sKe+wSmVEQ6LOQEHOmmFcy408MYkLbAbAZgBmI0ip6Qr34P+yqPJozB2vEXvhBm3pyxKlsAciDJB1AeNmB6WKUdxAxFeWhTkhfb/3fSpXVol/eRjqD4IGzaIz+tgGwJGejQp5biL3xOvrKecXdbXaSLNN+vk5g5wMepxHRY+AZQ3Me4Gu5gUS7v1Eed7p06K9wYUJnMnywwMzfM1DK2oiKUcmPDeCM1NWSKARVZnQydqiZDBJO4FkqWCrIe0JWNhD5uVRc1rxUZK8q6xQv+k3LjJ4zrRyjnd8b6mmhs4vYLUC7vYs99Srz0FfXmRl7wSUn+wy5qvrIRP9hE7qTkcgKOQuWw9byBsWeXCVIu99ciRzUnzJyUCFtSC8zMCjO1jNOCiKHe3mToFjTysR/LSoawn8+4v6sdmwxzqoK91Bn7KdfkkGMOghTFyG5GcTs2RVLgVxfpTLuzFe++An1qKbC/j7qjG2Z0KOd3cG6fATeUO1vY/gfI1743tCji3VdK8u6D4IAx9CUWmNm8TAoyffa62WU3U8s4bZhkxv2dr/LAGA1pVqQr3xqNc5kxXI1Nx8DvkQ1MBQ2YXk5FJzkbJKgDicF3E7zWDDO6URN1gYqEGpu4ofxJ8v5GXh4yGUuGmVfMws3MxM3Uck4nMZPtfwDl8p4pjMuwD9bts6aUy0AtPjZxz9K/QuVgIDeUPm51Fy2/uTKiKekS+8lB0pX1OLfP0C7vAyXKKCqfl+221pSbG1tRsYYOnLN5WSwwMxPMummFvKDjhiG9LwloTApDOb/DCzrRTSuY/fsQk8hdzoW2c/g+Xk03o7gVEStMv84NPEa+8RP+wueYMx/AEnhoVglpv4DxYHcHIX0MRxOT7m72L5EFZuaAWS+7oj7yFEh8P+q2ZDRBEWq3s6b5bmlFxqklMxyoN01ErJIwlU3E/loEcHrEJomzfWtD7ai3bAieqzGuH2v2sSind7iBx7vphbN0XzomdC0wm3aY9dehGhMvQjmlrU3kXbBuBM810oJHkH/DtM92moBk+rBqKUvZBDQoPawykPk4735thBPNdws/5mwvuxKm6Dd92JntaYHZ9BKushEvTL9O8FxjuI+HYWm0nxjXZfx49z5ezcwSyozcXS1jQ0pLVA+rbKBhLF+tGZme6Tc1EWaRJ7ZhklNlLExtkl3u8XlxHi6oyqImFkbGKqkruFHquiIKrjmcG3F4S37gXS62QAa6YWSkMn7mvcprq6MPDOsYw49/V5qcB/6EeU6/t+65zb9oVI5hf6wpis8F7fhE+qP1Wj1kxNEvK/PAUGJMAuHGB9r2MU5mWNM4KKSIc++DjAMjpV5Gw9Jo7UjHRZynh7vIOdPmVDW9XxnTCfHN7mkizKIvuDJp8hcvXrRRCutKosVCUe+AaujFixcvVKo+RRcxHHV5hQ65L83wvM0j8TpaWgdVg6DXixcvhtTqntZuCa6p6HSJA0Ba8LGNZflM8CeVQFZ6Lm0YZn+Pc3VgNilBu1rajPRKHW63SnD1auwFzUopnnbtv3VuN6ptYCZhppIwZCVPyde+n0A09AjqrKg+441zscBmNq6AqTDzPM9ktgJE9HYpe7sggAGKH/6nFAizXDL2ach9bpKnB5utGFSN/FXv/2p1L5Wf9keSzb8E/fpZ9qOENvDXwS5mXI2ThpstSfG6Lx7GZncnM6z0INS+7YPU27HtoHN3Fy+8eM8w6xsbbDMGM7WM1VwVQfXZ8KpAkrE0H3iPL8Q5dw3L/73ZH/438unGCzMIMl0tmGeo6z8VBF6vrxNALaoeWjjCHUrGeHhjeQZiAMLYYBu1If10kdtPWW67S4KD+SIIUy+UvdwUjMeSIJsFKZdvNnaCAdRyDC9gHcDMvtU5UeUQLwMccEBURbv5fpDNnNBDa4qzWWoASVkryhOgFC6mGuFpMwMzUA8Sm0y/u80wIGqETY2FLk0f9Kn365+f6dUvv/RGkuDb8FDjh1lnK+Zxpes7kVvnhOxeXhSd2NwDcNLPScBcBniI8XCksyDZrq9emHcu4+A/QwEe/iN0z+f5QeHSLtD5/3VQ62N3R9v8e7TL7wQyYJIverjC9CPRNv8SdvynilI+aIH+/b82RlP0L0E2c6JO/oghDwBAtnP4kT+EmYCxIJs5MwOz/noML/gkeqJmaBC4BQq07oXiXFhvAxW+8c84bpj1UnmRe+O3apjJ4qzHgaIOAIgRmM1N8/XlN4OWQUEh+f+3d+4xbVVxHP9v+8O5OWeWLT7JEiG+kT+chqiZiRAYSIQtQoyyGRzykMe6BzJIgy5MkREzsg7oUmC8CkVglhVXHiKja3l0UChrKa8WWiiPWgaFFsquOacMC9TmsvZy2+4QQi69r3O//X3O7/zOOfd3fvGCjJn8zK7ChJP3RNChGRUq7mmW747cUO8/S/5eAH5LMyP4lRP2bHFilFiuxwxa/aRkRothy6bw7GBpYvIw4NmwIK/lx+3F48pIwkwt1fCZcL2/dfNc8fsx8J4L9ePJxjzXWK/E5RHC84BbxmyWL6YFFKy22TZj9gb7SqEathjnRIw7lD3mPDBijgsEE9BLqcabkqp8d1zzf4X1Y8YoaDcaF4frhFTviguZY0vY8lS3qvHnXhmgdX6ghnf6VdYlGJgtTWr41MrPcLUYycHMqJaobmW1n313S1yZHwzWj6xMIy6rIR6zQMfYVwF7Y+Z5i8achiQtSJiClJcsY6YfGL15qhSwuquYcrJ3CJzwcKpzsDyBDQOzxZH6rmwfbq0EcDYukDJCbt8Ug8BsfkhdHYazxUgaZkp2RtuZd8zJwb/Ni3GT0SPnxFwXmVRldW6EfU3Zka9mb8wO1VymKecANiszfEmev9l42v6yC+elo7B3QyMczA8wtSfzvvFp4gK3hS0ppiXVooZhDNNquq7UhblXpufPYNjD+cEZYY4IBmaG8XbxpefN0bW+TUpsJp1uKQALsVudo2h577cHezOCNAKmg2QXdGTDda6y2Ruzp4uS4nruw3DN+EDbWcRL9ISk7S+M/krQ0rkAe+oXB2o6Ug+sEhL4Vk1WKeypNyzrNTqNHjMoJuoTynwPlFGShrQYtrJo1E3oALpzs5Lr3ON4W4zkeLOVyX6dtLnvty8e420XYYr3xO3s/0/u64gjQs5l7mSV1t6Y7cwN+ai+mAt76bEVneaBTKBsr1O0Nyql0jkddGX6UVUdpfK/ga9nSs5+d38MNjThn+UpYX/Oh3Tfp/JPBfI7TC1QuGNpfLo1qRxfV76JYVK8Wf+ySjzVlNeVdmRLkz8Eia/LmckLsjsuv6ICWbZO4n3tjtk1330FidFt9+Sg933zj35a05zdEOFm1gO5kxEVyG8zDamBExZH6jtTwYrVOV++z6kWrV3D+E/fMOMT/IEZad4MrKSuEKq5V7sv+uAcOmuNellKOwGSBztMolwSjdL1bo0Xs7hIcZscWPy6nsbdFek/DSohG4/GzYAbCXrxBiWksSxnqEeuh3EaiLz005O9rJ6ccE6EB2P9qFdu6Ae1JS2w3YitBmamlmGAe3lagRK2QDHMoBth8+P3WQ/GNuwlx5uZrGRJIZxqZogvB2/OjLs5MBOl+8203ti+TFWoZ2J7FcCJWd7nhyq+9+VQgznJRyrCX1jzRdfDXmOdC+ZQg2sph0tDzeYZHt1ND3Nnxn7KTgZ7wQEpfr/Hvl10bK8Fd+T/HOOEdzU8jEM9WhP/5qOOkz30Y56sJNMVgthnDhcFWZjqsQEt83/JxAz4tLFujYApoYXfjXPfjNbaJx0/vKeqzXzs5Rpcr+53vSfCiZm57TrRNsmYgQyeqt7Zrj8G8mPBO50RFgas+fEeQ0UUkDXeapZC17O8J+qJEGaEd98ZJ/rm+xrAm53nvTYkGObFuEmvfj0rrHHGN4KfKE5sfFiEGeGYgW9ILVmQtSjZGaJ0P368By/ajRft1n7OS0aP1DpwSmobbQudvqYAwmxbMAMBt9Qw0gHeuudkKSpSx6ouTv5FB2t5qXCt5bX2haENZ1QAYbZtmIEbGdUSkBN7uM0g74Q53y2sr+mMZoTKbF0BhNm2Ymb9y0B7XVUBhBnCDClAuAIIM8IldtUaGj0XfgUQZggzpADhCozfZUmqMl31d5BDs1jjONYS7xaLiD5ECji7AggzwutvZzcRVH7bFUCYIcyQAoQrgDAjXGLb60J0BWdXAGGGMEMKEK4AwoxwiZ29Jkblt10BhBnCDClAuAIIM8Iltr0uRFdwdgUQZggzpADhCiDMCJfY2WtiVH7bFfgX+QsVZZ+nDwMAAAAASUVORK5CYII=;" vertex="1" parent="vKDNCVvnNCXdLF1c3vbO-32">
          <mxGeometry x="20" y="30" width="130" height="97.28" as="geometry" />
        </mxCell>
        <mxCell id="vKDNCVvnNCXdLF1c3vbO-28" value="&lt;b&gt;&lt;font style=&quot;color: rgb(51, 0, 102);&quot;&gt;Retrieved Precedents&lt;/font&gt;&lt;/b&gt;" style="text;html=1;align=center;verticalAlign=middle;whiteSpace=wrap;rounded=0;" vertex="1" parent="vKDNCVvnNCXdLF1c3vbO-32">
          <mxGeometry width="170" height="30" as="geometry" />
        </mxCell>
        <mxCell id="vKDNCVvnNCXdLF1c3vbO-33" value="&lt;b&gt;Model Output: Explanation Based on Prediction&lt;/b&gt;" style="rounded=1;whiteSpace=wrap;html=1;fillColor=#f8cecc;strokeColor=#b85450;" vertex="1" parent="1">
          <mxGeometry x="705" y="770" width="150" height="60" as="geometry" />
        </mxCell>
        <mxCell id="vKDNCVvnNCXdLF1c3vbO-34" value="" style="endArrow=classic;html=1;rounded=0;exitX=0.5;exitY=1;exitDx=0;exitDy=0;entryX=0.5;entryY=0;entryDx=0;entryDy=0;" edge="1" parent="1" source="vKDNCVvnNCXdLF1c3vbO-25" target="vKDNCVvnNCXdLF1c3vbO-33">
          <mxGeometry width="50" height="50" relative="1" as="geometry">
            <mxPoint x="590" y="820" as="sourcePoint" />
            <mxPoint x="640" y="770" as="targetPoint" />
          </mxGeometry>
        </mxCell>
        <mxCell id="vKDNCVvnNCXdLF1c3vbO-36" value="" style="shape=image;verticalLabelPosition=bottom;labelBackgroundColor=default;verticalAlign=top;aspect=fixed;imageAspect=0;image=data:image/png,iVBORw0KGgoAAAANSUhEUgAAAPwAAADWCAIAAAB6/nhgAAAgAElEQVR4Aey9eZhU13Uvqr/fX++/JDZCtvPybpKbG9/Ejp3hvnvfu+99iWMLmmaQZStOFA9yEuc6sWLHiR3HSSQE9MiMhIQAgQQIhAQSEiAxDw0NPdQ8d9WZaq4zz+P71t51Tp+uHugWjQyC/a3v1K5dZ6pzfnvttde0HxLJ2AN68ATuqyfw0H31bx/82QdPQCRjD0D/YKC7757AA9Dfd6/8AbN/APoHoL/vnsAD0N93r/wBp38A+gegv++ewAPQ33ev/AGnfwD6B6C/757AA9Dfd6/8Aad/APoHoL/vnsAD0N93r/wBp38A+gegv++ewAPQ33ev/AGnfwD6B6C/757AvQp6iYxLZEIi4yIVFamoABQXqIRAtVtwe2gbE6g2iRS8ZomKS7AzqtNQByJjmEQiFqKoSPhEwuXmIjIqkBGfogJ8jQmd/tsJiUrORIn2beCb8bciFRfJSRLIOKIYtNPTCP4FkEwmgNp/KiqR0fZfI2MiehQ8FceEH8L9MwLcu6BPyEQKgT4iUBGBjvBUnKNSCPQRkeokgYryVIwPcO+jcBKRRFSm4jJgBUgsRaeTQEQkKibSUaBZoC+QEZ4Y9ynCE9GA8LVgSyT4UnIGIuLBzuGKQMQFIoGJJ+J8yScyjv8U/C863iboKkmZxJRQqAT8Iyomk1EZdWmRhM7P0zGOjrN0gqMRp/AfyP0A/XsX9HGZSCDWFQk4PU8lETtH3YCasuWpKE/DmwZC6OfIKEdGeUQcEeFKkYAfC2ScJWItIo6Jp1KYODrFUimWSgPRab6cDYgrZ9tUyfKVnE95vlLAJFQnpHrJJ0KqUzMRKdWJmalGSIjEWkmsFjHx5TxfzmFi6QxLAXFURqDSApniSnG2GOXJODACOj45XLTZfIwD3AMJaLi7H+CO/+O9C/qYTAL3wqO2CK82wQPFeTo6ndDbjXN0J/F0nAcemRDohFxJK9WMUs3I1azUKIpNApPGM5hUvqwJdRWRJjZMhQ3IUFmfOEvnfRIsTcRk65JjyD4pjqEuhBT/QNk2JFv3SRUchcNkSi1TbLaJr+otWqkXpWoeddQEC8MgPCKRBL6OJT3E7CM8jFr3l1h/r4IeuiwFQq3MpORKViznBKB8mKTqhFwrtqlByk0Kk9Kk1RajskAaV8aNKsu4astVWVdlHY1zTNk2VUyurQfkOeYkuZY3I3mWh8m1vUlyPM8n1/VmJqd9YHCGdsUOHTv1nK7jYXJsr02WZxmeqXmG4uqSrfKG1FTgb5I8nebJhEgnOTIKuKcjAj0ugCj4APT3gngHUikVkyoZg6VMvqJzFY2raHxF42oa18Ck802Dbxl8SxdahsjpIh+QIQmmLBiyYCiiIrKKyBmq6NmGD2jLm0RZAFXP9WYvrgc/3y65M4EeIX62M0+/o449PddzbcfSHUPSWJolkyKd4oHZRxHcx0RqHOYn98JLX6ybvFc5PUfF+WrGkiquxlkKZ0i8LvOazOky1DGZMu+ToMuCJouTpIi6IumKpCmiIvGaItqm7rqWT7YL/HMS7rg+F+ing6/d0oFB/BX9Nv0XaJ5+WWfWzjT9DKHTh+7IRae1PIPnmUyLROIcTMTHJWpMuptBj7UFi90h70HQA5eKs0xK5inPljxbMzVFlWVFlhRFVGVBl6EDIAKsY9IUUQOIA6lqQLKiSLIs6rrqerbj2bZPjue4MxCC/XSohfA1tYrRNh3HC+0+M57HnW1gCd9g6H5sz1XFaqFFomlMG/SjEjUmkncrp4ebBEXFLXg8CLpTac5+creDHulnojIZkcmIBLq2OEenm3RealVcU0MitW0buipLsiTIEq8Cv59OgjaN02uKqCqiAn1AsSzTm0XKDkvfiOOGUDSvahiBQX1eR07dKTg2XJm6S+hbsFOozfFcXWoQ7ORcFpg9QtVdJNNjIwPaxpCWIiLBiITvcwZNMZLTsKFmcosUyrP+qbsf9Bjx4wo5LsH0K9mk861GxdT1gM85lqkpsizxssgqMuB+OmmT7D8YB3hNFlRF1nXdcZwQOD6uVddzDKlJc2QCG6fQXBaAcjdNZMHmKBPItoC0c8DvQAYbbYthWOAJbbGVBk3KwVzTpjn/1L0C+ogEptAER6eFOmlokuc4Aeg9xzZ1VZEFWeKmwx23zAZ6Ddi85aLycQW7/7/uGdBLYGsHczse5zGnR/U4apzcIkNbdBLrHyfQI8SDwVWql2yV8xwDCSP+BM8B1GuqpCDxZkbczwZ6Q9cwm3fdhcrZPpbumc97A/QiCcYEn5CfCJLXoRsQnYTMDrHpZpn28DWLKvYe4PQSuLLEOSrJVwqW3PJsLMqHp3Gua5umrqoyTGQXBHrbNO4DuON+6XquqQlVjkyARxD2yKDvJvEGbgk7UIGdkSPbxFNJZGtPCmQKE08mMXFkskUmmmSiBRQHGxyd4OkkTydYIsaRMZFOyuUUmJxDHeDeAD1HxIVKwZSbCPEmMsf4bB6mbK7nWMDrZWlBoNcV0XXse4ZT3+6Nup5nGmL9rgU96odxZFZPcFSCo5IsmWwRyWYp1SgmWSrDMzmxWlDqJbVJaojUJqmwlMLSSotWW5TaIqVGkS/nWCrFUYlWKSpQYGjHPTxQAd3toBfBTSoiV7KGWEOI922TgXoiBHpQRy6A0wuWpiB1/O2i6R45/m4HPZpeA+hZOsHSSZZOtcg0z+TlGqk1K4bYMhXB1WXP1j1LmyRH8wKyVceULV20labRKgGPB8s9TNzvKKcHJTpy8U0gb9hZ1UZBtwsqvhdN5yFKOeVKNc9WwVwKBSmtp4LeRZx+fqDHmnsREG+DpvIegezt3yaYe3WxwZEJPhBvkFd2GBDB61jUyqRfdNhHGurI6oIw00YOSyebTLoJiumsxpUtqempomfqYEFxkEzb+STCUMDwcD1H94yWp1TNZpEjQGryrwvoWjROD3NNMsaT8RaRlFu03KQEKoEmoEi3OqexALzbyahCjstkBJ41uLkjz3IyKjAZQ0RSjYd5vA/6DrC6rm2bmiaroI+frqeHlsBipUqCKkmGpsFDnLWEH2W4PusBd/0P4I9gawJywPZDC271XhYB+j4TbLNCOiXSKaEtlKc4MsnRaSTDJJulZININZgC3yobKg/829aArzuG51izs6fpb8f1PNtzDc9WbZWTmxRHZwQ6JVJJzIgXGfQcmaiTaUMVFaHBU8n5g14mIyox1lbGkzGOaONeYxnHBk+YUMHmyU682ralgWk2bJENgD5ZAd28JKqyYhrWnAqbWYygofu496qO6+gyS8PEDhPSA3YOrYsA9HBfavPyBLjBkkmeSvNUmiPTApNXm7Ql1Gy5YQp1gwfShYYicrqhIr8JcMpwXRvT7KCf4T0g1HuO5ziOoctsg8qyZJonkwIyzC0a6EUIw0m0yBRXIzxHNzUBPVw8ZsVv+RwlLLuD2RVsJTzM3JNqg/BMedq/vV3Qa7JkaLoD/jUzPC+/6QHoF6cz4DeLreksmWgSKaFStMSmDQK62nbysw3wDEXk2qbr2uilwyv4EKDHnB95LIFEZ+tSszzBlvM8kxXLWamaXwTQC0RUhBCeBEelK8WkIbMODEl6k85y4NCXFIBujXs89CDQxwU6JddLni7CONWJzblBL/pizCR3D7cgfwTJMvD0wEf4DJ8PQL84oJfJiEKO4dfK02mlSbqagJxJ/YceFk/abAi8lVyvzeMXyumD8yHkgJzjmrJniJ7BI+IWB/QClWgRyUox6Rqi54C7oucahtRgy/kmmZYqeZFOSXQCgtZC6tIw+xfQfAD6BowYSak2Yaus55rgjw6Oh8EfCbDYyaVt29Y0UNWHIT69rsmCpc8tzeOXEVwo7C7WeVH/vd07n64JkSVE5CMTbwLQC1RCaZRcnQdpG3gZlPB7DT3c2334+LTo9DhEwYSLujoibRFAL1FxiUlJtaKpsMhWasHw5JqereliU6gSHJMT6PTcoEcT+YRIw8xGqOQtrJL3HB/0YeTheugRoceHQK/NB/S2oYNqH/T7nSfBb8J/Hbe+aGj/e6VqybUC+1GDfhyUHFTSEqueqwE2gJF1It5HaqCr6Hj+c7ys2R4+PqWD+piNtpbnmYsAepGKma2SZ4Eo4rq242I5zHJBw2h5tmLwlXmAPobEPkC8LtQRMwAFlQthQb5ufoqveecjmD/oXcvslJhmeGi3y2xmOOVd0fRRgx77zwgg/aYsqYZAjzl9B5cPfw3DFIO1Y8Cfz6OcPGHgKos6m70YoEeSidQgbV30YK4NoAenXwh1MzxDkOqlW4IePZqIQKcMoerZqutajmv7PmUdPX5mTu/MJd7gIBLsYCx4vjrovuT0tlSbYIkoCp4CRiOFNS23We9wag+ZhDDolRblmRKgAgTgGXlZ8K7taUFk4f0nWd4sLzFAfHs88UEDvGwRQA9zFDLG0alWOecYouc5lqWDetXk1fpEi4jz4OyRFMFvbq5HDL+Ws7pQMxXe0BRDVw1dMxFZhmYZumMZrm1NkmO5iGzTMHRNUxVVlrSZZfpJf3pLVyetsHOJNzMOv/NhMHf5Pq7B11hQHeLwcOyhvrA5q0THFSYhEhGhNIbmaaClgNQmviY0XBGpqERCGC5M1RoE+AuCeB3oJxAXDp4ZDikGiX8u0LvgZAtBP057stsx6wPE4/Ni7Ac9CSnsFoPTI9AD52DplFgnwKbgmpbKq/UC2NuIqEDERHKKSSw8hZ1Sr+R0oabLnAauYxKAGGKdZEQo6AkaxZmoHRWlzaynh1hBVZZ0VXYsoz0zhscSPOz7qGIITTDvQ2KsmPDhHM6ouEQjv18qptAJyAXU7kIz4F6kIhIJYbg8lWgQKbZaMhS+LWQ7mN+HX0MgVQZSTVBpQzeIaEPvrAPVk/AOWH24gqe2i8DpcdojiGmiUg0y7ais56hig2oWowIRlekE1mki3N+Ko/igR7AG0Icp1AFwNwhv8Z7i3KA3dQ2xefQcHoD+w4EesXNIp0Mn1VpOreV4EvLqhLl7UEdOLxDyh5JtxcEPrFzg65TEVm2l5em8ZyueZyJhGIZdzLE7priBRB5UMHaxTnMWMSnckSY5Gu4Aiwl6cAGlszrLuEqzSWXANRLYfJumcPTZZMcZQD/J1yfDutvMfkqXQN1jLtC32XwgSj4A/YcCPXA3EjJhcUxGZymDpcHrGxTNM7F5cCppgx4dmODoLMvkW0yeo9NSOaM0CJWvqFLL0BUHXs0MJcSq8TuDruE6hqoIEt9E04PpuVjCE4CA/eOKuxigb6egAbeeVjGm1SfU+kSzFOMB9DEM+nkhnowJTEZqMZrEBpweAb09AUV2paDeln/CQ4EK+Q5mdEMQdEWyDA1cOKZkOZiZH8zw4D8WTcBLXdfTRY7OfmjxBtK/kYkWlVZZxrNlW2nylTzCPZKXpkIf3jsCPQ5aRe43SR78flMiJNkE11+OTtfJjNBkLF1ybSzuB487BHhow1ody/NsU+FalSJXLXGVolAj5WZZaVVsmW2TwjmaiMlWRUvhMZlSS2mVFwn0mHOD+0BMrWTUSoYHuGMCTn87oEfpDDrNq+BCM1X4mZvTG6psm/iBdvb74AF/7CuLA3oqKVfztlRvO/TaqiU1xHLOz6k4ye/bzptBPCuAJJjaxWVwMcTB/gmeTjeIVIvJmxAkpIPE4lrIBzb8sgKtpWOrbJPOsnSao1IsmWTJVIsAKYMl0z5lWCrXohFRuSaZxdQi0q1SYpFBL9FxmUkoDCTLDQSbuwH0oLTpZPPtwe5jj/XgDy4W6NV60dV4MEQC67U8S/akmlLNBaJ8R6SSL9njHIxRGfys2gQKU8wcIVw9JZVzCluBxFtgwMJuY8FEFiwxusorQpWr5OrFiEjHJbotSmBliQTOuW3CowpygYH8Vm2iknxp8VyLwT0Y3YRMg6+BQi8Y9GCcYtJyk9alVihjB3Z/n4HTTxPxcS6nQP6ZUrENbUEzHgSU8NiK6wF+7skKAr3jGhLL5DisvVm4P71AJlgiKdQIx1Q8z3ItzRQbSrUADsO+bDODgz7i9xKw9oiPeNBfBwQpo4FRxhulZIPJ8zVCbjEqV1H5KiaxxXANqlWZaFDpJhGHABFiXGUAbOCXTsVUGiVnRq4uMhV0BkiVjpCJNE5UXCSii8rp/bPLcPn5eJhNKnMkuFfI8KE0CVNqIq0lpOjwszV1gh5lLEOwlnhV4lWRA0J1RRKwTlNXZF2RVVlURN42dcSWEHdv53+0kZr/lsk/4BDf18+595OFQHg41yA5GjI8Y83bDBidTdPgRzsIdMbgKp4p6lyFo9I8EQpQmsW9CvN7CTSY7Uz5AeKDip+IF4JiO4ijkmjmkESzEQgYFwgYOnBvwdvQeSahNV20viOgxx1r+sXmaMGgF6mE2ihZUkOXWR1y9E3H+iwtKK0fyuzX1vYokqhIgqZIhqZgC5djmZDi1HXAedW2cN22TNuerjQItMUI8Z4N2jEg5DHiuo7jzGIIvPtHANdxTb7FsGHQzwHx6T9RMYEEpbtaL9p8Wa5OsJBWf35ZYNvy/VyInAMkM/40hYtPv9uZWj4OoFdFThFYRWChIvE+p8dmLDBImboKNikX8vq6tulYpm0algHmXkPXdFQMw9B1XVVVWZZ5KGxAtVoloHKZKRaLiqLc/eiefofIT912PUtgK7cFeioq0AmxnJOrBYHJQl5RpImfEZR3uvFjAnpzfpxeQ1KNIrCaxBuKaCggC0kCy7Mtnm1yrWatUmYogiJKRHEin01nUol4ZHz05vDwtatXL188f/aD0yffO3HinWPHjh05cuTQoUMHDx589dVX9+zZs2vXS7t2vRjQCy/swPT8Czu2bNk8ODh48uTJ6ZC6+1scBzLUep4lC7UPDXqBinLUOCT1Z9I8neLpNMruD+YnJMAsJhefT4e5u0A/eTcwwfVpFlnfl+njYiVviLV5iDeC0KrnUvHR4aFrly9cOHPq/ffePnHs6NHDhw6+tn/f3t27d7304gs7nt++dce2rdu3bt68cXDjQN9AX89gX+9Am3oG+nr7+/tw6e3t7e/vHxgYGBwc3Lhx46ZNGzdtHsS0ZesmTFu3bt6xY8fOnTvff//9ux/i0+8QzUwA9JbG3xbo6XHIrwRLYGDJO4bz3HcqbWYSLeaD4wXtc0toTT/bHRRvJu8mQDxaz2z6TaBlz/BEdr6gN1Upk4ju3bVzY9+GzQO9m/p7NvX3QGWgd+NA/+aNA1s2DW7fuuX57dt2Pr9j5/M7Xn5p556Xd72yZ/eB/fsOHzpw9Mjht4+9eeLt4ydPvvf+++9fvHhxaGhoeHj4xo0bN2/eHBkZSaYSKZ8IouhTqVIpV6tVVVXvzRmtg3KRm64l3RbomTEenHbaaS8ghSo9Drn1kPZmxvd75xonYTYLP51+6XsY9MVc+tgbr+/fs+vo6wfeeevIe2+/9f5775z74PTli+eHrw2Nj95MxqO5TIoiirUKw7MtSQBxH81rVcvQpwfYT81oOTmX9VU3EC1g2/d04ksEevB1UW8b9HjmCsYmBHqcORXlS/tIGHwA5bsA9LC03S0ouN1wRaJiEvCJhFTJG8jRcm7VjaGIpipJXJNv1hSB1WXBVCVYxcnUbVM3dVVXZUNVLENr62rwYA+mvsANFcJTXMexbdtBWxsVrJlBUQEO3vr+T/DVti3ThPhaB87Tdj9Gmpx7wqMBq18tz1E5JoMSIc0rQUv4TYHrGDD1kJUdXlw7TfbCtJ+L0T3CeAvf5xz1Reb0c1zpFj+14w+SMpPVW+V56Cth5RxMoLOXeEyqJCBlpSiLgsizuiq7NtJUgrYRBWFh3OOArJCH0y1VkKhjQPYVxO9NC1yUAfSOY1lI74n7DO5Cfs/p7AlTBxM4V0cLOued26CHAAvymGqDYIuAeIle4NSz/aZCRwUtuLIYUL4FWm7vEncR6FFUeFKhM0arrPt699n5/STosRrHt0+1LVNIcSmBGIM9zMI8HuqY5c9gmXIQisN9wELFNE2k1lQ1XVE1WMIEr2IiK6Iki+EioIJbcB1veb9wHMfzvCiKsixbVkdWnzuHeOywhf6yY6oNEoE+tmDQ3x7g7iia53nyjwPoA5ZvKOCJoEiCIgqyCOI7DrZCZikIucKSj2Xopq7pqqKrCgRcKYosA2x5nm+1WrVajWGYcrlMUVShUEin0/F4PBKJjIyMDA9fv3bt6uUrF89fOHv27AcfnDl96tR7J068fez4W0eOHD6Cyuuvv/6qX/bv37/HL7tReRmVXbt27dmzZ9++fSdOnGAY5o7CfOrJMaf3vAegn2f/uLO7gVwIWc1kOqO3mPlzerDCItlGFVmZb4l8S+BAT882G61GvVmv1avlMk3SZKk0Ucimk4lYZGzkxvUh0NSfP3vm1Mn3jh8//sYbbxw6dOjAgQP79u3bvXv3Sy+99MILLzz//PPbtm3bunXrpk2bNqKyadPGwcH+gcG+gYG+wY39W7Zs2rwZazY3bg6VLaGyzS9bUQn9smXz5s0vv/xyKpWaiss7+m0S9FqTYotRgVy4ePOA0y9aT6BglXeejEtUWm1Q8wA9GKRUkWOIiURkdHR4aOjS+QtnTp9+750Tbx879uYbbxx+/dCB117d98re3bt2vfjCzue3P7996/atW7Zt2bR548DGgf5Ng/2bNw1u2bx5y5YtW7du3bZt2/bt259H5YUXXti5c+fu3bv37dt34MCB/fv3v/baa6+//vobb7xx9Ogbbx07+s47x0+efPeDM6c/OHP67Nn3z58/d8UvQ0NDN/0yOjoanaVEIpGxsbFMJiNJ0h2F+dST+6B3LVuoshDzMI9lzO59lHeg9O4RbxYGek3iTVViiIk3Dx/cvnlw++bBbZv6twz2bRro27xxYNuWTdu3bkF6+q0v7Xx+964X97z80it7Xn51/ysHD7x65PChN48eefvYW++eeOf06VNnz569dOnStWvXRkZGIpFIKpXKoTIxMUHTdKVSabVaLMsiKVzQddUwNMsybMfE5Oegm4queXyD9CYf9VpXk6D35AYkdoSMuSE9zMcO3x1wx1/vVdCrIqdJPENMnHzn2Kt7X379tX1vHj5w/OjhE8ffOvXeiXNn3r988fzozeFYZDyViGXTKbI0UWGoRr3Ksg1FETVNMU3Ntk3HsYM5K7hQhjzJ2oqVKR944ouhA1sXgvbbs+HgPGHA46PxmYNt0IhVPeH973A9BHqdk5g0LEmCM0XfH3C/+0BPxQUQb1JKndQl7GI5q2sxnrxqEs/WKxWqVGNIrlGV+ZYssIokmLoKmsp2tgOsj8fqmg5QTVEpYp1jAE1cwfw4UOD4x0MzJKKaX0KFKR0HvNp/UQWDHgVn2IpQyXMY9LM5Ay9KT5iq0ESuCnEwEWAv5UW5xAJPcjdxeghrQCtsVSY0sQnKSknUpZmDSGZRZQqKyCuSaGgKgB4rK7GGfn7o/EWB8aO5Lk6egYYmCDZt1Yh6aZxHSWlmFAMWpTGILIEKJE0AORZ1tpiEHAf4eUeTLsr9LOaiDLd7Q74jBywrNwX04owxsrOBXgXX4rlA3xEN9dGg7S65ylTQO3yr3ChFBPpOryMbh3cK2jkAvcgkISqcyUt0+nYxs0AGH1zu7uf0CwU9GKcMTUGuNZPCN5ZDOhD/C5QzfiHdIAx617NVsdGE9femrMcUIGOxKjKRUEopCVbaiQKnL6flOmULnNEkZTqBfA0hVfViXW4+57k7QV9QJ8WbBYNea2f76Mh8AgifdCJDY/zHIe51Ib1nCuhdW1fYJglJzu6owwwGvQygj4BUU85YQtMzDFeoapU0lnDmg9RF3OcuBb0iNHyZfsGgNzSU+KAtygfM/gHoAzcEeCa2Yxoq14S8dPOL9PuwskQY9DwV4+ikVKMsUdAbpMIkH4A+mMgWHoB+IRx8/vsGLAA8jGxT5MqpOw16WNiegKUmIeSKjPJ0QqwUhHKRp1JYtpFpWFRvERn5LU/1ceP0miyaOMXNDLLMDE33mVg/CXqwqdmKUMvwd5jTI+1NO9MliDdoLgupMP2hAxB/R3Wm/oWCznDXgB44gU/lnMJVkXexoM1DZRlaQ1PQFBHS97UzQU++44/NRDas8p8/h/f3DCY1NkocaciNEouybAeAWPwK1tvgLUrnDdNWHEwHlpkFJMBbrHu7e0AP1gqs0+XLkNFSlyA0RLu1jzGsEau2SdC1UDLuKWL9L5KnY6T6yJt0ow9Ms4EhLNgnXOmwlwVfZ7QBhw+cqd5OG2ZDNhRLa1XYUhLlYFxInt1pvHOx4PjRnOfuAj3W5t4O6GeRbeZrOp0JJbfbhm26YTebMLcO12e7UnCGIDYlfNTc9WnnbIMekvO7liU0WSKFUu0+AP0vqiujQfB2QG+Zmq+NDMs2vxjQ4yArCKwyTV3XNb+oqir5RRAEzi+tVqvpl0ajUfdLtVqt+KVcLjN+oWcvDMNomjbTUBAkiPRACFQ4jkg/AH0oDOyjhz4CPcdkRJTRcr7ijSKoiqDKvKYItokE+nZsFIRy+1b3aSxv9gbMO3EIFcYrTgIliiLGJ8uyzWaz0WjUarVKpVIul/EWozGAIkVRpVKpWCxOTEwUCgXsvJnL5bLZbNovqVQqcasSj8djfonPUpKhkk6n8/m8oijh4cX/uyHQe7anizyVEdC0MphZfjQyxi/wKnejeMMxab5OamLTmDnZ/LTMfoqgIdAbugwJzh3IZAbJzNAK6wj0MJbbto0RrCiKJEk4TqrVagXYZRiGpmmKoghUMF4xWLPZbCaTSafTAbRSqCSTyUQiEY/Hw+0Zv2Sz2TwquVyuUCgU/VIqlUi/0DRd9kutVmv4hWVZfwDgRFGU/KIoiuoXwzBMv2CXOLwN+4r6WEefYI2bCnpTEst55PL0C2V2Hy17XWzQ32ZocJvTLwz0mizIIivyTUloSQIrcK1Wo1arlssMRdMkpr6VhIMAACAASURBVFIJ2C3muAGC0+l0gN1UKuVjFT6z2SxG6sTERLFYJAiCoigM0EqlgtGJcSkIAgYlhqOu6wH+bBv8lnGZAj4UXu7/Al71uAQtHZXwseGfwu1gb/YLbsffpuzTCXrHsxS5NnGXgB6nX/0IRoBFA31b24ozdH7ojvuhQF9lyEw6nkpEUsloOhlLJeKYEolYIhlLp5PZXCaXy2JeSxAESZIURVUqlXq93mg0Wq0WxwE3VVUVQxa7uc8kGwCEgmkldkUOYytcDyNvjgloOPtIhwjuY7hT73TL9mCHjhMiT1Pg9K5n2yD42Z6tag3irgL9Yi7xOQsOHwIPOBLZw2DpQ0wxiYyDhxCIehBG2U5TiD2TIEFNHC0oF4WgGwJlXkZJwVHuGpRVgoS84wvusqjDoLQqSbFa0IU6kulncy3mkCIf3O4rdCmTiueyqVKpQFNEmWEa9RrHtgSBlyRR01TLageLhNEwvR5Acwp39DzMhsMgxseG2XPwa8ex4auE9w/qQSU4Z/iQoN5xWv/rFA867FoDq5HNVJBgg/X0AHrLsz1H94SayWS0UkSn4uAe09YaRyVqXKIit3yDmDf7W1g6E5BDJBF4ohIVFYhxvhQRSjER0mpDaiORiCCKykRMJuISRG8lUHg0YEZGCIQE4h8CP/M+5CERrfAK14DE4ThhflwmEjKRkAgAPU+NcyQQ5G1DzkltcJMRkRgXiqMiMQ5LqVBAUrvntJPtL+DWAfERWIYOZYeTy2mdr8A6mLMap1hdbupyS5chLT1k5dYUB7KTzvTCF96GOTrGFsZluB50j6Dio3CuT3wX4bEifF9Be9CIrzt9wAl2QOuzWw4sNG1ZtmFZbTJCxbIsfJPoztoaLRd8UB3HEJmxy9Tld8XYJSl1TSGAzUFmVnpcom5K1OgtwYdgGpMBrDEZwDMmE3G5lAH8kBGZishMVCundCaj0kmNTmpMUi8nNAatvVOKqaWERCQFKoVWDYlJsDxJBDobzgU7bxAvAGbonNM5Pe7f4AMtUAmWjLeIWJOIN8k4y6Q5JoOJZzJ4uZ9WKcYSMZ6Mw2K8aF1FEVaGWDinv8tAHwALoxjLCXiLBRKMxXA7Rm0g/GDlj2EYmqbJqEiShBONcBwX1v9UkUaS8QtN0yRJEgRRCpVABVQIlVw+mwPJDSibTWeyKUTpbBbmJLhomhak1gnJSWiIUDlm6P3Y4RdL7+ydeHtv49K7Rn4ULX4WEehxxINuMVz7PN4HPTWKOH0GOCkdkyv5iejIB2++8cFbb0avXiZT8XI2WYyPFuOjTSIjUkl0rRhPx9DKhFhGQOLDnef0IV8fhDy85CcPy74lWTrNl/NSg1DYssrXVKGuCnVNqGt8XeOqKluWm5RQneDKuSaVaEEaW+Q09iH8h+4y0GPlOtZUyrKMszWxLItVPeVyGet5sA6GIIiZQZnL4blyEpVg0oy/Ys1PIpEIKqlUCmsy8azaxy0ojoJ6LpfL+6VQyBcmcpiKpUKpNIGJJGHegotpmgGnb89jsUxkW3wpQ3xwlD6+hzi4Obu7d2L/dv7yu2ppDDzDEBDn6RLj8/txmRoBsZbICHRKqWfzkbF1P1v3pf/7K3/y/yz7i69964ff//FPfvgvf/vU//rb737vxFtvVSaiPD3GM2McpIMdF+6wC1B4NAhNZClYmkek45CCmU4L1bzK0oZYh3XNTRnWfAMyQqR7luaaiq0JhtSQmpRQm+DoDE+nODIuofiA8JVuUQ+BnqdiIpNSWwxa5ns2mb5DvBENQ8VmqfDsLWDYmO/quq4oCla31+v1SqWC2WqpVAp0O/l8Hqt3sAY9FosFSsl4PI4xmk6nsXonvMUTZayOpKYWmqZxAqlKpVJFpVarYdNTs9nE2RY4jgsUQbIs+2pJ+NR1PdBOBqohJLdYjtMmf60UvFzKJE8PngBeghU0lm3QmwozUTj5OnH0xcrBTczeXmbPIHXkJSl6XqciPAFLNd3ilfk7+Pwe1k4TyRhPJah05MoHH/z8n37+ud/+75/8pd/4xC//5yWf+K1PPfJfP/2pzz6y9Ld+5Vd+7Ymvf+vmtUtiI8cyMZYOgx5ErHle90Pv9lBYbsMLsomVvMbSltx0DQmtIGdjby1/2yG2okfomq6hWDKrcWUOlqZIgkJgQfx+CuhheVG5SWkoY9ks4YJTQK/Koq4puq7KMijgG41GpVLBGvdCoZDNZjGXTaVSAZfFFcxZ8Tafz2PgFotFrOHBzBJDtoYK1vbwPC9JkuKXQO2zIBG/4zl+qK+BA9m8zM/wqgLQe45Zp4gP3iSOPE/tXtfa29N6uYd+ZWPj/BG7OCoWIwsFn0wlZJBq4pX88J4d21Yt+/p/+Y0/Wvrw7z689AtLlv7Bkkd+f8kjX/zk0s8v+dTvfXLp537t13//hz/80fkzx5niWJMa46kxkRpHIPbVKn6P+tDInuPAh5DohjpoKSYQcYnJOmLTMzTg6I4JWq12lgvHj7sJHltQwe/LQUOBovNlkPjJmWLAANmzTMxvB/QyLwk8RZaQ7QikhXQ6HejaMZQxAw44brVabbVaPM9j5irLsqIomJtiRSRWsQdTyUCCD0T2EAeF6oeC7O0ftHDQt6/pOp4t1cnc2ePZIzvzu9fV9vU09mwo7+un33rRSV02iHEFFCkdzB6z4Zk5sUQmxFJCKucTNy59+8+/ueSXf3Pp0t9Z+pnfe/hTXwxAv+SRL3zykc8v/czvffKRz/6nX/+dld3d504dbxCQ9Bgri4RAl9h56Y47ua2vbdALRIwrxiQq7bCMB7nb25ICSu1iuZ7lIHI9y8/0EugBQN8LShOYx9meZ3q2pHN0swQZ+xG3CD2jW4Aer6ceQdOahNKk9Lk4PYdUN7AeG3KxFJuNWrlMV6ugfWdZVhAELCTouh6WayF8CErbbIQhHki9AQzDmA5mqIH+Hv8a7PyLqywM9OgtAfNygJ/ZjimZTFa4+X7pja3k/g2N/T21V/vpA5uMG+965KhcGgXQT7E2ohDvWcQPARaIT6o1+vr586uXPf6ZR373M//H733y07+75NNfWLIU2PySR74AoAdm/7lPPvJflzzy20sf+c2XduyoF5MSDZNaESUHWJiA8KH6xkMtKskxGak2oTZJW6h6ugAiDYIwTmYUFhbR8noBg29X2h0EjsGrmJuuKQsNSoJ1GzNcKaHQaYVMKISvhZ3tRlGX8BOfJ+RqSRe42VOAcMESPShwRHedQAybDYRtiPiavjYfD/A922FB+53HeuezRTCdYxj5MPtj0Nv4ZdmaJ1W17FDu6A5mf2/1lfXMvnWtD151yagKaQviHB3jYJWRqEiCTh3p4CGaezpJVEqis1qdOfnW0ae/8cS67z71g6898Qe/8duf/sR/WrL0d5Z8+vNLPvOFpZ/+IpJ2fm/JI59f+unPL136Wzs2b2kSKZlJ4w6GFPYhLjnThaZfeqEtD0lsxZBbjsZ7huTZCqx9Doy7Q0b0gR28/ymVTn4DamBTsw3ZlFpqlZCItEYkNSKmEDDXmTZodj5BpPZKSExB51rGrP70GPQ8kvglyzBRR51yWzN9gRWuYbxyLZStaQ48zXT0HW/rfJL+i1jM+wTrFTIrt/uwY3h6oz7yfv6VHnL3s8z+dcTxXfTo1Wo+3mRSTSbaKo9xYDxJSGRSJlI49m86ziQ6LZcLYrl44vCB53/019cGfnp1+4bnn/7b7v/xPz/96d/65Yf/8yc+87tLP/WFRx7+4sNLf3/J0t9/+JEv/NIv/frP//mn5dy4Us74oL+zqRnwbT/kWQayVJhoa3lg3wk8EzugP8c7n85yENd3dc+QbK6qlPMylfTtuJ0o73iCdxL08BfwO7/zbHuOxzXbTx8l6NsjHErVb9rMBHXicPS13VcOv/7anqOb9148enqszJANWD8wxtHxFqw7m1RLCWTDmuENClSKJXMSkUqePXZ8/T+d+Y/vp/YMJPZtObzu5997bM1nf/2zn3jksw8/8ntLH/6DJUv/8JOP/MHST33xV37lN7v+9CtjV05LdOqjBX0Yrm238xkf/UKZDT4JrGXn2ZrJV6RKTmDi88mycmdB70LiMyDE7mZD3y+ofcYnf0eCAdqQx4pMz7NafG145MS+N/u2H/+7/rPf6Iv9dNdIJEPX6ZJApHgqWYcQ8qRaiivEzJZHnky1yLxOxIkPDr758+9deO7p8utbUzufOfxPTx1+5h9/9Jff/M3f+OKSJZ97+OE/WrL0jz75yB+CfP/J3/rcb3/2zPEDPJH4aEEfSC4B+uGFB1+CCoJB8C1cmQUgk9oe1/YMWWcZHgVH3tLkgUEv0nm11TDEaY7E7WXEJ8UbQ1Uca/qq31NuC8dz+E3QgVEmSmiYUfcy2ziA26erJsMt4WPD9enTZXw/eB+0hYywmHzBBl4PRDmFykJvOHToTFX0Kg3FTowVnht48296rjzRM97dk3py4MYLb6cKFC9QOYFMcFQK5S9IImetGTg9smam9dyN/Bs7DvzoW6ef+8fk3sGrgz87+PRffrDhp6e29n/jj7/0fy757SUP/7clS/9oySMg3vzyL//GmhXdkavv+5ze9/K6M6J8IFA8FLC9SZzP9GTabWGsB/VZ9seyYzulr2M5MsuScbmcnC/oqbzSrM0H9Kamenb7OnAvWGINqxuxvsa2bFtHwhtWxU7CPQS7NrwC1WTHabAqc/o/DoN7tjo+Kvwr7nKBktSyYSkrTLB6uSZjQkulwFopAio8z2NHhnq9jq0HQSwLDgkIvBiwnTifz8uyPP2ewy2S7o3lhX/Zef2rPbkV/cyj/cU1A4nvbYu8N1zjyhRXjItkkqdSLJ3iwAIzA+ghvrmc0BIX6cPb3nvm6dM9PzvxzA93f++Jyz3/nH95IHdg59bvffuLv/a5JQ//X4986r996jO//8inv/Crv/r5nVu3VydiHzXosfo9APAiVhCv8jXYtm2JTZ6My/St5+ZtTj9v0NuwsFT7DQKkQCPXwRwB30j1pDgea3stz5PRaDb53sPsM6iDahOtPTgd+qZpapqG7bs45K/VatXr9Wq1Glh5i6jk8/lMBgJQsGkMh0EF8U+xWCzql0hkfDwyGlAkMoZpfHxsfHw8Eon4O0bx4eFjY7EYbsQ248CjAQeyCIIw3XEt+POu52mmW26Ir5zKfLVnbOVgaVl/cdXgxOqe+H/sS0TStTpNI31ijKMTMFzPBHqejPB0RBp7n3p14/lnv39j40/Gtv7LUO/T5K7nGnt6yYMvHvi3n/7Pz/73hz/5h595+HO/uvS/LF3y27/7u//v6XfebZEpgcTizUfF6R3XcVzACKJJdn/b6MfiKQKj6zmGIdZInohxE6PBKDNbBYE+LlA5xOlxzu7pQs6keOOYevD+OJalSkQ+m0slkolYIh6HsCaIbEolcvkEU4tHUifPXTlYbSYdV8U90rbtAL4sy+I1pxiGIUkSW3MDI24ikQhgF0EFf50OOIy5TCYTuMpMoGCUUqmE41HKfqmgkBTMsOv1WqPRpmar0WKbmJp+6GzgsMBNK3gQCDsySJKELRWKomBfy+AphSvgX++4jm2JXO1KovJXz4+t7E91D5S6+smufuov+sZeejtbogVkZY/yNGSswMZa7H3QfolUTCDBTU248W75wOb0jn/NPf9Teu8zzL5nWnufFXetrRzaufMf/u4PfvV3PvOJz//ZiiefevzJX3vkv3z5T782fPkyS6U/atBbKu/ZmueaMOMERR7WV/qPBfeFyR4R6HPQfBDSSOBZYUi68A+FT4x809T4Bl+GbOh8aWw2rE+2owQ4PJ2WaqQuoJzdbTl+EvqazGkKq8m8rgh2e3VLuGA2nY6MjpJFgiYYssRQZIUk6YlSgaRSI5GTb7438NKhf9z9+rOZ0nXTlj3Hy+Vy4+Pjo6OjY6hEIpGwgw32sSkUCiRJVlAsbLVaxZ4ILCoYe9iyiwGHo6gw4LChFzspBP4z2HkmEGmCyYCLytTZVPtR4p+CLW7tEMCCX+eotE8344etaTyZLpW3vF14fP21NRuJFb3M6v7a4xuyf78tcfQCU600m2ROoZIKlZDA8zyuEFGFiIAzMAnLykpUTKWT/Mj7mX0DyZfWMgf664f6qq+ubb3yrPTKuuqh7YN/+dgffnLJN768+u2dL+/8+c+/sXzVnp2vlPMZAdIXg7Mx2KfusDSPz/+QVJvQWEYTarrUsnUJAgvA17odZgrGuzasbegYtupZsmuIqtAUWzWFbzqGEnJYwHoGPEig12c4pigLtTJL5zgqyQfxKHP+NwEyHkLSQ7E2gUJJJrEeZOjWZE5VWFXhNVWcBL3rpZPJQi6jKapjupbp2rZnOY5uyZyUO3f1pRde/f7uN5++Fj/CaaTjGZ7jiYLYRAV7JWCnGuxWGRh0p7snzAibAIsY0I5fAmFpjqPm/mk6jqfvP32f6S3Tj5pscVRHKjFl8vRI5X9tGnp8YGJVf3V1b/2xHuZrvRM/eTF+ZpislZt8MSkUIUxEIeIqEVGJcZUYw6AXiZhKJqXYpej+jR+s/8G1gR8lt/+E2fPv7L61/N61ldcG3/33v/+3r68Y+Ie/O7T+mYNrf3797WNMNstTeQEiOsCZHtEMs4VF7wkPgZMZk+aZLF/Oi7Wi3KCUJqP6pLXKWquCqKy3KLVelKp5oZxtkukmmeHonFCdUJqUIVRcreVZoqtxrsa7Gu9pvKdwap3mqBxPZniUzRD/sVv+h9sAvZvPZUsTectQXUczTN71ZNdTRJ25NLp/z5Ef7djz9PmhfbxcdDzNBj0JEucQOmwb9D+YfQZsOMDNHALxJG5mqgVnCCoz7XWLtuDYcMX3p2j3rfBPs9VnuYyvXNa5Vr2aLlV3HIt/dd3omn6yu7e8sod4rDf/531jP94VeXeYYWimSec5GlIQK+SYSoypxDjY2omkWIoD7nM3KuffiOxef3PgH6KD/0Dt/Fd+X4+wt6e8e31hb+/1PZsP9D/3wd4XiaELYinVKiWQshIJ9Igh8jQW6+8sy38Ir7MlQGRgQqCTIpMW6bRABZRCgS2wBQcJnGsTpjIJjohx4KCWEpmUWE5J5bRUyfAQaALEMymRTklUQoJVMuFfoeCaeVlkPzToXdctFYu5bFqWW8nU9dPnDpSq1xSvOJZ9b/fRf9795tPnrr4yPn5BlVkP5QaZXC/K8zDoZ4HFwpp9Fj/5GUbhws6F9g4ffjt1fOmOkQfN5ZB0ahlco8KQucux8g+ej616Lra8h+juJ1b359f0Z1f3p/5x1+h7QxmiUq2VsyzgflwhxzVg9nG5lBaJBE9E1NKokrxUfX8/eaCPfmV9bc+61u4N7K6e8kvPkq+sYy8db8ZvspmoVMqAgxqIRlGJgGBC9NKjLAOz4TseOeU7Q4PFAQgcjBIC+AYD8WSbwP0NT9thB/CgRP0E0A8EfyAB3YZAW+hCOENnHAXUtr3z5ulZIVAQtAYhKZW8BkktZxJvFB6LN6ahuA4suo3ZNs2Uk6k0J9SuDr/3wr5/OX5+/c38KwdO/uvW/T+4Gn293EhFx2/IIus4hgPGZ5hnYxAEIvLcoOxATLAzBjhGZFhMD3boqHTo7LEZIZyhRESFR9rJGZOU4BiAsPd/MOFGU/f2xs+XA5/Yk7TjL2A+D8/B1uVWpVlKknTztXP0n629vLqH7OqhVvQXu/sLK3pzT/RHf/B85OX3snGiVavXW2SaL46pxE2ZivBMCl4uEZGJUak4LCcvyjdPqeePtl5/obJrQ/OlteXda6nXelrXT0n0hMoUFCqjMimlnEAhgnEJxeZy9EcFeuRIFJfJmEJEFHAoHUd3AAFQHYTn7NOEk7hEBjG1CQlMawlQv6AuhA5BPQQFVc2h8AqfdhL05Zx6K9Bbhoq8O9tz5nqLHY/Ga02myEQPvLP2hSNP7X77r58/8u1j5zbXhLxmSiM3R3iu6XqG7Vm6Y2AsYhxg4Hags+NrwGiDdoxXwzB0UK2rsixzfjRgrVYjSTJAJ06bE4/Ho9Ho+Pj42NjYzZs3b9y4MTw8fOPGjZGRkfBX3Dg6OjqOSiQSCcJZcJqdwH06n89j1VDRLzgYgJpWVFU1DGNG0INewtFNoSYW4w2SGM821u4df2xtclUP9WhPsauf7B6gV/aTq/uIbw+O9R4YuTjGMHSDqzJSOd2kU2UmXadSbAmF2tULPFPgS3lt/Frr2KvlvYOt3euq+9YTB3sboxepIlEpFjmalMoFETIMJGBmDI7oMZ6OIiefO8/peQjLTSLoQ1iuAtkN2rwcc/T21sexj+bJCQeCeBzue5JifiMaASiIoOXoOAvTU6zzmjw8DHdcvx3Qy6o6FonSlbJmq5HCqT1v/Wjjvm/tevPpNHFJ1QXTsYZHR+kqY7qG49m2A4QjA7HWMkgCheOqcIqyiYkJrGtPJpMYsmNjYyMjI6OjowFSr1+/jmF68+ZN/FOgWcdgxcvTFgqFiYmJUqlEURTDMFhf2Wg0WD+1E1qtFlI7ydMKDlnRUNH9omlah14I/x0/B5QZRFqZpoltDkF3xRXM6R3Pdl3D1XiFSreKGapYujBW++G28a9viHf3lh7tpZYPVpb1M8t7qcc2ZJ7sGf/7zSODhzJvX62P56UcoxJVuVgWimUhTStDKe7QqdTrpwvEWKb23iHq1W3NVzZSe3uJg1uEidLJK4Vtr115+wpD0TxPlwQqK1EpGWlvQNLGnswz2QGm4+RDtzzEUWkeBzqB2B1VUKqGGU+H4R5sZ9gHZa1BayZi0APXB7GnDfoYy0Q5mKnMhXiUhQLEG5aM8+WsxlVmFG90EG84VeEtU0XyeVu8MR07lkxQ5arlebJTvpZ4/ZVj/34psl/SGdu0bdeLZzPZUkG1dCQQwYocsVjsBioYuBiyY2NgD8IK+EQikclkCoVCqQQ5+oJ4lCCKKlBTYrBiXEKcn18URcEZdTAWLcsKz5WxiOX4JcyJ8cAS3iEYaoK5dbBPB5rbmPYPmPFXODOo5xwbbNqWa0hapVBNjZw7fjCdpd64SH+378rKtYmuXvJLPcyXe8tdfeVV/dWv9lUf7yk90Zv+zsD4j54f3fBqbNvh8S2HxwZfH1l/IP5PO6Pf6b32o12FSKzJ3bxQOLSZ3vvv+b1r2XOHuaq6453SN9efe2rwxotHI4kEWaPpFgl5BRUyIqF0MghXYQaK67fAzAxonF1DiLQ3SEZHaiMk1s++91yIx0eFYg4ws8fsH+fgxtsZ7XlTbhq56EDefjoJoSTtNWU7JXtN5gxNciC8C6xMeELmeG4ml50gCM00bU+TzVpDKgo6Y7kKvH3PrdarwzevS7II7xqVIPobQxYnKlNVNcxTp4eoYq45I+B8mHV+zga7X2w74vSQ+9OC2b2mtahmKTF05u133zlGVNk9J1NP9lxfsyHT1VPp6imv7CFX9jLdvZXuXnplb3HVhvRXN8T+rDf6ZO/4n/eO/lnPyJ/1xJ7oSX9tffLr6xMH3icaNN0cfqlx/BuVc2ut8vXhZPUHO5OPbxh5fCD1F73Xf7Z77FyEqTaqXCUnEqMCcVOmx2A9tmmiNUwYyFvb8qegaHYYhwLDZ99pnudazN3QaCBRcble0mYDvcQbKNcN4lUY9JC4i6Cp8Vi03myIstTi2FqjzlTKmWwmmYpHIqNDQ5cvnD+rSAKYI1DBU9gwf71NFHaC3f9+m6e9Q4fj3JbIG9ZzXNMQq3UiefXsO0cO7Lp88WSWEfa8X/lO3+ia53Jf7aUe66W6e6jlvZXlfeXlffTyPqqrj+rqpVf0Ml095Feey3etJ1b1VlZvIFc/l//57vGxfFnI7+bP/H/VkX9TpfjhS5lvDMRW9iS7B0rdfYU1vYkfvXDp7PhEpcLIlZRAjUj0iDAz6BcYcj0nmO9a0IPaBwaf6sSCQO+BG4kxFhm/eu3azZGbo6OjkWgkFo9lsumJYr5cpjmuKUtCsLQyOGFgb4TFw5QP8s7PxbvCYp4pSOgKgWeuZUiNOpkauXzqtZe3v3Fw/5VLwyVSPXiy9Dc917727Piq9aXuHmpFL9XVRyKiuvrort7y8t5qVw/16HOZrg0Tq/rp7vXEimfyf7/5+lCqbjBH5At/0oz2aGrp+DDz7S25VetTq/vJ1b2lr/ZMfH3D6D+9HLkcqTQoUqDTCmTRg0DT6QRzyzmhPP9f71bQ+39PqhUXCnrP83TLNCxTRxoVPIGzbcswNcsynMDe7Is3i4kgdK5OsPvfF/1Ci3LCAPRIfes4mtBi8nUifu7dN/btfOHI3leuf3CmVtVPXKn9eNvNx58dW7M+uaovt7Kv0N1bWtFLdvUyy3sry3qryzYQy9dlujbkV/SWunvIFeuI720auRDnrPoJ+cpX+NSgqZHvjtS/vTm3ZkPmsQH6sV5qzQZiVW9p9fr4+lfGk9lmk6ZhTRRYiOn+Br1YnVCF1oxzWQO8bnTsbo78HwKNM4AhbG1FqHNclLm7nbEeEB84TSwKeO6ik/i9rPNzNu2NhaKn0FNzHUPla2STjFcLkeGz71078+7pYwdPvXOMIsvjmdau4+m/Gbi44pnL3esia/qKq3rp7t7aiv7qisHq8p5i14bcyr7iit6J7j5qRQ/9nYHRd0c4rXlGvLGmHnnWU2NnotWntubXbMiu2FDqXl9auaG4sq+4qi/7Z2uvvvg2kSMaNSLagmx59znoKwVlVtCLzocG/WQQsO+UfBeB9iO9FYgangS951m2zFZbVFyuZiUmx9OZ8sTYpdOvj195l6uXmYpwKclterf0j7vj3x4YfWLd6JpnI6uejSx/ZuTR/4h2rSus7Ct19U2s6KeW9zLfHBg7flPUlRt89JvEtac97t3zkQIGfdf60vL1Bege/cVVA8XHNmSeGoi8c61UrhINOsOjlJId/P4+mMj64o24YNC3QRxwegdFgDvgOmdjCgclYcXlRgk5eQAAIABJREFUR4qyj/ZiYW7fYQbGN+JA2hYIi24Pjp6niy0O0rgmeDIjUBmBSfJMgqXiLJXmmHytUinV+DTDX0tXjl3O7TuV2v1eYfBQ6jv90RXPUSv7mOX9pa4Belkf/eTg2Fsjou6kucKPchf/3KZ6L4ze+M623OqezPINxS+vTy/rz3X3l1YPMF/bWF3zXOLHz1++lqmUaZILmD1SeWN7//0FehVWD+f8dTMFcCcGEgxFcsCpGKQUrLJEok47fsQHvQdiDXAyUEVjbbQP+rbG4qMF4UdxtcAgZVmWGCr1el0UxUDBH4Ae5wIA0KNiqyJXRvk/iJRIZQQqzpYiIHKQMYWOSkySL2dblVy9lq/XqUqtSta0czfrT28e715Ld/eVl/WXlg1Sj/ZTTw6OvjkiqC4p0H2FC4856e9eGD711Lb06p708p7Sn6xLfaUv0z1Arh6odK2nu9cXv/bc5RdPT+SJGkv4SVEB9DhA8X5QWfqcXmDS4MUpNVUZHIkVSP8kQB+QBENVwXXYLxj32BPaclzTbodP4awMvqs0ZK2y25nbNM9TkKcZnMQw2i4JOFoKnxWzSf8Kk5/TtZwBQ3UcxzRNnKxYwXF+yLaKE2iyLBsEWFVRwdEqOH9gsVj0c7O282lmUEkmE/F4FNPY2OjI6E1Mw8PXgzIUKldCJdQM1Xq9jt0z238QMQDseOdj3nMtuVXL1skYR4IXJFqGDfwRReRggvhukqeSLJ3k6DRHZQmq+eb5/N/0X1/dy6zoo5YNEMs2Ul/uJ/5y483jo5zhiXr9jcqVJ5Qr/+P0+7ue2jK2pifZ1Uf/8bOZLz2XWdFHrhxguvuZFb1E9/rkX28dvxJhGiWUDpWKg0sLEYB+0exTd7v2RqBTapMwpIYqswoCvaoIusyqAHrNDYXG+uZ04PxBgbHbNnVT0wwdkaYZiuOpnic02FSdTVm2bJpgq+/gf5Zl6bqOHesbjUa5XC4Wi3iNtGQyGYvFxsbGrl+/PjQ0dPny5YsXL17wy3m/XLp06fLly5f8cvny5aGhoWvXrg0PD9+8CbrUoIz5JRqNBmuuhZYDSk9M5EvEBCaGoSoVBlOzCcuo4BL2XPB9FODTDpWO/4glmiAsCM/rYZ0SW+FZooYStbcRD6nrAfQI99jQDouAS+CyFSsVK/tOpr/de3V1H7min3wUgf5P+0rf3nzjvQinuZYnjcjR7yuXPvfu0X/+u8HDT/Rc6+qjv7xu4svrCst7ie4BunuAWdFPL+8lV6+P7j2RpEtErRBTGUiOiUAfX1y/y48b6D20uIzp2ARNXL1+5dzFM+cunD53/vS582fOQTl/9vwHl4bfPHt9166DP37l8L81hZJpW7V6PRaLDQ8PYxBfuHDh7Nmz58+fv3LlytDQ0IULF4aGhkZHR6PRaCwWS6VS2Wx2YmICL0FVq9Wazaa/Dhr4zGCPgw4BGqdNnh5XHgwRc1SQuB2Asy24TcrgqIuHDw/6fIfPve/oMMkWwpyiDXoQBnVNqTWYFAucPo7y9U2C3uf37UhZhYpn85UtR6LfeO7y6j5iRT+1bJDq2sh8pa/011tvnksIJrySmj6xlr36hZEPvrll54+/23uke6Dc1Ud9ef3EV9ZPdPWBNxvG/eqe9D9sujCSqDWIkgp+MXBdZK5CXmj++D9/lfyMe37cQA/QQEHhY7GR7ESaE1uKxpm2ZNlo/TNbt1zu7NDu7fu/t33/3124sU+xYLhvtloTExPlcrnZbAqCgL0RZ/PQCkMqQFVH44ztWHCyUAnx3ynVAJehVgtl3gwvltjuADhJG4b79BuYoyW8TAM6V0iDC9kRTdvgmpCFd0bQh/guEVWoRCJXfe7V6FefvbKqrwSgH6BXDDKPbpj4/vYbVzM8khpVjz8kRB+r3Hxi9My3fr5t66qe+Kp+QPyX1uaW9UBXwbhf3V944j/O7z9VqtBNsRgTUeyRAOvTjM+a+nfhPeFuBz1PJaXahC7WwHteFRRFxOKNJou2aaJw9vbLDWvpXc9JZeNFktAM03I0F+QZXPgbkTd2Hfrh5t1PXR59Q7Fatmdi9U6HXXY2xhlun63uX+u2PsMn92feAbNvVxzHDjrJ3BfDZ8PubnhCgvdHDw0cztBcCB6nA9MkyF3RKuc5IgkBEoC8IBcv5P9ACyiAN65QishU/FqE+uELo4+tHV49QHQP0l2D5e4B5itrMz99eTxGSmBJ8TTPi5jFvtqVZfUr/23f6//xZN+prw1Gl/cSf/xM9svrCgGzXz1APvZc5J93xrJFSaAnBDKtltMCLGoycwqGGRn5LRs/tqDPFBKFUkHR1BIdY+pjhtvyPGUs9fZLrz2989UfvPX+QI4YRWHtoN4BV4SpzghTMTeJqHD7HHUQl11YK3PySL+GYRo+1v+lfUiA42CfMOghFdSklS2YfAbn6KyEpys4Oiwsd/mgtxHukdLSAfHJdVShQXJEii8FiMdJEEDY4MEtLCKTEPEkUfGLI+T3d8TWrB9fNVBCoK+s7KdXrMutP5Qu1GQD9KGG55W96rvc0Erp0mfOvveDH2/b843+Syv6QbL/0nP5gNmvHKBX9RSe7B1/b4iukGSjmCYil5uFMZQu6b5xQ1gop8c80PWcfDGZnUgw9fzB4+tfPPi32fIponX1tbf/Zcueb12++Wp24no8MaJrejvrPsKXjxf01tsdAX7w2+EzAOJsFbwzRvwcoA/O2XGeAPHhSoBy17Vtx7TBSRoIuVm0Z6049w6HCl7jBG/xSkE4loUkyUwmk0qlRFFs3yf0J8hVjwgpLeHvOp5raHyNJ1LCFOVJW8LmmVGIFSRwmF/k1NDEU1uSa3qSKwdLKwbp5YOVlf3Umg2FnSeZhgip55C8qXhyRhn9jnLx04mL3x186dlvbnire6C8vI/842eB2a/oRXEqA/SydYXVa8e2H4sX6IZYL588uCtx5TRXhHCTW7Lwee5wt3N6WJIEltesIe95JN7IoKrXFKkt3gRvz5/ZQeZ5zy2UsrHkKCfTZ4Z27jz03ddO/OTQyX/f/tr3jn6wtiWnaw1yZPSaLIuQ8gXp+X1wt6d22KLVwZWxUG7bEHcyWzEMA+t8WJbFkSgVVGiaxks35/P5dDodRPFFIpExv9y4cSPQMIY0PxcvX74U0MWL5y9cOIfo/IUL5y/45WKohDSWV3CowE1UxsbGIhHIGCUIQvDYkEs2LNozmR8LHoltKRxLZjgc/0lgdaE/raTHJAx6MsaSsbcu5J7cmFzTn+keJLoG6eUbyyv7ycf7Jg5eYhWc9R36keXpNSf9Y/XSrxUvPXHg1R9/r+9QV395xWDlj58rfGltrquntKKfXjFQ6eqju9clnt52eTjHtpqN6JVTpw/vVSsFmU7NE9O33O1uBz3oCui02qI1hUf2KUGTBVUWNVWxTLON1ECfEfBPzyuX64lknBMrVXb8+Jm+bfv/avO+b+1582eF2lXT40SFu3r9giA3Laet9bRtxwIfNc0wNMexLMvQNEUQBKxZr1QqOPdTOp2Ox+NjY2M3btwIVJZYO3nZL5dQuXz58pUrbczhaEAMOKz/CfTxpVKJ9gtOqtNABS9BhVM4aZpqmoZPoGC1QZq3fbnM/RAl9Kja/TzUAlXHUFrlfJOElGZ8O7QIXMFATQkRdrAQLE8mK6XkK+/Fvto7tmYw1zVAgFlqkH50Q+6JwcKJUX3SjuI4ntEwMj9TLv9n5uKaE69+7+nB1x7tZ77SX3m0v/onz2RX9BRXDFS6NzaX9ZVX9k482Xvt2A2WqNZL2eFjr+1sFGIyk7p1JMb8JrV3P+jjMp1CoG/bYgPQm9NB35ZEgHtzrBKNxliu5npcjrzw2rF/37H/+9eiR3mNsj3V8ewbI1ebbMW0Lcf1TMuRJHlsbHR4+Nq161evXL18+cqly1cuXb0KKsuhoaEbN26MjY1Fo1EcP0VRVLlcxspKQRBwCjHM+7FSEsvN/ujRFoqCcaMDXvP/isEdnPxDYD04ZOpFMdsItbmea2l8g6iTcY6KTQV9XIU0T7DOAE9n6In0S8cja3rGVw9OdA2QGPTLN6S/vaN4JmGjYdTXuFocnxssX/lS5uLfHtr7z9/vP7K8j360v/xof/kr63J/+kxieQ/Z1V/7ynpqRU9x9bPDz5+qjueId4/vfevgS6mbF0Xq1llQb8nj8Q4fP9Dbrqc7rq3rViwWbzRrtidZXiOZvXDt5nFBJjxPc2Fe5UWiYxPFgo4MsZZly7LMMEytXhNEXtFkRZV1Ayw7AXBDiOisTt8nwFYgEWEPR4zXoBF3g+mdYUZw46sGZ77NSud/6PgODse6IpTrZIIlYwJkYoKJLF5SSYZFZcAyJZTzZCGz9fDNlesjqzcSXQPM8gFm2SCzYkPiB3vIoaI/SUAmAMuWY+O7rpz/u5NntmzY+cK3e95fifzyl/WXugfyy9cnV/QUV/WXl28gunuLXf8x+o8vRZNk8+03d79/4vWzJ47w9yXoQbzRZT7g9JZltdEWiDcw6bQcV3M92zCs8bEIRVG6IWsmp+lNw2Q1nTUMQUGqz2gkEhkf19W2NhPSvqICgXMwX4TokkAJE0xJOwCKJ6xz5MyZDk18lXB7B95u+TV87Ieu3/IqnmuaSqNOJlolWF4zDHocNQp9oDJRzGUGXhvuWhdfNUh19ZeX95eXDVRWbYj+6wEiUkbWcSw9uZ5hmW99cLTvlf6f7tj91IajT6wfXtVDdPcVu/rzy9bHv/ki/Ve7ao/1ZFasz3f3lh7ry3+z7/pIrvH+yTfOnTr29uFXOEhCszieCPcAp5fIpFQjFAl8zgLQ65o2CbUA9KB2sGFpHdBDeqlUenj4ZiQaicbHxyI3boxcvTk2dHno3NWhi1evXrp84cJENu/qpmciBx6UxtZ2Ye0h5IAVUt/MA1m3xtC9t4flGgIsi90GPWQdQ+6+WHUIXJ8rF7OpZM/+4e6e3MoBBkKo+irL+qpfXT+6+US5JMLsGDxBHJBzdM3bcyr9F4MXv95z7Ws9scd6cqt6Sit7C9192eXro3+1m9503vvu5uiqdYnuPnJ1H/m1526eGS0PXbnwwbtvnXv3DbZ036gsRTI+I+gNXZ8UKgLQo0SzWPHiuq4giCRJ5/KFYqnIlOlKlWFbVYGtakLd03iBmTBbVU+WPNN0DcOxQLi3kJ8tdrXFyvsOwAdKfdQ++e3eg/St79hyTVFqlFoQzQS5JidBD/YpCPVgK6VMKr1h/8iKnsLK/jKOG1zWW/tG7+juM+WyAqC3Xc+EoExPkL3NxyFf2qreie71xe6eUncvSDIr+/Ir1ke/+2Lh9XHvZ7vHvrphfEUfvaqXfvy5yKuns7FE5uih1+olnKjm/ub0pjGZnhvZVHyFJc443m5qv1joHiCruK4mm2zdE+vV6NWfPNnV//RfXj/5VoMsOZrqWha8Hs/TEdnoiBkR73cGHIrV/nZrCN1ze7iWZ4mGwLAQxxSfCvooT8VYOtGsEKlUdt3+sa6e4sr+yorecldvdVlv/dsbx98YqjUNQDxejdX0vIpgrz+cX9NXfGwAGDn4Y/bRXX3Uyl5i1frkX+1Inc17L52I/3n/WFdfeXVv+fG1sYEDo8mJ6uGDr7UgzyTkeV0UuhfEGyoBkbIiytktgcpSkwULQO9zeP8TN2BRHMdFeGh4tWwL1pOT+LHTb7/0s38YfnXHlr95vOvX/vcvfep/+9JvfOIn33r8+rtvcGTWVjnXNSzPNlHWZpB3UMZmBH00UqOz+VZWsNn7q+X4Hor3HLLnumHbc/5/9s4DPopy6//ce9+rUkNVWnqn1zSwXKUk2ZYE0hN6b9JSQWyUEIqIAiGAoggidsErLYWilEDaJrtJtveWLbNtdvr/88xsloDge+97fd+P/nU+D8NsX9jvnDnPec75HTfmMlnVQLKvC3o6HUDlhd6kV7UIZdtPNXHLFWn79CnlWt4eA3evcdX7zRcbzBABfBsMBwOhKHkn8taZ9jl7pHP3KdLf0aTs03D2akBUfo9y7u621YeFtyXYlVui5e/Wc/dq5uzTZewSFFfcala4Pj1zRttRT+c2/1Ggp1e/tR2wRYs6rIjD7gHcW4GEJejV3LUCS9tx2pwzPyNTD0SXS1EUgqMU6my5/G1p6svLJ4xcN3H4+olDV00YtnjccxlhfZL9/84bNWTrAvbN7z42q4UoYiEomKA8mLe7KK0S0PVJ3ehmTjW62g6kBnSdC7+E0eMf6349YcI7vqVf3wu6P8d37HvU93zmId9s2/fM7ge+kBHzct8cvfu70cdgBkp4IJumzaJgpPYeiAnbVC0WdavRoLvPV2490cDbo07bbwB6OPuM3L2GjceEP3Z4QwSgYg0Hl9BWhb30w+bUctHcfYrUvUreHjV3r5a3V52yV5FWJtxwrKNZ7JKItQWVzdx9qrQD2tTdbUv33rwrIz//4htx403br2Tm7Ur+b9/Sg5Pboe3wWDSY3YLY7YgD5NM/Bnpg531M0r3LwY9G4XTaINTO37ckZ+Pzo0sSQl+LD3ot1r8oJnDD1IBV4wcvHds/J7ofJ7QXe9Tg1xbzfjp/0q5pRR1aErNTBAzKcIG977quPECD+TjmgxgJHRDLYehnBC59YcpHIus+7HyxSyan0hfQZPKQka4N7ra5n7Axon/MvluxlPeQyXzufj+Tav/gX/OYI/ofiDmdJqkFCO7Ro4s8iNZp1Gt1N+5JC47UccqVKXu1qXu0KXt1yWXqgg+EdVIXExdj/ktQironggqPN6eWi+fuV4LK8T1AO4SGXp62S7DpWEeLCNLKtbs/65izX5r6jjKlvD13x/UfGl3ffHexra7a5l0V/hWM/f9/0DO2n5mR0ipmGEI5LZfe21c4fUpBbGRJXAiAPj5wa3xIaVxIUczIwtgRG2OGrZgweN7o/tzAv6dG9Hl7YdKd8x9D6nbK48DcLi/xXRcVnxX0dh4HXiu45mAgGQaGPW5GfNjtdjOVUwyITifolMZsEATZurbOzk5D16bX63U6nVqtVtCbXC6XSCQikait29ba6m0oxCQyNHdtjLDm/Yc3RliTyUFgjpnH6+vrFQqF77JAPX6joSdh1K62AuG6R6Dn21R8vVZ3+Wb7ivJa1k4pZ7eStVPOLVezd6tfPyPha2DvrIt+G4SirrdYNlQ0pe2RztmnSgUSUSDaw9urStkrSytr3Xyig99hsegMH1fpcg8I0/aI0/aIMt++/kmNru4+Xym49Yez9HZNO2xWd7P0Vuzn7g1t6eke8EzgEVQvgPswl6bhp715c4qmRJfGRWyJCymNDSiN9S+NCSqNDSmNCy6K8S+MCyiaFrx28rCVE57Lj+zDDXwqbdzw7Suz733/mUPRTlg7CYcDsdndVshlgxw2K2QzW62dBqNOb9TrTHqdQadUK2VyqRgg2tEh6mhvb2cSFhq7NkbzlWGOUSdmRDPruzYmAaexsbG5GfRRY5gWCARtbW1isVjStTHKr1p609Gbnt4sXRKwVqvVV9HicDh8+oTM1YJJT0MQ5Mleje8MYFrTeUi3waZpfQC9T2NVxdcoNd9Wty4rr2HvEiduF816s51bpkjdoyn/WiE2wfQPQP8EBAgP/FDfueZQY8puSeoeBW+3gluu5JSrOOUybrkotYxf8EF7c3un3Wi4eN+y9GDDnN2C1HJJ5o7bhy/I1XorpAaT6V9lFvu7cW+sIFQvRyEz494gLhuOuh9ysxmfnnZnMDpgQEfbKWDqYev3h3ZtnRmzdXLY1pjQ0qmBJVP9S2L8S2ICi6cGF8eGFMWFFsaFFsSHFsaHFsQFr588cvm457Ij+7MDnskeN/zA6pxLJw42XLnIv13XfK+Rf/9eY92de3d/qqu73djc0NDcWM9vauA3Nbfw+S18gUDQ3t6uUCjkcm9DtS4jbjCbzT4Wu1dXPeL5dHe+/1ePfWg/+YDx3xAKsbiMom7Qe5uFOJR8lVzz5eXWFXuvp7+j4JRLZ29v5+6WppbJD15QqO1un2wiRYCGMGeuqRbvv5f8dlvy2x2s7SLWTknSTsns7cJZbzXxdtYXftjW3GG0apX1YldBxb3svYK0vfKMnQ17PpcoNVYbKKH6w0NPYPAToMdQCiXo9SUQXSFQu5R/YGXW+vhwYNpjgoqnBhRPHVkS418cE1AcE1gcG1wUF1LYNYriQ4to9FeOe27ZuOfyo/qnBPVJjR721qKM62dPQrJ2xGJEHTYccREEwmhogpoLMIDv+mSAwCM+d8Ln0/+vYv3Lb/7LX7XrURKsW2A21Cr3QQ+K9+hmIU5ls1qh+/yycNHOqynlHexyUVJZR+oe2dzdsopLSqPb5YWenlcZYariomTenrvJ29vZO8TcXTLeHgV3j5y1uyNpJz9l1/2ij9paxEZIJ2tX2neeup+7p3nOPlV6Wcvbp8Uy1Z/QOyDEZXsS9DiITSI09ARB4iTuqfvuTGHS1NUx/gUJAYWxAUVT/RlLXxzjXxTrXxwXUBwXWBQXVBgfXABGSEF8SFF8SHFMUOHUwPWT/ZeMGTJv9JD0CL/FMYEfbFnZVPuDWS2nUNAJgu5lAoJxoDMjPRWlzTZdzkXQe5q7LoAe+vuXifw/ePShb/NLN1AKhwi7CkDvXZ8C0DtUoJWBTm08f0O1tPxa4tuNSbsErD3iOfvkGeWyD2u1NsLlVaoA8WJcbqV2fdGSWXY7eUcHt0yWtk895x1N6jtKzh5R8i4+b1ddwcmWZpEW0oqUetvhrxpyd99P26tO392x5cMOsdxCz2L/WJa+2aYEWfWIzUiHbiAP6ChIl6F1D1nSPj1BEah38RvEEAkC+/H7LzfNeWVZfPCmBP+CGP/iyf5bpvhvpY09A30JzT2DflFcMDNKYoO2xIeUJIRsnBqwZtKIRdEDc0N78wJ7zp8++shrr3b8dNltkFO4i6RAzSJQCCNxjMQRuimK19Wi578Mvj+H6pex9l0WfuFp/8pzHnm57wrjixr9C549TpFuzGUErcRA9guo5KBzb5ocyka9RnvxR/Ga/dd5O9s4ZSLePunc/bLsfbLTP5qcoNcLLX6PYxRONuup4k/a5uysY+/sACtZ76jT3lGn7lOwy9o4u/ipO+uKT7a0dGjtaqHJaDn9Q3Ne2R1euSJ9d1thRbNIYrSD0M0fB/quoIFT0wab1UDxxgXBsBPHGZmnrpAKnRtGhyiBs0H7GQB6nKKsnfpvTlVuyXpl4/TAwpjAkon+2yb7vz51ZGmsf1F8QElcQEmsbwSWxAb5RnFcED2CC2OCNk0JeHX8sKXRA3JCnk4JemrlP0af3l0kuVfrtulJUHZEECSKUqAzLQJS3gicwEgKI+lmJz6vnTlgYGVilMwe69qYHj7MXNPlcjGqHg6Hwxfzsdvt3SM/FlpFh9mbu22dT9h8Ewxfg2ibzfYgm+PhU9MXpAUXNMxtMapNqna7RuhQtrrlrU5lM6SuN+jk1+oEBe/dnLNTNnevEmj07RHnvSs7d8dKC3HhCOlBcRQjqVoxteoDecrORt6udnaZKKlMnLxLxN4pSn6rZU6ZYO72u29/KhZLjS5lq82g/+GaYOGeO5zd0swyweb36kQdOqeCyXj7FeKVv4eJLIC+CVgXlcBtUnqcFhp61+OgB/U+XVr1AC3mDxCEcttvnD5SMGP8htjg4tigLTEBr8WMLIkbWRQ/siTOnw7mBND7wNLYoFKa++JYhnh6HxtcFAPQ3zxl5KsTnl08qn96aO+UyIHr01668MEBTVsd5jDgMOT2OEArZ9jpcNgdkNkBGSGbicYSNPw2m81Wq9VisXR2dv68cRoj9sTEKCUSCdM+ra2tTUhvAnpjgpV8Pr+Z3prorbmZyRZtZG7+fM9EgZh9a9fmiw5pNJonGXsGeloqi8II1G41GpVAH8GubHUpAPR2db1Z2y4SdRz74u6Ct6/nbK/L3iPMLRcu3Ndx9Hx7vaCtpV3UJpK2S5XtCv3H14wLD0l4O/jsHW2JO9tmlQnZZW1pZW0ZZS15uxsW76o++c8OlVxnl7dYdYrbd5veeu98yYHqHQcvf/jRFa1I5Hhyg5z/QUjnNx+n74Lermx1GhX/HfTeFEk6QcBruAgQRict/PpC1ksLJ4xYHx9QCAy8f1H88KL4YSVxI/8V6Ivps6U4NvC1aWGbp/qvmTR80bjn0iL8MsYP27GYe/1cZcvtWkkbXyRub2sTSDqEYmGTWHCvraW+pQUwyrDYnT8fdkzXNKFQ2NbW1t7e3tHRIRKJxHTvNCYEpFQq1Wq1RqPRarVMjyqj0WgyAZknCx2mZDqV+xqoMA3Ku9a1QGjStz1sysEtkt5+fr/XXtCxAnrdG4OdVqOqwyznd0mdNTtU9cDR13ZcrfpxyaZ309acyHjtWu7rtxe93bCs9KOVr25au760oHD75tIdBW/tW1X+Q1Z569w94tS9Su47MvYBUcYBUXZ5a/b2u3OLL+yorLrfojCr1TaZwKLpUImbb1z4uurMJ7fOnBRd/tohqacbzT9YD/4fgN79Jb8r6A1y2GF2A/fGhePoo9Eb4N97XRvmCEjR4x4Kc1OECxLUFXGmZ0b6zR/dd82k5zbFjCxMGFmUMKIYGHufkxNYEusdj1j64tiQktjgktjgrQlhJXHBm2MD1k0ZsWjcoJzofnPCe2VPHlmaz75y5phKUK+TdRg0SqNe3WnSms0GH5dOp9PXFI1RKHiSX/FYBB8B1Acrc/DIWzFZ/gzrvic88hzmUx57p/chb4SdWeXGUdhu0UqsjJ4wcK+bHXQjSpeq7fK33+fkrp/BXT87azdv/sHMZcfScrckJWfMmp0+OzH7lcTMWbx56Wveydr6bdZr/8zcdjlj2w8Zr3+fWfJV6rqP2EvefzG19FDl12qJwqISW1X8TgXfqesw1l8TfPmB4JN3JV8ccbfedEobHYpm0I1Q7e3W0R3if/f49wS9XS9zQZ2oPA4rAAAgAElEQVRup80NfPqfQQ8iht58AdwbpUdJjwV1aUzqxu8Ov7E0PjgrqndO1DMLovutGDt43ZTnNsUOK4z3L4wDMZySuMCi2ICimEAQxwShzIfcGxr6ELCYFQPoL44LLIwbuW7S4FXj/ZaM7pkX1TMjss9GduylEwds8nZQhUJ/gf95Os6TwP8/vN/n3tD/CoLE3A6T0qoSgEaRymbQPUHBd8pb3TLhxU/PzZu7mDcrjzt7ETdpESd5EY+1MIW1gMuez+bMZ7HnszgLWRnrkvNLknOLWDmFnKzClMwCdura2eylSezFM17JPH30lEXUbtO0WHQNZmWzWyVw1F+VnXtffWav8pO9+qtfwu31oEWzutWpAb24/13KH3n+/3fQd9l/OsDcgavPOdqP3vpsWQlvaG50j5zIv+RH95w/ql9eRN+8iD5Lxw58ddLQTZOHFQEXP8Abue8GfUkcmNoWx4YUx4aWAGMfAvycuKCiuMCCOP+1kwevnDhg6fi+i8b2zY3sxQnsmT014uqnJyjSQ4HZLTOf/j/k9Ff9qEehx2HYpoPUQrtKwKi6WunqQau0+YuTH2am5vOSc3jJ81JY81LY+VxWPic5n52cx2Llzp6VmZiYM5s9fxZvySze4lmchUngTMhnJc9jJeWzk3I5iXPPf3rWKhNYNc0WXb1F2eRWtrr51xVfV2rO7FN9tEty5j1j7beOjjqnphW0IdP8CT1z+QU/EbD0TNIj+PVJB2U447yTabn6iuzshMtvhh/IHLIu9un8qGdyI3tnRfTLivDLifBbHNlv3ZhBmycO3TxpGFi3esjSB9KBnUAGerAHAc2gwviggvjATfEBKyc/u3zKkKVTBy2dPHDJ2P550QMXxETUnK6kSBcFwvcYfQL+qiT+H77ZI9CDXFVXp0Pb7lC3QYo2q0JgVrVYNa166f0TR9/n8DLZ3Bw2N5/LyedxcjnsXDYrj83K4bCyZ8+cy0rK4nLzOdx5bDDyOdwsHjedy8rmJuWxZ2fM4aTX/PMbi6rZrGmwahtsKqCzgLTfVXz/sebsAd3Hu5Qf7lKcO6T68YK3Ddl/nI/wm7f0oJMz6KkLUi90YrfNADsssNuO4yhd5sHUozFLocyyOc0FaaLcdXDTZrgmzlM1kaydglb9Q33u+YtlY95d4b9mZu/0MX+ZE/63rPBe8yP8FkX4LYr0WzF2yLpJIzZPDSqOCS6eErAlNrAUhDL9i4HPE1IUG0Yv3DLEB2yK9V8fM2LVpCErJw9ZOWXIqslDVk0YtGz8c+tfHH3r7FHKbWaM/X+Sb/x/iPcTP8rHPX32AoFLq0FkUQshpdCqbLWo+FZNm7K94eD+d5JZmWxuLpuby+HkcDk5bHY2i5XNSs5iJ2XOfCU1aXYGl5PH5eaxObksdg6bnclhZ3DZOTxWXvKstOz07HvXL0OaZpumEdI2QWq+Q8FHJPeN179RnXlP+2G5+mS59NODihvfubRCiNZUe8Rd+Xdv/h6gB6WZ9ABpZxrU0Ym4bQSB0CF6oMPYpVLEQE9QJEzhzYj8oPMml7oaTl0No66GUNUh2LVI1/1/2Fpzbp7j7Fs/buVLA/JG9c4K65MTPiArvF92pN+86EHLxw3fODGgeFLAttjArbF0WDM2oCg2vDAugl6sDSxMCNwUN3L91GFrJg5ZPWHI6gmDV08cvGbCkLXg+NmVU4aXLU5Tt96ngFIsjv++HRzgnzHcM9BjGGS2yPUq0DHBpgSePaQVi5obdryxKykph8vNZ3OymMGhD7icbFZS+oxXUpKSMrngfACnBJudw+bkcNg5Kdx5qdx5s2dxFy9cKLh3zalpcqibHWq+HUxV+bC8ARX8aPzqpPrYPu2pA9LP3tfduejWChlj/+9S/sjzf0/Q29Rt7k416uhEYYgEkUhGks4HPWOxcIqCKOgr671ce9VUgPvVYKoqiLwe5rwWgYnYlH09ZX8DEpfUfZpasSJobXyPeVE9ciL+kh3+dF5U37yIvgsj+68dP6wwJqgoNqgkIag4Ibg4LrwoNhxY+vigooTAzXEj101+btW4QWsmDPGOic+umzxs1aShS8YPWZ0YW3+jhiIJDMe6zsYnmtLf+gNd0DPl3STpdrgMRm27rWs669BJW+puF24oSZydzePN80HP5ebweDmpKXlsVuaMGalJSZnA8LOyAfH04LBzeJz8NN78WTM569etEzX95FA3OdXNTjXfpRK4lQK3go/IGqDbl3UXzqi+OKH67pS5+bpTDRZl/3Puf0/QW9VCl1GJOjpxj51OfWGSELqg9xollMKUHslbthvj4apwqiqIqgqkqgM9tWHuu5MoXQ5uX4vYVlHuDZRptakqsWbPqMPzBm6I/3texF9yI57KDn8mO6J3XqTf0jFDV48fuTE2sDAuuCg2tBgM4NMXxwdtihmxZsKQlWMH+KBfPfHZlROHrpg0bNnkYVtzOTq5gpZlwH7nU1lwSjL/qfS6ByhRgBGrWS+x0t3/bMpmu05y70bt6mXrZs3M7G7pudxsHi+Hy81OTc3ncHKSk7OSkjKTk7O6Q89l581JWTBzBnvb1q0ywV2HutGhbnaq+LBCiMg73Mo2p7LVLm2ARfftt6oMVeftbXdAM3FF0x8gekOX6jDujVUldBgUiN30c+i9CY7gJ5Ij+nP2unme6mi8OpSqCaRqgrCqQOeNMahwJmVbTLrXEo41lG0VJU5z/fi85/or2i8Tqt4OPZjd+9XYHvOjeuRG/i0vqndOWM+F0f2XjB60fMyQDZP9N08NLI4LKY4PKYwLWD956Kpxg1aOG+iDfuWEIUvHDV48ceiy+JCT24sJGAWnI4aD7ISHmzMzEXRflP3nlr574Lz78c+f+cg9XXT++h4VPXdiiuYxFHNCnUoGeuDeaMQ/Xr28ZP7y2bOyOJw8DifbO7jZXG5uUlJ6Xt7y/PyVbHYOY+wfgT6Fmz/jFda+8nJ1R4Nd1ehQNTlUfKdS6FK0uxRtLoUAkvNhtRCVNLmF9+ySBkjRZJM3/cEsvUpo18lgmwGDH2fpAQUo5bnmbNvsvPYydYU287UBZG0gXBXkqZ9OaXIo5wrSs5pyrSN0C5z3pzlrIzzXQvFrkZ6qcZrPxl/bOe79HP81U3tmhf4lO/yv86J75Yb3zgnutSS6/6pxQzZM8S+IDdw0dcS6iUNWjx+0egJw5ZmxcsKQJeMHzZ8wtIA7rePGZcAdrfYCEvuZOTa99skovzJrpR6Ph6nqYNRebfRmNptNJpOR3vR6vVar1dCb3W5/IPLzCOxdN7smNL4P7HrgP/0bvDGtDw5ySQkScUN6m0oIqVotiiarqqPqwnf5WQuSEnPoqWo2F+CezQHuTV5SUvrqNUWrVhVxOLm0mX/IveFy8jisnBmvsI5VVOilLXZlk13VBCmbbSoBpGx3ydtgmdCmEJiVIEJKd0PhQ4pmm6IJUvynS7O/K/fmIegZnx7QRW8krdxhpgwnPHUsrHoydTmCuhJMVgej1WHw9bGUOJUyr6Kg1ZR9FWVeDAuSoRvjPbWRWE0IUR1EVkVQ1ROo6lc0nz5/5c2IHby/LZ3QIye8R174U/nhfedF9F0Q2XfxKL8V4wetBvPXwasnDF478dk1E73QrwZhnMHzp4w8XLwKknVYtAaD2qBTajVKtUqlUigUcrlcKpWKuzamd1UHvTHa2UyOzSN7JuVGIBAYjUYUBXVIv3SJoE+0f2dx4EnXhu73M8dMUhNIoQNqxm6LXdtBz2X5ZmXbt2fPZKZls5Iegp726fMSk9ILCt7YsGHbY6EHYc2k7MTZvE9PnzYphHZlE0QPq6rFCmRiW52KFpuyxaJs6WoBBKBnxiMT03/35u8XepTpI9AFPU5RdgRt9wgLqNoIqiqSuhxJXQrBroa6q0fh916gtIso60bKvI6yrKZUme67ca7a0XhNJFUTQlUFUFdHglEVSNVEeq5MkJ0Z/1VJ8HbuoCVjnskL7T0vyi8vsk9eVM950T0XRPVaMqrfynEDu0O/auKglZMHFKfG3z7/uVookLYIpEKRpF0m7pC0g4QasHV0dDBVfzKZTC4HdVVMkhnTuIop/DMajUxqmtlsttlsdrudKbZCEOS/dXX+TUvve/ojp0n3+5kM1gd7Rn6CRBxOg8SmFkDqFpNccOZEZSorjZOcy+XkMmae3udwuXmzE+e+tm13cfGOx0PPymUlZrFZcy58951VI6LTCpsgZaNV3WTRNDF1KjZls03ZDIHV3xZ6/8eBXgXq0yBVs1XdYtO1OS1qFLYDvfOHruQYRUkQ/Rn77UyyOpyqiaSuRuCXg5GroY4bkyhRGmVaTlnXUuaVlGkJKZjluTEGqYmgnf5QqjqEqg6mqoKpqhCqOhy9Gk1ei3Vemib7JObbwoA3Z/9tQWSPnNAe80f1zIl4Jje8d25k37xRfpnR/fImPbskbsT8cf2zxgxckxxb8+lxxKRzmAwum83tcHrcHg+M+PJtfB2s/lt8H+uPdH/VI6aYUedh7gTZ1MzE3vekx76d1wNjgO7ywLzP9L3y0QM6hkNSuBu2qIAClJqvE7dWHjzEnp3CY+dw2dlc2qcHq1ScHDYrO4Wbfvi9Q2+9sTs5OYvFymKzH7g3tHOfmzhrbnpa+o2qf9q17cC9AaMZUoGSczprH5StQPT4d235Lz//N2/p6SxLutVWk03TZNU12TtlqNtB4RjNPPPDgLJAyn3N07rRWfsSBaAPJ2vC0avBnuowuOEflG4xZV5BWZZT5qWEOstzdypeE0rUhJA1wWRNGEk/ufsemP/akVRtCHJ1QuN7YYey/V6N+a+8iL9khT2dE+mXGdk/NcpvTfKEj8rWfvt+4fvrONsWJH976kO3xUJhGPhiwOd6hCQA1C/nfj0ezp/d+4gpxkkCI4FSPU5SVsihUKkhu9P7+cxTu78A/G8xYchH7v3Zx/zCHQSCOPRmVSuk4Svbmg/sfpc1OzWFm8NlZ3HZWWxONouTA0x7YkZOevaXpz8s2747MTHjZ8TncDh5s2amLc7PbfzxokPdapeDlDKnsgX0jqV9GxfIoacTy1WM6s6vk0z/u8mnfwz0QM2GbhTDSPGhFkr7EXyb666eTFUDjvGaCLg63H1jLCVJpTpXUtZVlHkZZVyItc6Cb4wmaoKJx+HehX4odT0EuRyAV03QfTa6/t2wC8Uj96c9s2Zyj8ywHnOj+i59acL982c8JiluU5jafhLVVXusnaCICkUA9OAq9Bju/zegx0jCZDG3CAS37ty9+dOtO3X3rDY7qGph5NcIINSJogQzQIEj/b/m2zM24xcIf8xDQM2406Jth7St4pb6Ha+XJc96FHoeLy9x5twVi5ZVff/17h3liYnpvriN74DLyZ89M2396pXC+7UOdatD0eT8E3rvFeoJlp6WBKVIkEvsoUgb7hAjrW9gtRPx6iiqJpSoDUdrIx210WjDdEqTR1nWAOgtyyn5XPx2DFYbQdYEETXheHUUURNB1IT/bIRRtaFEdZjzQrj4xMC2yj6iY0Mb9wV8tX7Ea6wBc0b3fGthBuVygH4lQNgMBQnMOAagxxhFQJwuG2QE2B5g86tDL1cpa29c/+b8dxcvX7577367SKw3mjwY7kQwOzM8KOTy2JzeAbk8Dhhzo6SH/t6Pd2680d8HX/vRIxLDPJDNIIF0QmFDXWnh64kzU3ncHA7rgaXncvNmzUgr2Vx072b17p3lwNIza7Fdi1NsNljBnT1zzrbiIlnrbYem1aEEndv+tPT05awb9FZNo0XXaDNKPE6Ipoqx9DhFST3qs/afcsir4VR1GHUtjLge4a6JcPw0mZKmUMbFlJUOzJsXk02vYNWjyOowCvg24XhNJMC9Nsw7gO1nRihZHUxVh+lOD5afGCCu8JNWDJYf9e84EnVzz5gDi4afen0OhagpwkPHNUiCwGkDj9MamPQxKAzFaK0p4NUwimVMmJIRgXI4HDabzWKxMFVUTIBSpVIZDAYYhrt78N2ZA6cNuIiQMoX8n5cunvns7PnvL/x0+7YcNA9FEAxzwbAThunWXLALRT04AaO4bzhhxOFGbA6X2WZ3uhEPCvLzQLHZg8gP8wndP/PnxzhJwG5IZ9d3NN65tXZ14cyZqSCvhp3N42SDxBtuLpeblzQrY3/Z3rbGu2Xby5KSMji0z+NNQ6DRT0mZP2tG6p4d2zUd950aoVPZ/Cf0XQ7cI9BrGy16EeywdtWL0Ndn+Ee3sMBR8wJ1mY7AXAvFr0e4rkUi/JcpwwLKvIKwrqGgVZQqE/1pCh2/D6OqwqjqcNrMhxG1ocwga0KZAXz66hD7N8/KjvVUnRigqBioPDJIdcRPfnSA5MORdUdGX6vgIfKLiMNotbtMFoeh06LVgTZ+GrVSJZcpJGKFWCTv6JAC3Sev8JNQKPSFIH0qZS301traKhAIhEJha2urQqFwd/WJ6I6b7yphNJn+efHi0ePHzn5+7k7dXb3J6MFQN+Jxwm67y+l0uzwY6sEwBMcxOt8NI0iUAKIoQBcF1JBRCE443V7pKqfbg3brkfOYiUj3L+E9Bl1KEJfZbpTcrKlesGDNzFnpbG6+D3ouN5fHyUvh5H907KRM2Lzz7V1JSZkgEY2bx+Hk+twbAP3MtIqD7+oljTT0oLvJn5b+cZbeBz1o90tRFEKQZlJ/0n2X666ZTFYFE1WBZG0QUhuK3hpLyVMpaDVpXUNC6yjLEqR1prt2LFUVRV2Noq5GgmtCTcjPRihVE0pVh5M/hGmO9VFU9NQc91NU+Ckq+isqAPSy40P5lVG3j8+SXj8gbakTtnYIheI2UAzaDnaidrGoXSrqkItEKpFIKZEqFWBTKpUqlcoXndTTm8FgYGKUTHWVjd5cLtdji1bpywXZ2Nh8+MiRI0cram9c0+q1MAr8FA+GWu2QE3bDGGgvQVKUG6McHsrmJs0OzGRDO73DY3F4HAiG0polME45PbjVCducbhTvasNC/YsbiSOQwyS/eOFCZtbS2UlZLG4+C2CdzeXmcLm5rOTsnMzlF74+r5EId20vS07O8kJPp2Ey3HM4eUmz53760YdGebNDLaCJ/xN6RiuUtvRgrU7dZFU3WnzQY7QONOXEMTHc8Tp6bRx+fTRWG4FWBeLVAci1MKoxltLnUvZXCehVyv4qpc5y18Wh18cA6K+MAqPKm6RA1QSDUR1M4x5KVYdSVZG2T4arD/VTHe6lqeyjrOirONpPftRPdnSAovLZliMhrZ8lo5LTdrXIrDNbjDaLxWa122wOm91hczoh2O3EYDfphnHYg6KgGSBBJyN0r+Lz1fIxlPkMue85j3g4Lpf78uWre/fuP/vZuTZRhwfzYCSGEBiMY1aH3eFyeXAMo7P47ShuhDCdhVSbcaUJVRoQpd6j1HsUBrfa7FSb7QY7bIFxF0656WF3IzbI7kEQvLs3/0szXPox0uOyar754su0uYuS2LmPQJ84K33Z4k0/1d40KERl23ezWAz0uUyuJQN9cnI2Kznj+6+/6ATZ46BpId3H6s/oDd0Aw0EvUNtVjTZ1k1XDt2jbnTYdhXnoxVgdBV111i3Fr0ZitVHo9QiiNoS4GuC6OZoUJVGdiyhoHWVbQ0ErSeFs/OY46tooqjoCmHlg6UOpmqAHg4aeuBJEVYc6vhmhOjZAfqS/oqK3srIvMPAVA2VHB8qODlIdG9p0ZIzqxjYK76AQN0VHaxjvnRZiwOm5NVNhR3vfNM4++9kd7kew9sU0mTOE2TMvtFrtZ89+uWfP/suXr3Z2mjHc2/YVoyibG4Hcbjdw34F1NzhIhRlRdqIKE6owIQoTKjd4VJ2YzOCRGcGQd6IKM6a0YCqzx+IG7es9JOV0uWwQBKM09t0cfG+sx/ftHzrA3DbTZ598xmPncpJzOMmgcIQx8ykp+cmz5pZueqOtvtkoFZW9BSw9mw3imN1HcnLGnNTsG1d+sGvAOhcExKT4DlB9+4cPWdIGoJnmvpFu0C4wqwWQSUIgDlAmhQoR+TH79bnUlWiiNgq5EUFeCyOuBMH34wltNmVdCRakrCsoXR5xP56qjQQh/OpwCmRfhoE1KWDjg5ikNMbSE1eC0YuB2lN+ssr+0qMDpJV9ZMf6So8OllY8Kz06WFYxWFHxXMuJ6ajyAkWYKQSjvP0bvCFKWgPH23IerBH9az6yj6WfnxIkSToczk9OfVa2652bN++4nDCdwwagp2g3ptOBwgThIUjIRemtlMxEdRhJpZXSQpTaSsqMHoHC2qF1ivRuuYUQGTGxiVJYKYmJkhpRhcltcHjcBIniYAZsgdwoSkc6fYuwjL1/dE+f3STutFlPnfiEMysjNTk3JSmXxwYuO4eby+Plc5PmvrN9v0rQYRS17/ZC712ZYma0IB0tMW1e7oL7N6pdGiGk5lvVTRBYk/qjQ99CN5xqdSpaHWDNApgBh1JoUwocOhEGQyBQj6kdivOd11fiVxPw6vEesBoVCtdGYKIkwraUcq6j7Oso82KsbTb64wQv8Qz31WHA0j/gPghAD+4Jg756VnrsKUllb2llX0B8ZT/p0UGA+6MDJUefE1eGXd4+5tqHG+zi25THToHFIbrJPD2zpsM3TMt5b8cIH9D/ykF36JnsTAzDv/3mu7fe3HGt9icnIJ5RCwR7sBrl9NjcoEIeJiiNyaMxUwozJdSgt1rUV28Lvr5y5+yF6x9+fun42R8qTp///NItaScqNqHSTkJswKRGTGrwKM2wyYEgOBCmsjk9kN0N3tcXy3zsSUsSJI5SJG4zmyreq0x6JS2NnZfKygMmnwsGi52Vxs38qOIDvUyiFfF3by+jM+m9+fTMicHl5s6ayVu9cl1r3Y8OdasNLLf/CT1w6OmTXiFwKoROsG91KgRuhdAhF7g0HZjbRmdgQXbNvRsf5rVUjvNcTsCvRDuro+C6ybgmA3OvI+H1lHs9pclE6mJQ4NjQZv7Bvhv3gPgQqiqUvBqm+6SvqOJv0spnpJW9ZZV9pZV+ssqB0qMDpUf7i46OaD40dn9Wn42zhh/ckPXjV6cQkx50+KE709KiliQOTgGsK4T5WGqeyH936EFTT5y6d6/+7bd2XLjwT7vdCVpD0O8HiCcoFCctDjdMy3baYFJp9PDF1to6+fmali8v1/3zRmP13baau+036iXX68U/3Gw68MG5yrPfKayIrBMT6xGJAZMZcXknruyEIRgEX90oZbE5UYRe6v5ln54AerV6rWZP2f5Z/0iZw52XxsnncuhyQW5uYtLczDk5X589Z9YpVJLGsh27mAoSOhMBTHOZ8cor7OKCUgn/HqRstiqb/oSeiVfSll4hdMrbae5bnMoWl7LFpW5164QwZMBAD3aPxyT68LWs11n9v98ySvfZy/ZrM4k2NmVaiLrW4a61lH05IUpEb47BayIeB30X97SNJ66EWj4fojjRU1bZU1rpB9wbMPrLjg2QHx8oqfDrOBx6sTC6eNrTG6YP2/BS9BbOC6ffKFDcrqZgG0kiOGgzwwzQZ4lWDO9Kh3si5098gMAJi8V68OB7x4+f0Gp13T0lkm5o43R5bA63h5Z+N0D43RbFxZstNxtU9e2WZqmlXeOQmRBFJyo3IfJOVN6J8uWdr5Uf/LFZpLQSYj0qNRJgmHCZCdGYPU6UgnHK4SbsDsR3aj3q13iTK0CbFZLAlArZ22/umj0jLY2Xz6VrwBlLzwb5CHO3FG+5c+uGSiHYtbOMzcrmAJ8+h9NFPJeb+/I/WLveLlO1gewaq7LRSucVQ7SxA2kIyhZ6XvuHTENwKAQOeQcNPR9W8WFlk771uq71GtKpAPrEhEdy70ZJVlJ6eP81Mb3fzXz2xuEYjzCfsm1CoA2Ecw1uznfej0FrQsGC1AMb7zP5YSBwSRNPVUfAFwLVJ/vKKp+RV/aVHR3E+PE09/2klf3llUP4+yPKZvTbOHFA6fMhpdMjCqaEFL0wZnd+8o/nKim4k/YyPPTCLFiaol0Gr3DvE9F+8gMEQfz000/bt2+/efMmiqKPQI+hFAS5PChIeIAQSmlGm6SmZplFpENlBlJuwuUmALq8E5UaYKnRIzehZg+1+9Dxz3+oMTgpmRGXGkmJiRSbCIkJkxk9RjsJgjkYZXVgMAYcHGDMuxatuh+AqQqJEwTWIWorKX5t9oy0FE4el51DZ1nS8RkQj8/kcdM3btx4/vuvdu3cw2GKxOm5rM/Sz3yFc+jAIa2oFVLyrYpGm7LRpmRy5Rm3nnFo/5DQ24F4osCp4MOKBlRSJ/j25JH1+QdXzLl06G3hpXM3Pz64cz4vf/yIvMgB86OfWTCqx/p/PP1B0fj2K0tI/ZuUvdAtT4V+GotU+ZMgldLHevcDhvtwqirScu452bHekoqesqP9ZMCfAX689Gh/cUU/yZFn5Ucivls7bFFkj0XR/daMe7Y4LrRoasjmKcEF8eHbUl64/ukRCrVQpBshPIz6B0Dmcd7NLzkO3c4BkiRPnz79/vvvM31yuj0C3hZFKAhywwgIUxrsuNSEioyIAqIkRkJmJCV6RKyH6eGWGWG5ySPWObU2vPjtvT9cv6+FKLmJlBoJiYkQd6ISEyozoioTaveASA7koSxOIDjcHfTux95CKhJvampYs2ZD0ux0HieXx87lASuew+HmAakPTh6LnZOUPGf5yrXLlq1nd4OeCeCAiezs1FMffmKUtdtVfJuy6U/ou5Zju3QQXMoGVH5X/P1H7y/gbZ4eVTw9cuvMcW9wp5a8Mmb5uKHzI/0WRPktiO6XG9ErI/yZ7LG91ycN/HRHnOZWvr011XFzEkZnUz4BevoEqIqkqqJVJ/1kx/pKjvSW0SF5KYhR9pcd7S+tGCA/GizcP+nNF0EJeW6k3/zQPiuiBm2c6F8yNfj1uNDNcWGvp78sunGewiCcQmF69cdLzUO0grPgCefCw8+jKLfb/d577509e9ZisfjKpkCKJO0xeWDSDsFanQFywWMaPFYAACAASURBVForJu0kOoyoxEyI9bhYi0oNmNSASo2I1OhRmlGJ3qmDiO+u3tq0tUysdSpMtGMDoMcknYikE5EacXUn0WknEYpykZTB5kIIkLn5WPfGm6VJErdu/7Ro4XJOchaPnctKyuKwQcEUh5vH5s5LZucnJecls3OTWFmJSRksVrY3DcGriUBfEFjp33z+badC7ADaCs00939a+q7qWLuGj2obTY3ff7Ft+Zb4iOKE8KIXIjbFh2yMC9wcE1gwNWD9pOErxwxcGNk7L/zpzIin50Q+NTeqR/6kHq/P6f/t9nHqb1/Grj+P1YxFrwSR1eFEdQRZHUlWR9EjkqwOI6vCqJrR1s+Hy4/1lVf6SSv6Aegr/WRH/eQVAxRHBsoODZQdGfX5qrAF4T1yIp7KjuidE9YrL6z3gii/dVNGFD8ftvH50FdfibpYuZNCrBTphR4o++EYDCOwy+12OJ2Q3WaxdJpNepNBq9eqtWqlSimXy2UymV6v99AN0LtH7i0Wy/79+7/77rvuqTgEUzhDAUsvFinv3qs32exaGyIz4x0mrMNEiA24RI/JTbjSTCjNuMzoUZgRnZ2sE8hXF75x6Uaz1gZ8G7EOlRhxiREXG1EJCOMQKhOht6CgkyhFWRwelwfF6M4qj+GebutFktTdO/cWLliROGtuWsp8LicPJM1zsrkpOWxeVjInI5mTyeZlJyVnMGoIXRF64NnT5bMZ6XPmXf2hxqxU2lUiSNlKQw9KRuhEQ8a3oeW5weokED765RT5f+vR30E+vU3V5Jbfvv/VgZ2pcdsmB26NDy18PrwoIaQkPnhLXPDW2ODSuKCiWP8NU55bPtYvL7pXetQzGRFP50Q+vSD6v1ZN/OueOc9c3x1qOR9D1E4kasejVaPw6lF4TTRRE0XWeKHHLoarPxwgB8uu/eUVA4B1r+wrq+yrqBigPDxEcWhYw+7owum9ssKeyo7omRXRixnZkb3yR/dbETt8/YvB618MOrQ+q7X6W3FTXXNz873G+vtN927X3bl79/79uvuNdfcb791vqr/Pb25sEfBbhC2tba3tHe0SiUQmkxkMBqbzWfcEBIvFsm/fvm+++QaGYZ+b5LP0kM19/vwlkVRm9yBKs1NmxkQmvMNISAy41IBJ9IjMiCrNuEjn1NmpO63y1UVvnPmuSm7ClGZKZiTEOkxiwH1DaiCVRlxjcts9QJnN5kIcLgToEj5uA7Ej2t+3Q/Cli9c2rNuSlJiRlJgJBJ44WWxeJjtlLos3l82by+FlJrMyZsxMTUzMoLNuspmsei43LzExfV7esps1P5mVKkgpgRRAxclbJ0UbOzpC/Wtq0nc/K37r0NvkjZCi0dpcde6NZRsTQrbFBm+JCS6OCymJfwD91oSQ0oSgonj/zQkj18f6Lx3/3LzIPvnhzyyM6rUg8qnF0T3Wx/Y4mNHv/oFY9xU2du0FpGYMVhtKgBwbkGZDXYmAzg2TV/RWVPRTVPSXg8XXAZLKfpJK+hw4MlxzbOKpBQNzwnpkRvTpTnxudJ+siJ7zxvitiRleOC2w8KXIHRkvf767RF1/w92pgSAL0NI22yGr0wk53XYH7HTALofb7XS5HU63w+V2Ma3/mPrXRwCDYfi99947deqUxWLxKSoA4DCQyvnjzbs//HDVbLU5UVTZ6RAb3CIjKjLiEtqxUXTiEj0MwvAW7HaLfMn6rSc+u6AwI4pOXG4ipPTVQApOD98A0KuNLqsLNJWwwzjkQIjHTUh8X5KZWLvdqKhD/vFHn83LXzZjBovNSktJyeJwMlnsTDYoD89OZqXPmJkKsiy5D1LNaOjnrlq5tr7utlkttQHiWyDg1jfblHw6gANwZ0Z3WH+t49869JC80aFsFl0+syfrHxtiArclhJVOCSydElRKC6mWgg4LQcVT/QtjRhbF+xdNCyiMD94UE7J+8siVYwfND+s9P7zfvLB+YB/617WT/no436/x6DjoUixSO5qoYRZoo8h/hmqP91Mc6cMklnWHXnq0v+RIUEP5pPUTe2RH/lfumEFZkX2yI3tnR/bOieqdG90nNxrcXBjdrzg2YEtcYEGMf8FL0fuWpt48d9yuU4A1Y2YOCEqbQOyexFEwCIzuQQsScLq7ND6kmIPTp0/v3btXLpfTGQrgPsbSezz45+e+bmlpQzAMIUmt1SkzuSRGRAwcFVRmQKQGj7wT0djIry7dWrCm5KMvL0mNsLwTkeg9Eh0i0WNSvRd3mQGcAzLa0qsMLosTR0jKARM2yPPLzDN1YDhotUXYIcftW3W7d+3OnJuRNIvDZWWlgABOHhdAP3fGTKBw9nPoN23aJODftWg6LHJa4wBAz7cpWyCwPvPHht6u5NtkjT9+fOC12RMLQLvj4NKY4K1Twb44DnQN2RITVBITALpHxfsXxY8sigugGyiEFE4NfnXiiBXjnl0U1X9+VN/c8Kdyw3osiOqxMa5H5YKBzYenwJdeoa5PI6vGQF8MAzHKI8DGyysG0sa+LzD8lf0UxweLjo46ljcsP7RHbtRTuaP75kT3yYnyjd45UX2yI/ssiPIrigl8bVr4loTQzfEh66eHFyROfm9d3t2vTuFGPYV5CBzGSZC0gJMogSHe2SiN9i9A39jYWFJScunSJY8HYeavYCEMp4wGyyenzopEMhRDCYo02d3KTrcMxOMJmR7RmAm9nRJp7e8c+3Tp+tc+/+cNOQjYYxK9R2bAZAZcqsfEOlRqwFW0qyM3kioTpTTiSr2r044hJOWECciOPHIG/uzmgxwdksDtkE0qart04eviTZtTWHO4rPS01LyU1BwWd87LM7izEtMZ6JnpLI+XP2tW6o7t22UivkXTDqlaaY2DRpviUeh/LdP+yPv81i29XdVi6Lj7zTtb1yeEFcSH0KAHb50a0t3Sl8YG0k0C/YvjmHY6gaUxoSUxEcVxoZtA94RhyycMyovskxnWKzfMb3H0oCXRf90c1+PEwr4dH0yCL09XfTJSdPRZ0ZEh0opn5RWDFBX9QVrl4Z7Sw33Fx0beOzhx2cS/pgT+V86oXjmjeuZE9coBIvfAzIODyD45kX0XRA8ojA3ekhC+JSGsMDZoc6x/0fTQkpciStjxhwpX37/0tceqoUgXSrgR1A2wBe03QWUJjjMxEsaKP2pbPR7PBx98sO21bUJhG8gx69osZvvJDz8RCtoRxIOTWCfkUhjsMr1b2YnrbZTS6Pn68s21JW9t2fnu1VstchMw/GorpegklGY6WGkAE1mtjVJbgX+vMFE09ITK5LE4SZSG3u70dj7u+szH/s3McgmSRF1Oq0Ej1ckF4tbGrz89u2b56qREbjIrhcWb8/LMh6AH2fa8/JkzU4sKigVN96waMaQUgD5qQNDmAfSPYPrr3vytQw+p+BZF081P3ytlT15H974sigM+PVDYoy391tig0jgAPXBv4kcWxwXQfaPCSmMjS+KDi0G7kYBNcf5rpvgvGjs0P3Lg/KgBC6J65Uf0WDy6x8aEHpWLBl7bFdl+YqL4RIT46HBZxWC6XmSAprK/uGLYnYPj8KZ9d8/tXsuNTw55mhP410wwke2ZHelFn4E+L6rf4jGDVk8cWjItZOvzoaUJQVumhZZOj9j8fNSGf4wtSXnxwy3rxLUXKbuFQjwkhhP4A+i70/SI1ScIQqlU7nh7+5tvvtne1k77QuDpJEEdOXKspuaay2WnKNyNEgarRw8REq3z+6t3C7eWrdi45cPPv2uVG6V6p9zgkRtQpYmU6lC5EXCvtVE6iBIqXK0yu6KTkhkImZ5QGHCVEba6QMWx3YU53b+4rPbQWgOoKfF4HGadzKxo6VQKdNKW+jvXK48eWrl6VRIn5fmXEmcnptMVJCDRksvN46Xkz5yZNnsGe8e2t1rv3nZpZC51m13eZANzWa9P/zDlYG2eHr9ODOe3Dr1V2WxV853i23c+3r0zfTrd6hU0fC0Erf9AxwQAPegaElhEc0/fGVwaG14aG1kaH1SaMKI0IaA0IbgwIXxDXPiqSSMXRA/IDQMxx/xI4PNkh/ZYE9PjQPYzVdtDWo9EiiuC5If9FYeHK44NbXgvWPTtCsp9j7R2OJT8yx/sLuDFpkb0nRPRZ25Uv/QoP2ZkRA3IjOqfHdUvN7LPivGDN8WMKEkIBG0JY0ML40I2xQdtiAvdEB+9lf2Ps29skVyvsamUaomoTdDS2spvaeU385uFQqHZbCZ/NnMkCBxFELlUum/v3vWvrv/ss890Oj1TEN/U2HL4cEULvwnHEJcH+/Fu88Gjp9ZufmP1hq2Hj5+paxXLjZBEZ5MbnAqDR2HAjHbKYKfUZqpJZP5nbfOpL2s+/fbm/TajF3odpjRimk6PA6FQkrI5EDf8s2/z0NlJr7vRy1T0iUqiqBsyKq3yFpuqxaZpNakFWpWwhX//2PETmVnzE73Qg9RiLjcvhYZ+5svclKQ5Jes23qu+Cina7SBqyQdSgYxCtYoPwpRdeZf0GuUfpqUmBJq98D2KhuZvjhWzpi4d+2xBQnDxtKCihICSaYFbEoK3xgVviQspjQstiQstjg8pjg8tiQsriQsrjQvfEh+6JT54S0LwFhDeCStJCKPFKANfnTxs+diB88N75Yb+feGov8+L7pET1WNVbI/ylF4XCkLaD02VHJvAr4hsPDWTMl6iSD1F2SncjllVFtH9KyffLciYzRkXyB4XOP+liR+8saF8dX7K2OGsoKfSI3rnRPfLi+q3bNzgDTH+JQnhxdPCip8PL0kIL40LL4yN2JwwupQ1/dCGxdfOnZQKG2RSgUgmFMtEWp0OhunygO5RcboHK0USOIZ2mkyXLl0qKSldvXrtttferDhy/Mzpc5s2Fi1etLSkeMuq1RuWLFv39s53vj5f1SHRddoQm4uwOHGjHTU5CJnW2SrprLop+Pjs5T3vnix75/jJs9//WC8WyCGRziMx4lITDpLvDU4j5EFAMSFltsEwAlShu3+d7sc+/kkQswe6OwSJw7ZOq0IEKdscagEQ8la1WHUimaj57TfeZrGygaXvWpni8fJmzEidNSOVnTQnJYm3NC//uzMfGyT8TkWLUd6ol9SbZA0GSZ2N7ksOMm0VQgeQQPtPG5D4rh6/dUtvV7VAqlZY0XT5RHn2RP+MsL7LJz63IXZE4bSA4ukBpdOCANZxoVtiAejF8d5RAtAP3RIfthWM0K3xIV0jeGtC0JbpwZtiRqweP2hRVO/5kc/kRjydGdk7PeLpvMgey8b12Drzb1+UjPlhX8Ldr1a1N15obr7bcO/m/bs37ty5WffTNcHt6021l258e+7a15+1XL+iFzToWuuFNeePbVmWOWnE7KCe6dEDcqP7z4vyWzt5ZPHzEcUvRJZOC9sWF7wtLvj1aaGl08IKno98LXPGlxXlBkkDiZpxxI6iMI5gJEpnJzMLtsCB984UmdR5D+IxGIz37t3/5JNPy8v3v75t+84de947ePSddw5t3FSyfMWr217f9c6BiuMfnPn49Jcff/rViVOf7z/8wetlB4vf2Lt5a/mbZUePnvym6kajUGpQGFxijUNqQCRGTESvT0n1Tq3F7UBJjKKcHgoCqZYgwNQ9+8B3/GBuwURwulJDEYfdplZCyg6XSuhQ8u2KRoem1SBr2rNrF6194C2bYow9WLFKTGclpXNZc1NYKblz0z84fFArEdiNcpteatOJ7fp2i6qJVn1qZaB3/IGgBzGsVljZbGyo+vTtVxdMCUwN6ZU/uv+qqUM3Jowooo09zX1IKbD3TPzeuy8Flv4x0JdOCyqMD9gUO2LNxMGLonrNi+iZG+WXEz0gd0zf9FG9zu5Y1VH7ibThc53imkotMJg0tk6N02Zye2AMw4HOB+ym3G7C6aRgGNzEcQp2oWa94MalsrX5aeOGswKfzor0y4not3DMkFVTAjbGBxVPCypNCNgS778lLnDbtLDC5yPWvRT1Zs6sK5W7nfIWoGICesl7U/J9iQr00ieIeqIECiCkCBzHXC7YYoFsVofTATudCGSHVWpjW7u8qvrHT89+fejIBwfeqyx/98jew8ePfHzuk68vXb7ZVNeqEmmcShOq6kTFWqfMiIj1HrERExtxkZGQGFG5wWVxA7/JQ1BWhwf0kwAFYP899HQU1Us9DrudRp1V1QEKXlUtTmWTSyswyZr37y7ncvPoPDPQjAT49GAiO4cR7+bxclO4WXN4mamcOTvf3Fn1w5XrV2pv1Vy/VX1ZIbzPtK0FSYcKgYMOZfqs9X9y8Bu39EDB0K5sgZV8RNGAie80f1X5WsZL3PA+c8J7LhzXf82UoQVxAcXxQaXxwb5REh9MjxAAfULYlp9Z+uL4gII4/40xI16dMnTV+IFLx/RfMGpQTtQgXmjPsqUpiEZBoaDclAB/YXRxlIcigV4smNyRFOYBGecEClYs6dYQ4Bjz4ITTgRoU9d+f3ZaXxA4fkBTYMzWsb2ak34Kxg1ZNGbIhdmhh7PCt8YGvx4e+Pj30tReCC6aHbv7H6F2L0m588RFuUIKkUSBX4MvOAU1WiC5REcajIEBpivcuZnkIIyiL1eV0YQhKuUF8HTZ02lWdDpUV1kC41k4qzYTcBNZoOzRumRFRmEF2mtSEiY0ow73UiBjsOEyrszoRzGJ30l8BvL3Punc/6G7pu0NPYojbYjKrOiC1wKludan4sLbNLOO/U1bOZFZyOLlMYj2HnfPyy7xXZqQkJWewWJk8bi7I22FnJ81KnzT+xTFRcWMipkyIHvvt2U+MUnCdp4uHQGLCfwJ699f+lqEHKaZ2YOn5TmWzW9kAy+6h0rvmpivfHtq6YsYodvDfsyL7Lhk3ZN2UEUXTggvjAwvpE4Ahnl6yZZycR92bkoTAgtiR6ycPBS10Jg5aOXHw8onPLZk0LDnwb5/v3Uy5bCRQFQCQE7QFpus0vNlXNAg+E8xgSdB1I3TpCIZSsMOjk1/74uTG7MRZ4f2Tg5/KHN03Z1Sv/FG9104dVpgQWhofvSU+7LWE4NLnwwpfjFiXELnuhXF7F8+9e+4YZpTRuWoITsAYAeNgVsmk23jF+Gifh+afRo/h0oMSDifihkFlOIJSFrtHbnBKDbDMiMpNhNxIygyUzEBJDZTMRMhMqMyESo0eRScm1rmlBo8OItx0EYwdRk0WG4KBBipd4zHcPwK9z7+nKAJxQma12KIU0F3F+bBGaJE0v1tWnsLN44HlKtB1h8PKnjkjbfnSjZs3b01Ny0hKSuHxQLY9jzv/hefTggNjgwKmBvlPCg8Zfen8eZO8DVK1OEDP2qY/FvT0LL7ZoWp0KRtgZQOsqoc19+U/fXW8ZGHe5JEpIb3zRg1cMm7wq3H+RS+ElkwPLQUZCiEl9NS2JC60NC5kC5jsMiOoND6wOD5gY8zwdZOeXTVh0IqJA1ZMGrh80pClk4emhT1zZFMeBRlAPhftYhMUSa/6gwu998cGenkEuPKTtIwZ2NPogxOEKQongawfbHPpxdXnKtalxs8O68kOfSprFAjvLBkz5NUpIUXxYaXxgaC3z/SQkukRJQmRGxLC178yZu/6vLqarzC7msIhAoFwzEXXSHlLprpEmR5g5jPGCEqYzTaHAwaNICjKBlM6GynTe8QaWEmH4VUmSmEEqWZ0ZQmi6kQUBpfWjFhcoNQQpSgnghmtdjcCTjNmbkFz/+9Bj8JOq15uUQkhRatT3gyrBBZR07s7d/M4QNOYDfpM5aXQ4md7yw8LWoTfn/9q3Zo1nGQeh5XB5cybPCkpOHhaYFCCf8CUUdFTaq5cNSnaAfSqJrpR838qS+8z9r9lS09XDIKJLJ9WLW60KRsgoInQ0Kmqc2sbUWV9/TfH38xL5EX0Tw3pPW/c4BUxwzcB3ya0FFAFzPxjoS96AP3AZZP6LZ3ab9mUQcsmP7dyiv/C8f4nilaSegmBQYwmJdOHGfdW6nlFWOkGI942I6AAnLn84wwtOEUgFOGmUDuFWM1KwfkT+1bMnsQK7pUZ3js/2m9etN/C0X6rpjy7KW5kSTxo0VyaEFb6YtTG6aEr4oJXvzy6onCR5Pp3lFVDYS6K8ErZdJl3bxYYbYof8kBwnIDsDpvdidCpD26CsjhJrRlR6t20BAii0CMyvUtpdGvNiNGKWCAURryTZTeKdUJ2Nwq0YElwCoA59f8Aehz3OCxaq6YNUrY6ZE2wotXa3nBgRxmXDWw8SDBm56Ty8mfNSDv0/ocKSRtk7JAI7585eXxh3sIZL3LGjXoxKCA2MCR2RNDESVOn3b39Y6eqHVLxHaBJSQMQc/2VPJzfOPQgUtsVuG22qcGwaprMmgZI1eBWNeIavqP91qVju9ckx7LC+6VG9lk0dsirE0YUxAYXxYeC8GU8Y+lDtgB7H1IaD5pGFcYHrp86fC2w9AOXTQbQL50ycNnkISsmD189NSg7etDbi3iwXesBpa7Ax6ZnmIwLTWv0kWBBtdug+xt63V46TwBcJZgX0REZwuWSNX21f+vS6eG8sF5zI3rljOqbP7rfsnEDX534XEFsQMm0kOJpoUXTQoqfDyuYHroyJmjty+M+fmOjoekW5YEo1E2iiPfyAiwv43yA6SNzrWGKxSmKxHHc6XabIbsTBoogzMTU4sAtdsJiJ8120uoEMiEIc8lgTh+CgmHEYoc8BJgpe6U5AfTg2tY9TNn9+MG15qEjgqQwt91o03ZAyla7DPRAtnQ0MtBzaehTePlpKfPYyemnPzqrlwlsqnpI2wrpxeKWprI3d00cnRAaNDUoNHZE0ISEaS81N961qNsgFbjIA+hpjZBfhfvfPPRACejBYKw+6K+rbIQV9U5lo13Fx00yu1Tw+Xtv5r8QwQnqlRfWb/HoQWunjiiYFlI6PWxrQnjJlODSqSGlMWC1aHNC8JrJw9ZMHgp6ikwcvHLSwOWTByybMnDJlEGLY4YsjhmyMu659LGDhPeugZ6YwL3o8uYf+oF/4QaDB3MS0E8DLpKLQjptHbdP7dyYGxPMCu6ZEdEnJ7JPXmTvhaP81k0ZXjw9rGRaRGFCeOH0yKLpEZviQ1dNDSqcPeXzXYWW1luUG+qyvMDJonkEeQwoRcD0rIOehYK7CZJEMNxqd0IOj9sDZt/gn+AbFFA9ABJ/GAXDpNuFOSDYBjlhuh6RUUfrCpU+2XV/wj+dvuARmAeyakWd0ia74v+V9x1QbZ3Zuuu9NRnbCAlscAck1CWw6R2nx904sSkqgI27sR1cwFTb6U7i2Ck3mZtM7mTeJJNJJpNisAH3TpMoqqgLNZoBoUoHvbXPkQC3xMk4mTv3en3rcDg6EudY37/P/ve/97dFDpOsRyM69frxlNWsdWtYUGiymrNmZUbqutQLp7+3GxSDRrHdIDDrW2wdKsftjpeLXyIFLgnGR8+fz1y7Yp1S1NgPpBdDvwZUrft/i6V/wH06DcJBfYvNKDKbpL0GxWBvl2uot0N87Q+Ht3PC8GuCZnJCZucs8XsxelFhArEgmlAWTy6LJ+XHBu2LXpQbOT83cj5K+txIP/Dpo+Zsj56TFY7dHO27KQyT+wzd3qEGev1cubt7CeEmD8L7EbPL2dnOv/zhoa0bQxetDvZKY/pwGLhsBnbHkrl5kYH5CZTDyYzCBFJhbFBJIrEkmbI3LrgkJfHcxycdbUrXyIBrYtiFBtCR+e2wa2wQIqajyIPFbZtRCz4wNNZvcdrswwND4wNDE5NwOEf7rYNms9NmGxpwjoFMFRh4t2DJFNPRkXvv7Tz4CDrLGR91OHr0ZoPUZhTbO+S32yTvHn/z+TWs9WvY61azU9ZwVy9Pz07j1FRXOPWKIZ3EoRPY9M092uZ+o6JHry/YV0gjxc73Z6SnpOmlAqub9I+4juTfwdLfj/d2ELmFghoL0gTG1m10jdihP/2wTX7rykvb0lOY/inEmWyq1+aQ2XujFhfGBxXHLj4YNW9P+JzcCP89kfNyI+bmRvhD55zIOQj89sTM3xk9P5WO+bRsu2vU/mhIj7AEcSjGgLJjA65hu8veJ6+9dnzvpvVL5qeQvTi0WWzyzCwqbnvo/H2R+EOx+MNxgYdjFhfGBJQmkQtiSblR+CMpydf+dGrYIHcN2kAQHFFdGBt3t6Zwr516rDTK+wmXy+4Y7rc4zR5YrAN25/Dg0DiU1iK0RntPT5e6cbP655Pe847BYWtHv0kGNVDtsm6t6NQbx1NWZ6SsBkv//Lqs1cvTcrfsENy47DSonG1Q/ewwiuzt0j6DxNqpUwoly5/eMN+Pvi1zS5dGbm1XQqf4R1089d+A9DA9/0VpFfDfAdPcXr3U3KEZcVpGR4YmRkdgXunsra/4Ij/tqfV0n/VkLxYTt33J7D1LfPeEzc4Nm7M73G93uD/CeCC9B/57Ihdsi1jIigrU1le7Ru8vpPpgS/fAVzxscCGK3SNIGQhCS2e/+NIPL+WkZITN20jDshg4DsVnE8V/99IFh2ID82MWF8UuLo0jlMQGH1lGyYsJyIkIeIm9qun038a7ja5Bu2tkyDU6Mo42YJj8GyjvkaAPSv3Jy4Imn4hwsfs4qlPmad+AfsA/Y+k9lzA05rht61IBWTvkt7Xid4+/NWnpX0jJXv1cWv6ePDmvxmHU2Ntkdr3E2S6xGIRmg8hslHWo5dz0rfPm0PbverHfqLW1w+eA4t8jrRj8F5HeKLabJHfj4ahvRwYJ8n8hdZhanSapo0Nh6VAO2Po8X/AEEk8cHu0zXfjrh7vXxayhzUqjYzLp3tl0bDbNe8dSv9wIsPS7w/2RAeC3O3zO7si5L8YRNpLnvHdom8vZ4xofRn2buzIfPX/iYX96qABeBNKZEnwRSOYC/2TUNTY8bu7gV35VtmnV8yG4jWTfbOpCLtE3m4LbtdT/QMzCQmhZTixaBmXB+UmUPVFB2yIJb2alCL//wtWhdQ3ZxseHoBZ3YmQcVlHvJu29vEenGlPnIfdxB+Mnf7nrpJ+6Y8+djrqGLYO95pMcgwAAIABJREFUOqtRamuX9+pb/+PEO8+vBvdm/VruhvWbVj6z8ZWiI23CRrtJbdW1IuswIptJ3G8QmvUiR7c+b3fBPD/6scNH+nRqm0kJJyAdx5Dks0ezPvUvIj3qsUA0Csw8ip81Mbfoxf16kUUnsrZBJKvfKLZ060eGBpDwoeebHB12jTkd7ZK/f1i2bfnS55l+6Ux/Ns2XS8FuYfjujvDfGz0vN3LuzrA5uyL89sQuzFw6b8fTEbdbGxHXGTLd0X8/9XU/8HU0jg7kQRiB+hLuWBCSUg+xzrER19jAaJ/28jfvH9z4VHpocAZjIYc2J5sxe0uI767weQcTCAXLyAXLSEhZMLEgnrwvirgrjvF+brbiWtVQj8E1ZBkZtEwA+5G5KEJWdHXJ027HfYXuCBNyOdMv2sNXz7G7f/cc/9Gf7hVr16hrzD5sNlqNrVaTvFcn/RAl/WqE9CnZK5/ZcOKVN4xSgb1diTYMtBiENpPYYhSadYLBHv1LJa8vnMt855W3+vUau1FpM0jR6MX/FNIbpjqDWn9mFBa67OqFVp3I1gYrdjZDi8UoHbV2I2rGU2qME6MjExDhsHZrWj57szjnqfD1FL90Ei6Lgs2hY7aEYHZF+m8P99u61Ccn0j89enFd+f9zDVonRkah2bfn349+1z/2ImSaowwD+iMF1ZC3AOGTiQlI6IJlJ/A6RkddA+Mue2+7/Ls/vpu7dtlG5oJ02hwO1YdD890U4r8zct6LcQsOJxGKEyllycyjy5aWLAvbF0vfkxz2WdFeXc2F0R49BDchVIoOMfS5Ak+T6df3INJPP+cX73tIPwbCstb2e0mfspb7fErWimdf+OS9DzuVEqsJQpZuuRvEe+nXCYZ7jR9/8KeAhUs/ff9jq7HNQ3pwYv+dSY/E3W1GEbq27DAI7XoB0m9ICClKeqETMg5EgwbRoF44qBcOeODUCwZ0HsDBlgF906BeMKQTDelbho3NgwaBq0fjGuh1DdldQw7XsBO2ICs84Bqzu4Z7XQOdFmntV68efPHJJVyw95jNTFw62atoVfhx7pMH1kTUfvexa7DLNeIYR1tHTUBlKxDT/e++roHnxfv9RC09vIL6M1DUPTIByQUe0iPBxFGXa2BixDY+MDYx6JoY6G8Tf/Pey9ueDl9Pm7OB7pfOmMOl47aF+u6NXJgfTyhKIBfHU4riKUWJtP2x1D2xtAPPxf71lYP9cp7L1gXrWZArOT6G+E/TUnmmnBX0IfAAc48a+V9i6pERDkPY5RoetXVZTTJLu+y2TvL+iRMpa9JT1oA8zvp13JXPvfDX//pTj1ZqNUmmSA9NwCUWvWi4R/fdX7+mEkK+/uzPNpPGZlRYwdJLkOnso/Ft/gXdBZEuoSKLQeA0Ckc6xK5u6Xi3ZLRLNNohGjEIBjR8p4o3pOYPqxoG5LV2yXWr6Fq/8GpP06Uu3rmuhurO+mrjrTNt137QXvlGc+Ur1cUvFee/kJ37XH7+C8WFL5UXv9LfKm/nVbfzzrXzznU1X+4WXutsudopvNYhvt4tvzWg5rl0LYYLX31+aNPuWCKbMpu9dHHLPz5xGYUjeuFYj2bEYhpy9gwN9I8OWeHLGxscHvNUi06MgNtzp+28H9Wnjt1BeiDSdEq5WYg8A9BlpvEJ6F01BhGeUWuHrP7T1w9mPRm6nuHPovllk2dzid7ZVMyeiLn5CQHFy4KLk4gly5jFyaGH4kl7YwILVkZ8+1Z+f2vduKXD5RoZGBuCtm9wwWgeEXJV7muYDHEizHdfCNqPcPJhAAHQqTv5kT3PPSE3i6zmTYy7hqyO25peo7RLJzr5zpur1m5cszZj/TruWnDuWRXffN2nQ4ukkC7h0AccVt+tMKlVKBpvHdi+6erZb2ztCqtJBhW0CGwPN+V7GCf5t/bpkVBji03ToLl5uubrD6v+8NLfT+R/emznB/lZb+/a+OqmNcc4y4+xni1LfaJofUL+6qi85eG7nwrZlkzbFE/Mjg3OjiFwI4NYYYtZ4QtZEfMzwuelh81NWzo3bcm89LD5GWEL0sPmp3mQGrYgNWzhxqULNyxdlBpDSI0jsuJIWXGk3CdC8p8Ny1myIJ2I2xyNP5LxTBl35Ss7Nh7Py363bO+fTpZ9/clbV77/s7TuQodaOGC57f7Gx9GE94ejgoclP3m2x4eCn+ACQVbDqAu6JThcE5Z20c2Pj7y4dVlYKmluOtmXRcFwqDO3hGIhdy2ZVLSMWgClM1AhsD8uYGd0QMGa+PL3X7FoRBPOPteobWzMgaQVIA8rdAjCwENJ75kAuC/RnWTmGQcolz238VA/0U+GBeLxIav1tqrHJOnSCU+denvV+rQ1a5GVqVUsdvqWa9VnbO2QR4j49OgWGG/VS+zGVpup1dmlMBvE1vZWi4fxiKX/RSG++8W7f2vSDxqEw+q6798uYIcHpIfMXU/ErCPOWh38+zWE368nzHieMCOdjMlk+GwK8c0Jmb01dM4mpk86eWYGxSuD6s2m49h0HIuGzaB6p1G8Uimz0mmYDJp3Os07jeqdTsWm01Dg0mm4dBo2jYpLo/psJGM3UnAbqb4bKb4bybhUoncqYVZ68CwO2YtFmpFOnrGB9NjqwP+zmvC7FYTHVgTPWEnyWkXGpITO2RCxKOuJ0D+8UjA27PxJ7j4UK+530h2kh6numGtiFLIeJ4bAMRsfcDnNihvnT+VtzYwlZ4T6c0NmZ5BnpRExOaHz8+LxBxMDCxKDipIIkF+dRN4fFbQvOvg467naz9+3awWugd7x8UG3zUZJD6bcky2HzDh+7NY8Vtw9U4AfbqA+0vQtPAPHR5G42fjEqM1q1vS2S7t1gpMn3ly5Ln3tOu4LKZtXrkjfnJ3Lv3nV3g7ODEr0yS3MWfUS0EQwSsxImagFcWz+7d2bQV2z5uKXm2KD1gd7ZYb6cxk+XCaOE4rjMHEcGjab4bMjfN7e6IV7IufBimm4//ZQ3ywaJpPmzZ0CNpOOY1MxGeRZbCqGS8dyaN4sKoaNCBNw6DjuJBg+XIYvh47j0H04NB8ODV7KZPiwkRSALCaWQ/PKoMxg0WZmhmJZDAyb6c0OwbIZ3iwmNp2JS2X6rKf6JAViBLWXJ8aGgLEgDv7o/03yHkJPiKczMYGwB0k4AMM/OuCy3W6q+uaN3ezMeMoGut9Gik8aGZtBmrVtie+B+IDCpODSZaTieEJJfPDRZdT9MYG7Y/GvZq669fUfB4xKl9OCjCXENUPdFrRNCupuTTJ56s6mH/IQGy4GxWSXXDQ1ybOdgDCUa8TpGrbbe/UGFd+kammTNB0pOZKwbPVTT29cszLzmac27txxUNJU7+iUWhA/Hsq9ERuPUB+qwvv1QngOtIstJpF1EmicfjIh5X72+2EcG/Sc38jSW/Uiu1HSrxMOG1rOflC8ljiDxfDJoGLYoCwwM4M+g0XzYlOxmXSf7eHzdobP2xU2d3eY/86ls7NpGA4Fw6F4s6lYNhXHoU2BS8WhQA5iOTQEk4yn4zgMLBsBhwF6NVwGhoOAzQRaZzC80xneGXQsgOadQcOw6QBU5COD5s2GATN7VTDu49cLXeN215gDYcXkvHaKI49uz+2CgPePWGD09zFIfxxxTYwOm2/f+P7Lsqz1rPBFaVSvDNIsNnFmFsVre8jsvKgF+XEBxUmEkmRCyeOkwmWkAzH4fbGk97akik5/NdiuHx9wjI+ODkHysGtoBDKKkIApko4zikiLT90GmjaHjnBEmBvSFNB3IK1XoN4FxdDE8OD40ADAaR42GyxGWZeiSd18rbXhgrjuxgdvnoqPeWpRYBiRGMekLqOS4/buKZIJ+BZEjd5hkjpMUmgXjqwzIklWImiyZBRaTAKLSWDvENk7RLZ2aLNnNyEBbljegRyHh6f4vWf+1qR3anl/LtuymvA7TohvBmUWx0P6DPosFs2bS8dui5i7I2LurnD/XeF+O5f6ZNMwXJT0FCzHw3IusB8MvJvosOMGl45FgNp7LBfojgJhPBMx50xY/syg+2TQfVk0XzbNl0XFscB98mbTvdh0ELdhU7Fcui+X7ruGgHk5l+Ma6XdNDHhSXKbY8Wj3puIqbgcbLC7af8TthIyPu4adY72G6998XJL5LCsyII02G4QYKF7ZNK9d4X4vxi3eHx+Yn4gviA8qSyAeTaa/GBm8M5p6aleW+Hz5QDusZ7lgcoIskE0a9PFRSId2+/qjSMhrCPJ6xlEMTIwPjI85R0fsw0OWkQHzmL1n2NLp7DFaO9tu6+UGhVArbVK01EoaropqroprbjTfuFJ3+dx7b5xIjHwyYFFoICEmKDAGvzh6/lzG9m0HmmtvGKQ3jdKbnbKaLnltl8KNbmVtt7K2V8vrbeP36ni9Op5Z3wiZmO0t9g6h1SgE5TOjxNEOlVn/DO9/TdJPG46Tlt6uqv8gL20N4TFuiC+L6sWherGpszLA2M9k0WdxGJitEX47Iv12RszZFeG7I8w7mzaLS8FwKd5cincmBZtJdYNDw7AY8BYW0NQLMc9eHBqGS/fOBIALlEUDZNIBiNX3Rgw/jkP35dDncKh+HIo/l+KfSfHjUHzZFByb5s2ie2UwZrHpGC4Fm0WdzaX7rA72OsxZ4xq1gZON+huPlunTPg216+A3Q4R9DNgJ4Rd3BGZifHRseAQWs2AdytnXqfj2k7f2b3iSE7mIHYLLYnpz6bPYDJ8tkYv2g8BgUHFc8NEk6ktJjJI4Sl5Y4KFk5h8PbtHerBruNYwMWMYmRkZGR8YGBsec9olh28SwZWywb3Sgd9TRM2zvHrS2O/uN9j59/21Nb4ei29japZeYNC1t8ga1+Iaq+bKCf0FaXyWuOSuqOSOprZTWVTVerbx0+ru//enzN46e3L5p73PPpNDJUUGLQoMCowKC4vFBCSR84qIFS9JScy5XlrfWV0nqymX15fKGChSyhgo5r0LOO6NsqlI2n1M2Vyubq9vEl4yt1zqUNzuVNbfVvF51k0UntBpE6CPiXhP+kEd+NdIbxTbokyhGI012vXjQ1OrQiYZUvE/2s1Pwj2UxfMBTp3pxabM4tBlc2oxs2swtTExupN/eSP+9kf77Iv1zw3y30DE5VJwbNJ8tdDdyGNjNTMxmpvdmJnYzE5sDwOUwfLYwfbYyfRHM3sZwYytz9hambw4yOc4Jmb2F6beF4b+F7r+FNncrwD+HOmczzXcT3WcTA5vN8IYtBbuJ5pvJ8FlH9CrlrnQ5O1yOrokh8+igZXTINjbkGBtyjA47xoaBMa5hm2vE4YETXHDA4BQgG3IQFs5+HGNDsLA6NggJlSNOSKEbtcN4g3oUO+TbDDpg8WHE6Rq1TQybXc5us5L/93cKD6yNzIycm87EpDJwGUzfLLrP3oiFh6F+gHw0iVoSTTiWQCqMwe+OCtr3dNjnL+9X36rqUbX062W9Gkm7vNmgbNIp+W3yBk1rnUp4Uym4Lm+6Iudfaq2/IK0/J26oFtZXCuvPihsqpbxKGb9SwTur4J2VI5A1nFE2Vdee/6Isb+uT0VFLyUziYlrgfGLgQiIZz6AQQsmEcHJwDDU4mkaIClxATn0+9XLlt8qWi3L+WQW/AkG5gl8u551GUN7aUN7aUIFCWl/RWl8hBZxR8M6p+Be1zVd0gmu9mqaH5Pd9T/u1SA/x+HZxv0lka5da9WJ7m9ihFvaJ6vp5l/6Sx8kgzNwWOmcr02driM+Opb7bl2J3hngdDPMtjpl/LCnoaDLh6DLikWWkgpiAvPD5B6MWozgUHZAfEziJgpgAFIdByxKPoigOf19MnlAYRwDEEg7H4CdREB1UEB14KHLxwchFByMXHohasCfMf8dSv63hc1mhs4vTkjRXv9LUfK/mV6lF19pk9QZ5k0HZrNe0mDRN3Spej4rf1ybsaxP1tYnMOomtXWFvV9o7VPYOla1DZe9U2TvV9k4NAq2984GwdWmtXVpbl8bWqbF1qm0dKmuHytqpskIKisKmB1j1iv42WZ9W0qMWdShaetvEZhVfUP35u/vTtz9FzgjzTaV7pZJmZtN9c5hzdi6ZeygGXxhLKAM1OHxJMulQPGFfTFDpqqjP8jfxvvpAdfXvitrTgrqKproKMb9Kyq+W88/JG6pldZXK2sq22mpNfZWCV9nKO9PaVKFoPqNuPqNuOqNsrFA0Vsgbz8j4FZL6H1r5FVcrPz2Wv33Thue3s1m7srN3ZWfvyMrakZW1HbZbdmTu3Jm5bWdWTk5G2svFeTcv/EPWfF7GP+Mh+mkFfxLlYO8bzqBQ8CrlvEp5Q6WsoVJeXyVvqFY0nFM0nDOIbt5W8pE5wC9x7n8t0kPFkwnaqtgNwgFNk+j7v5w9ceyvRXs+3c15dWVMXmRAQTwhPx5UCQqTAouSA48+HnTiWeqp5Yz3VoW+uzrs7ZVLX3mSBuJ4oNN0H5QmTkrZTC+BnayF/bGdskTSEQ88ejjwaUcSSWWJRATBxUnBhcnEwsfJeYmEQ08zXk1b9h+7XvjmtbyrX7wnufqDpKZaWHuupe6cqLaytaZCVlMhrTkjrT0rrT3bWlvZWls1hbqqVg9kddU/jta6amm9G5K6KkmtG9KaqtZblShkNVUy+LVKeqtKXFMtvFUlq6syCi4ZeGdufn3y5L4Xtj1JYi3xy6D5sKhYFhmTScbsWuKfHwuChyACFxdUFE8oiCPkxRLKVkV9XbZNXP6J4uY/1LwKZX25oq5czatSNlQB6euq2uomSV8h5ZfLG8uVjeVKsMrlMl55K69c1gBobTjd2lCubLyobrqp4F1T8K+rmm6gUDbdVDTWKfg8RWO9orFG2XxT1nhJyquWNVbL+GcnfZs7dnhn5Q1VKFSN5zXNF7Utl3XCqwbR9Q5Zba+m0aIXQNKKJ3Hrvrb8xw/+aqQHuR+RQy8YNQqavv6o+OnIQ1HkA2H4QxGEolhyWSK1KI5QGBNYFBdYHB9wJDno9adJJ5fTTi1nnFoR8vZzzJefoJSAMh7eo+cBqh4g8uEZAKVT+k1AekS/EvT9HgZQJJ5ARDFJerRy3P32eEIxSAISjz5OLUkgFcUR8yODDkUEFcTRXl73+PVP3zE0X5HUnZPWX5DVn1PWVynrzyoa4HGv4FUqeZXKBhRnFQ1nFPUVckC5or5CWfcT8JwMb5HVlcvqTiPbcvTtivoKNxrOwF/hV8vqK2X1la11Z1T8alnND7rGKm1D+aXP335z+9ody0gZIbNTqZgMqheLPHMT3Xtv5LyDMQGHY/ElccElscSyBOrhWNLBWOLLKfFfHd0p/OEPptrv2nlnDPxqDf+cgndeybug5V/UNF5QNp6T8Sul/DOyxrPKxrNK/lkF74y8oULWUCGrr1Dyzqj4lQBepaoBoOFXa/nVmoZKBFVq/gV10xV102V10yVV00V10wVNy4U24UWt4JK2xQ296KpBfA3B9U5ZbZe8HkWfpsmsbe7XCSw6ZBZrkjg7Wgc6ZJCf+08s0P5apAdFfb3YqW22S6+/lb3yQAzhWDKtLI54NJ5SFgf1e0XRQcUxQSWxQaVxAa88Hvz2c7RTy2knn6OfXM48/jStLIFQmgAyqKVJpOm8n9wvmRI4+DGj7hFBuOOc6QNj+gmTA6AsgQgi4AnEY8mUo4nk0vjgIwmksjjikUTaoWjyO9y12ptn9C1XtS3X2lqu6psvtTVf1DZf1KBoutiGQNt4AcE5TeM5TSPw4A7wqrX3QMOvViNAdqrUvCo1v1rTOAn4HHCxGqu0Tee1LRe1LfBHlY3nVY3n1c0XlPxqddO5DslVbV35lb+ceGP7upxkYioTl0aZyabO4JB/n83A7Vg672AMviSRWhJHLo4jlSRR8hOIB5aRj7OeuPR+Ufu1v1uFlwdUDVYVr19W2y+60SO4elt4taf1Rq+6rkdT162u7VLWdClvdSkQyG92K2p6VHW3lbW3FbduK271qmp7FLduy2/2ym/1ym/1yG/1qRvM2maztsnc1mjRt/Trmi26Fou+BbYeWA1CT6UIOkltdYB4DsBuRGRgIE8BCd0g8c1/hvG/Yu4NCPToxONGsfbCl/ufoh1OwpckBJYkBJXGE8piSAgIZbH4spjAstiA409RTq1gvrucfnI5/d1VoW7SuzUooePIvfhnSD+d6A/aL4tHVTJhtIAQbAIevfjSGFJBUkjNF++7biv64btstmgb+7VNZm2LWSsAaARmdYtZ3dIP22azusmsbjSrm/rVTRaVG/2qxn5lo1nJ71fCziTMqsY+VSNy/uS2CfmEyW2jWdNo1vD7NY39mkaztrFP22jWNfXpmvv0Tb365l5DS69B0NPWPNAp7ZXfvP7lydc2P7stYRGbPmMj8f+yQnzTaD6bQvx3hy3MjwsuSiCVgAZJcMky0qH4oMKn6B9tW1f/2VsWfnVf00VV1ZdNf3n/5n++efPTE03f/pe+odphaHF2Q5aYDcq0UQg8BaxQxgpaHVDEPR0Im6fWklAtI+gY+WAV4slzpIjw0eT23yINQS92dbTW/On47tiAgqSg4sTAkgR8aVxwaQyxLIZYFouQPjboWCL+refoJ1cwTiGkP7mc+doTZLD0QPrgksT7MB5cnX/C0j+I6NOPI7qwwaXxhJIEQnECvjghsDgxAOF9cF4M8fOSnRNGobUNbJVN32LTC2yQ3uwuD7Dp4SmH6HKJ4YkH3ifAYZA4jBKnUYpiwCQdMLVOh7O9FYLQKNBVG2SLqOSJHSB6JXYaAQ4E6MeiNRawoOOGyNouNutbBkzC8Q6hXXbt8qevHsl4nBO5IDXE7wUKLovpn0nC7mT650UszIc5Fb4omVC8jFiYTDqQELw/mfrR1pQ/7Hjh2Nr4gmXMg4n0vAT63uSQo+nPXfz0zX75zUETymnIirVPs9A2kGRC7vfOLZJiiKgZG8UWALqPRvbQkqg7tzBCUGHue7e/ZNp6r3//a7k3kPjfLnV1yyrfPLQ7cmF+clBRIr4sjnQkllwSSyyJRb1wfFkC4eUnyCdWhbyzknkSPBzG28/QjiXiyxLwpYmEEsC/hvToAPAwPqg4MaA4cVFR4uKChMC8xOA3M1cOyWqdBoHNJLK7IbSbhI52ocMksoNqhchmgPUUFEBHd0+lqXZiSLcZ8R1bI1TDeCAyGwH9RpFVL7Lp3LDrRXa9yKYXe1JW0JoEoVUnsOpabLpmu77ZbmhxGIGUtrbmYZNkolPe2Xz1zEevFW98PDtiMYcyO5OEyyFjt9FwO0J990bNOxAfUJCIL04mFScSD8fi86MD8yMXF8YEFSMTgNJ4Sn4saTN97raY4IoThXbZLSQtHEbgdNUxu0Hi0Evvgl0vtRilZpPUbJKY28XmdpG5XYgAFlxtxvvikenb3Et39MgjJz30DLIAxPaOVlen9IdXXsyNXFyYRChOIJbGU0vjqOBKxgHpS+PwRxLwrz9JObUq9OQK5snl9FMrmG8+TS2NA5sKGmAAmFPeC3A5INXkUaI0nnAXUK+mJCEQtFcTAkoSA4qT8AeTgo+sT+jlVQ21IyYKVgcRFS70sW4Q2DywGmD93A2k5s1tlaGjmAh6ENwJEONHYXTvIKYRcWfBjk7BBtlabsCH6IQ2PQCKE/TAfrDBeoFZ3WTRCizqliGTbNTUaqo9+93bh4ufT94Uvjg1eBaHgsmmIwsdIdjdUXPz4wMPxweBGm4CoSwBNJaPJhJLYwllMcGl8eTCeNJmut+Bp0P4X380qBc7EUzx3i0kf69thlT4fhMKcb8Jotj9JqHFhKywurU9UIWPye2dhv9RF8g+cp8evDGrQWrWS/t0YqtRMmESf/vS3l3hi0oTSaUJlOIEZnECAxGPJ4JzHx90JD7ojSfI764IAZ9+ZcjJlSFvPEUtjltcnBBYlBBUlBhU5KY+OgB+xS3Cb3xp/L0IKosPRBBUFh9Ulog/nBxcuCrcdPPbiS6JVS9EZCpakZRpMK7TYUMtPcr7O77gBxizyYQqI6ReTdIafCfP22EgGQTTIIRrgOStBzz69RKrTmLViW060aBJPNYhabt1+svXXsxbEZYdMR/NvEijPpZO/t22ENyBqAXF8UHFcXgAmADoWHo0LvgIKEIH7w2blxPi+8cDmXYFf8ggHQDTDvbe5ulx7ZHlmtTncu+4A+rT7u6BIXY4Z+pmJ+/6v1lhOHIn6N1C6BTxxiw6UX+boF/bMmYQfffKi7lRgSWJpLIEUnEirTiBikjtBZfG48vigo7GBb7xOPm9FSGnljNPLme+szzktScpRTGLi+MDi+IDCxMgtAzNRR5s8u99CPziI8iEFZz4OwDfPToSCKUJ+NJkQn4yoWDFEuO1r12dIruu2Q59wsT3Jb19mocz7fu7a253f7I+mPTTGY/sA+khonc/TE4KW216qUUrdOhEI0bxSFuT9uo3nx/bdXBtFDd6wQuMWRlMLw5lVg7VuxB6GaEgTHbqLYuH5YsD0Yu5FK/CdQnyy6fHOxQDeolDJ3oo0t//2u57wf8mpEcf2SjvwbEziJ16gVMvcBjErnbp96/uz40C6aIyJBpTmkhC5qCEsnj8kbigY3GBxxHSn3yOeeJZxtvPhryyjFwYtagE1lCCENIjrWyg2Q6h+F+FqfARoTgZf/gJYtm6qL66H1ydoiFd06BR7AQRnjtsPPorMs+bfGpP33mwYfbw42eQHjH86Ez6Ht6jpG+1GWRWndSildh1UqdOOqATubrlw7omQfXnnxzZumd1KCt8DouO3cTwKUggFMbj4X8+AV+ETKhgepNALE0k5kUtYpNnbk2kXP78o4lOlaNN6HxIS++5qXsu7368/7ew9JALCiqTMDF3GMWDemF380VjbYXm2re6K1//+QB3V+Ti/TGB+6MD82LweTFBedGL8yIX5EXOPxi1oDBmYVli4MtPBB97PPjIMlJJEvFQ9OI9S+fui1iwN3JBbtSCPVEL9kQu/I2xN3JhXtTi/ZOIXrwfQV70on2xC/c5NqIGAAAGaklEQVQn40vXhMt/+MPtuvKOhrNmyfVho3DAJLbpWuzgVQsdMAYQIDNa97zW458gJv+nSX8HP6Z/zt3uDWr4hXetUFoNIgBShgeBP32rBSG9tQ327XqJTQejdKS71ann8U5/+NEhVk5sIIuCzYsNRHTPgwoT8YVJsDKNMr44ibgvehGb6pUVS/j+g9dHjTKrqtneJvzfa+ktJpEZmawMd8m1tWff3cd6NevZko1xxSmRufFBmVTcZvrsbLoflzGPy/TPYvpwkDyzLaHY3Ai/PRGz90T65EbM2Rk2dzPDFxIqocgDy0Yy3Vl02PmNwaFhNzF8czzYTPdBAPp7WSG47KVztkYteDk18Xj28nd2bfjs2G7ZlW9GOqXWtmY0iuc0iSfhMIlR2E0Qz/HgIUgPUc5JfRSxJ0Z0X38X/CU4GZUSQpYqJ+cDSJBHatUDbAYZmHyDzGKUQVDFKDGbxLZ24XBHs016+Z3tKSn4mdvDFxQkEwuTCYeTCYeXBRclB5ckEYsTiQdiAraGzs6gzsqKJXz7/mvjJrlDI/jf696AkjCQXtpvko73qL44XvBMwGPPU7zWEB9bS/jdRuJMDuQD47g0HzZ04fOBDF7KzEy619alPrmRfrmRQPpd4bNzGL6QPEzBIunyOBYdl0HH/UtIz6ZhuZ4c5kwqFklshrR+NtUrg46BAhQa5vngGSnEWWtImHVMv4+Ktw0iIUKnUTQdIFjniWnCpFYv8ACmnj+JacYeGTB3PivQB8jk1mGSoAm3d22RmLfUaoCoGhrlRGNraFzIAjNmgc3QOGJoPP+fL68n4zaF+u+OXJCfFHQoMfBQEj4/EX84gXAwNnB7yOxMGmYj+fc5yZRLn3/o6lQN6iCGgwZwHjSFdU/2/oe5N7D0AIwX97W39pukw+3SIvZzawi/54b6pDGxG+iYdBqWw/Dl0nBcGtbTaxvDoXltDsXtjPDLjfTbg5J+qW82GZtFxmVRfLig9+LDpvmwYITg2DTsbwwODctFeM+lAvs5FG8ULComleHFWuLDpmM5dByb4csNm7ue4VPIfrpDdK1HUd8tq+2W1XW11qDolNV0ymo6ECApJXVdchT1XfKGn4CioVvB86ChW1HfrazvVjbcVvF61IBeNX86+jRNfZpmFOa2FnNbC8QS2gRmrdCsFfa1CfrgYHNfG7J8q2u26FtssLoEYVCrSeDQ8Q23fji0NnYDEZPN8NkJkm/+IHMbOX9vxPydS/wyKV5cuncabVZpxpPamurxDsWQXgJzWU+0/kd4P2303s+Jv2tI/Lf16R3tUOgFqZQGKO7qNwn7TEKzUTBgbN6/MXktaRZ3iW8aA5NG92KhTeVpQPRJZNIxW5b47gTxVP/dEX67w2ZvD/XNpHhn0nCZMDygJhChO8p4T2HUVH/6yUb1d+ywaWj10/23k9VVcBoNran15tCg/TcC5CDU2gI4VAyXioHCXCrCeKo3l4pl07zB0jPA3QLS03HZYXPTmb7FGU8ob/2g4VejGVfKurMoFEgimqIB0tGUvEoVvxoFkmBzTs2/D1T88yjU/PPqxilo+OdQaJsutKGYnvAD+5cBLVfaWq7oBFd0gst6wRW94IpRfN0ovmGU3DBKriO4ZpJeN0mvd7Te6Gy92QW1SzVdipvdrVf7JVcq3i1mL52fRvHm0r25NEwWHZdN98lm+GYxfNkMXCoduzUp6PR7JQ6NYFAvdeokTliNksAMweDWFb2X+hCdvIvWP/6rO2p5T7T+x9/1c179hYtTdqPEqheZtS096sYeFa9LWWdU3DDIr1jabr354sYVhN+n0r1TqTNSKY9lUGewoRRwJos6g02dwaYAsuheW5f47Ajz2xUxb2eY//bQOTlMHy7Se57LgKLBqeJuOhaOPASQxwgUubKAl1NgM705TCzUv9K8psPDdS8OfRaXgeEyMSzqzAwKNASHnuAUAMw9qO4iXajTpWBYFAwLatK9MiheaaRZGRQYPB/tS9XVn1Y3VKgbKlT15ZNQ1pcrGyqUvLuhQs5Ez5++VTWcUTacvReqhrPq+ruhgjMrFbyquwE5nvf5EGUDVH4oePe8xDujaaxs458x8CpUl//2aUH2ppjADRRMGhnDImPZVJ8Mmm8q3Td9if+uZxmfHdnSdvOH25L6Hhm/V9Hcp2zuVTab1QJLGyh5/Dxy/xyaPtpP/v8iRxun+bJIGwAAAABJRU5ErkJggg==;" vertex="1" parent="1">
          <mxGeometry x="705" y="880" width="152" height="129.08" as="geometry" />
        </mxCell>
        <mxCell id="vKDNCVvnNCXdLF1c3vbO-37" value="" style="endArrow=classic;html=1;rounded=0;exitX=0.5;exitY=1;exitDx=0;exitDy=0;entryX=0.5;entryY=0;entryDx=0;entryDy=0;" edge="1" parent="1" source="vKDNCVvnNCXdLF1c3vbO-33" target="vKDNCVvnNCXdLF1c3vbO-36">
          <mxGeometry width="50" height="50" relative="1" as="geometry">
            <mxPoint x="570" y="820" as="sourcePoint" />
            <mxPoint x="620" y="770" as="targetPoint" />
          </mxGeometry>
        </mxCell>
        <mxCell id="vKDNCVvnNCXdLF1c3vbO-38" value="&lt;b&gt;&lt;font style=&quot;color: rgb(0, 51, 0);&quot;&gt;Judgment Document&lt;/font&gt;&lt;/b&gt;" style="text;html=1;align=center;verticalAlign=middle;whiteSpace=wrap;rounded=0;" vertex="1" parent="1">
          <mxGeometry x="690.75" y="1020" width="180.5" height="30" as="geometry" />
        </mxCell>
      </root>
    </mxGraphModel>
  </diagram>
</mxfile>
